Monoto-CondensedLight.ufo
<glyph name="exclam" format="2">
  <advance width="300"/>
  <unicode hex="0021"/>
  <outline>
    <contour>
      <point x="140" y="174" type="line"/>
      <point x="161" y="174" type="line"/>
      <point x="165" y="714" type="line"/>
      <point x="136" y="714" type="line"/>
    </contour>
    <contour>
      <point x="150" y="-12" type="curve" smooth="yes"/>
      <point x="166" y="-12"/>
      <point x="172" y="4"/>
      <point x="172" y="23" type="curve" smooth="yes"/>
      <point x="172" y="41"/>
      <point x="166" y="58"/>
      <point x="150" y="58" type="curve" smooth="yes"/>
      <point x="135" y="58"/>
      <point x="129" y="41"/>
      <point x="129" y="23" type="curve" smooth="yes"/>
      <point x="129" y="4"/>
      <point x="135" y="-12"/>
    </contour>
  </outline>
</glyph>
<glyph name="percent" format="2">
  <advance width="300"/>
  <unicode hex="0025"/>
  <outline>
    <contour>
      <point x="26" y="168" type="line"/>
      <point x="54" y="168" type="line"/>
      <point x="271" y="545" type="line"/>
      <point x="243" y="545" type="line"/>
    </contour>
    <contour>
      <point x="213" y="-9" type="curve" smooth="yes"/>
      <point x="263" y="-9"/>
      <point x="290" y="63"/>
      <point x="290" y="163" type="curve" smooth="yes"/>
      <point x="290" y="258"/>
      <point x="262" y="330"/>
      <point x="213" y="330" type="curve" smooth="yes"/>
      <point x="161" y="330"/>
      <point x="135" y="258"/>
      <point x="135" y="163" type="curve" smooth="yes"/>
      <point x="135" y="63"/>
      <point x="162" y="-9"/>
    </contour>
    <contour>
      <point x="213" y="15" type="curve" smooth="yes"/>
      <point x="175" y="15"/>
      <point x="157" y="78"/>
      <point x="157" y="163" type="curve" smooth="yes"/>
      <point x="157" y="246"/>
      <point x="175" y="306"/>
      <point x="213" y="306" type="curve" smooth="yes"/>
      <point x="250" y="306"/>
      <point x="267" y="244"/>
      <point x="267" y="163" type="curve" smooth="yes"/>
      <point x="267" y="77"/>
      <point x="249" y="15"/>
    </contour>
    <contour>
      <point x="87" y="383" type="curve" smooth="yes"/>
      <point x="138" y="383"/>
      <point x="164" y="455"/>
      <point x="164" y="555" type="curve" smooth="yes"/>
      <point x="164" y="650"/>
      <point x="137" y="722"/>
      <point x="88" y="722" type="curve" smooth="yes"/>
      <point x="36" y="722"/>
      <point x="10" y="650"/>
      <point x="10" y="555" type="curve" smooth="yes"/>
      <point x="10" y="455"/>
      <point x="37" y="383"/>
    </contour>
    <contour>
      <point x="88" y="407" type="curve" smooth="yes"/>
      <point x="49" y="407"/>
      <point x="32" y="470"/>
      <point x="32" y="555" type="curve" smooth="yes"/>
      <point x="32" y="638"/>
      <point x="49" y="698"/>
      <point x="88" y="698" type="curve" smooth="yes"/>
      <point x="125" y="698"/>
      <point x="142" y="636"/>
      <point x="142" y="555" type="curve" smooth="yes"/>
      <point x="142" y="469"/>
      <point x="124" y="407"/>
    </contour>
  </outline>
</glyph>
<glyph name="quotesingle" format="2">
  <advance width="300"/>
  <unicode hex="0027"/>
  <outline>
    <contour>
      <point x="141" y="456" type="line"/>
      <point x="159" y="456" type="line"/>
      <point x="163" y="714" type="line"/>
      <point x="136" y="714" type="line"/>
    </contour>
  </outline>
</glyph>
<glyph name="asterisk" format="2">
  <advance width="300"/>
  <unicode hex="002A"/>
  <outline>
    <contour>
      <point x="195" y="431" type="line"/>
      <point x="214" y="446" type="line"/>
      <point x="160" y="578" type="line"/>
      <point x="239" y="627" type="line"/>
      <point x="234" y="650" type="line"/>
      <point x="155" y="594" type="line"/>
      <point x="159" y="759" type="line"/>
      <point x="135" y="759" type="line"/>
      <point x="139" y="594" type="line"/>
      <point x="60" y="649" type="line"/>
      <point x="54" y="627" type="line"/>
      <point x="134" y="578" type="line"/>
      <point x="79" y="445" type="line"/>
      <point x="99" y="431" type="line"/>
      <point x="147" y="568" type="line"/>
    </contour>
  </outline>
</glyph>
<glyph name="plus" format="2">
  <advance width="300"/>
  <unicode hex="002B"/>
  <outline>
    <contour>
      <point x="137" y="123" type="line"/>
      <point x="158" y="123" type="line"/>
      <point x="158" y="340" type="line"/>
      <point x="256" y="340" type="line"/>
      <point x="256" y="364" type="line"/>
      <point x="158" y="364" type="line"/>
      <point x="158" y="583" type="line"/>
      <point x="137" y="583" type="line"/>
      <point x="137" y="364" type="line"/>
      <point x="38" y="364" type="line"/>
      <point x="38" y="340" type="line"/>
      <point x="137" y="340" type="line"/>
    </contour>
  </outline>
</glyph>
<glyph name="zero" format="2">
  <advance width="300"/>
  <unicode hex="0030"/>
  <outline>
    <contour>
      <point x="150" y="-8" type="curve" smooth="yes"/>
      <point x="228" y="-8"/>
      <point x="259" y="130"/>
      <point x="259" y="359" type="curve" smooth="yes"/>
      <point x="259" y="571"/>
      <point x="231" y="725"/>
      <point x="151" y="725" type="curve" smooth="yes"/>
      <point x="69" y="725"/>
      <point x="40" y="572"/>
      <point x="40" y="358" type="curve" smooth="yes"/>
      <point x="40" y="126"/>
      <point x="76" y="-8"/>
    </contour>
    <contour>
      <point x="78" y="84" type="line"/>
      <point x="237" y="579" type="line"/>
      <point x="221" y="599" type="line"/>
      <point x="65" y="118" type="line"/>
    </contour>
    <contour>
      <point x="151" y="17" type="curve" smooth="yes"/>
      <point x="92" y="17"/>
      <point x="66" y="141"/>
      <point x="66" y="359" type="curve" smooth="yes"/>
      <point x="66" y="558"/>
      <point x="88" y="700"/>
      <point x="151" y="700" type="curve" smooth="yes"/>
      <point x="216" y="700"/>
      <point x="234" y="559"/>
      <point x="234" y="359" type="curve" smooth="yes"/>
      <point x="234" y="144"/>
      <point x="211" y="17"/>
    </contour>
  </outline>
</glyph>
<glyph name="one" format="2">
  <advance width="300"/>
  <unicode hex="0031"/>
  <outline>
    <contour>
      <point x="147" y="0" type="line"/>
      <point x="172" y="0" type="line"/>
      <point x="172" y="714" type="line"/>
      <point x="151" y="714" type="line"/>
      <point x="55" y="580" type="line"/>
      <point x="68" y="560" type="line"/>
      <point x="120" y="641" type="line" smooth="yes"/>
      <point x="131" y="658"/>
      <point x="139" y="668"/>
      <point x="148" y="683" type="curve"/>
      <point x="147" y="648"/>
      <point x="147" y="614"/>
      <point x="147" y="565" type="curve" smooth="yes"/>
    </contour>
    <contour>
      <point x="76" y="0" type="line"/>
      <point x="242" y="0" type="line"/>
      <point x="242" y="20" type="line"/>
      <point x="172" y="23" type="line"/>
      <point x="147" y="23" type="line"/>
      <point x="76" y="20" type="line"/>
    </contour>
  </outline>
</glyph>
<glyph name="three" format="2">
  <advance width="300"/>
  <unicode hex="0033"/>
  <outline>
    <contour>
      <point x="134" y="-10" type="curve" smooth="yes"/>
      <point x="214" y="-10"/>
      <point x="256" y="71"/>
      <point x="256" y="189" type="curve" smooth="yes"/>
      <point x="256" y="296"/>
      <point x="225" y="355"/>
      <point x="173" y="372" type="curve"/>
      <point x="173" y="374" type="line"/>
      <point x="215" y="392"/>
      <point x="247" y="455"/>
      <point x="247" y="553" type="curve" smooth="yes"/>
      <point x="247" y="660"/>
      <point x="206" y="724"/>
      <point x="145" y="724" type="curve" smooth="yes"/>
      <point x="105" y="724"/>
      <point x="72" y="697"/>
      <point x="46" y="658" type="curve"/>
      <point x="59" y="638" type="line"/>
      <point x="85" y="677"/>
      <point x="112" y="700"/>
      <point x="144" y="700" type="curve" smooth="yes"/>
      <point x="191" y="700"/>
      <point x="221" y="649"/>
      <point x="221" y="553" type="curve" smooth="yes"/>
      <point x="221" y="441"/>
      <point x="180" y="384"/>
      <point x="128" y="384" type="curve" smooth="yes"/>
      <point x="95" y="384" type="line"/>
      <point x="95" y="359" type="line"/>
      <point x="128" y="359" type="line" smooth="yes"/>
      <point x="187" y="359"/>
      <point x="229" y="314"/>
      <point x="229" y="189" type="curve" smooth="yes"/>
      <point x="229" y="81"/>
      <point x="197" y="15"/>
      <point x="134" y="15" type="curve" smooth="yes"/>
      <point x="102" y="15"/>
      <point x="68" y="33"/>
      <point x="44" y="53" type="curve"/>
      <point x="44" y="26" type="line"/>
      <point x="70" y="5"/>
      <point x="102" y="-10"/>
    </contour>
  </outline>
</glyph>
<glyph name="five" format="2">
  <advance width="300"/>
  <unicode hex="0035"/>
  <outline>
    <contour>
      <point x="130" y="-10" type="curve" smooth="yes"/>
      <point x="209" y="-10"/>
      <point x="254" y="84"/>
      <point x="254" y="220" type="curve" smooth="yes"/>
      <point x="254" y="348"/>
      <point x="213" y="426"/>
      <point x="143" y="426" type="curve" smooth="yes"/>
      <point x="117" y="426"/>
      <point x="97" y="415"/>
      <point x="82" y="408" type="curve"/>
      <point x="93" y="689" type="line"/>
      <point x="231" y="689" type="line"/>
      <point x="231" y="714" type="line"/>
      <point x="71" y="714" type="line"/>
      <point x="56" y="393" type="line"/>
      <point x="70" y="378" type="line"/>
      <point x="88" y="391"/>
      <point x="112" y="401"/>
      <point x="138" y="401" type="curve" smooth="yes"/>
      <point x="199" y="401"/>
      <point x="228" y="331"/>
      <point x="228" y="220" type="curve" smooth="yes"/>
      <point x="228" y="99"/>
      <point x="193" y="15"/>
      <point x="130" y="15" type="curve" smooth="yes"/>
      <point x="99" y="15"/>
      <point x="69" y="33"/>
      <point x="48" y="55" type="curve"/>
      <point x="48" y="26" type="line"/>
      <point x="68" y="6"/>
      <point x="96" y="-10"/>
    </contour>
  </outline>
</glyph>
<glyph name="nine" format="2">
  <advance width="300"/>
  <unicode hex="0039"/>
  <outline>
    <contour>
      <point x="112" y="-10" type="curve" smooth="yes"/>
      <point x="202" y="-10"/>
      <point x="256" y="96"/>
      <point x="256" y="408" type="curve" smooth="yes"/>
      <point x="256" y="594"/>
      <point x="222" y="725"/>
      <point x="147" y="725" type="curve" smooth="yes"/>
      <point x="82" y="725"/>
      <point x="45" y="636"/>
      <point x="45" y="492" type="curve" smooth="yes"/>
      <point x="45" y="363"/>
      <point x="79" y="276"/>
      <point x="141" y="276" type="curve" smooth="yes"/>
      <point x="191" y="276"/>
      <point x="217" y="336"/>
      <point x="230" y="380" type="curve"/>
      <point x="231" y="380" type="line"/>
      <point x="229" y="131"/>
      <point x="185" y="16"/>
      <point x="112" y="16" type="curve" smooth="yes"/>
      <point x="95" y="16"/>
      <point x="77" y="22"/>
      <point x="66" y="30" type="curve"/>
      <point x="66" y="3" type="line"/>
      <point x="77" y="-5"/>
      <point x="95" y="-10"/>
    </contour>
    <contour>
      <point x="145" y="301" type="curve" smooth="yes"/>
      <point x="95" y="301"/>
      <point x="70" y="376"/>
      <point x="70" y="491" type="curve" smooth="yes"/>
      <point x="70" y="623"/>
      <point x="98" y="700"/>
      <point x="147" y="700" type="curve" smooth="yes"/>
      <point x="213" y="700"/>
      <point x="229" y="545"/>
      <point x="229" y="466" type="curve" smooth="yes"/>
      <point x="229" y="379"/>
      <point x="195" y="301"/>
    </contour>
  </outline>
</glyph>
<glyph name="colon" format="2">
  <advance width="300"/>
  <unicode hex="003A"/>
  <outline>
    <contour>
      <point x="150" y="463" type="curve" smooth="yes"/>
      <point x="164" y="463"/>
      <point x="171" y="479"/>
      <point x="171" y="498" type="curve" smooth="yes"/>
      <point x="171" y="516"/>
      <point x="164" y="533"/>
      <point x="150" y="533" type="curve" smooth="yes"/>
      <point x="134" y="533"/>
      <point x="128" y="516"/>
      <point x="128" y="498" type="curve" smooth="yes"/>
      <point x="128" y="479"/>
      <point x="134" y="463"/>
    </contour>
    <contour>
      <point x="150" y="-12" type="curve" smooth="yes"/>
      <point x="164" y="-12"/>
      <point x="171" y="4"/>
      <point x="171" y="23" type="curve" smooth="yes"/>
      <point x="171" y="41"/>
      <point x="164" y="58"/>
      <point x="150" y="58" type="curve" smooth="yes"/>
      <point x="134" y="58"/>
      <point x="128" y="41"/>
      <point x="128" y="23" type="curve" smooth="yes"/>
      <point x="128" y="4"/>
      <point x="134" y="-12"/>
    </contour>
  </outline>
</glyph>
<glyph name="greater" format="2">
  <advance width="300"/>
  <unicode hex="003E"/>
  <outline>
    <contour>
      <point x="40" y="143" type="line"/>
      <point x="258" y="354" type="line"/>
      <point x="258" y="374" type="line"/>
      <point x="40" y="572" type="line"/>
      <point x="40" y="545" type="line"/>
      <point x="230" y="364" type="line"/>
      <point x="40" y="170" type="line"/>
    </contour>
  </outline>
</glyph>
<glyph name="question" format="2">
  <advance width="300"/>
  <unicode hex="003F"/>
  <outline>
    <contour>
      <point x="118" y="174" type="line"/>
      <point x="140" y="174" type="line"/>
      <point x="140" y="189" type="line" smooth="yes"/>
      <point x="140" y="268"/>
      <point x="147" y="304"/>
      <point x="175" y="357" type="curve"/>
      <point x="209" y="413"/>
      <point x="233" y="461"/>
      <point x="233" y="560" type="curve" smooth="yes"/>
      <point x="233" y="671"/>
      <point x="198" y="724"/>
      <point x="143" y="724" type="curve" smooth="yes"/>
      <point x="114" y="724"/>
      <point x="90" y="713"/>
      <point x="66" y="692" type="curve"/>
      <point x="76" y="669" type="line"/>
      <point x="97" y="689"/>
      <point x="117" y="699"/>
      <point x="141" y="699" type="curve" smooth="yes"/>
      <point x="182" y="699"/>
      <point x="208" y="656"/>
      <point x="208" y="561" type="curve" smooth="yes"/>
      <point x="208" y="473"/>
      <point x="190" y="430"/>
      <point x="157" y="372" type="curve" smooth="yes"/>
      <point x="126" y="316"/>
      <point x="118" y="280"/>
      <point x="118" y="190" type="curve" smooth="yes"/>
    </contour>
    <contour>
      <point x="129" y="-12" type="curve" smooth="yes"/>
      <point x="143" y="-12"/>
      <point x="150" y="2"/>
      <point x="150" y="23" type="curve" smooth="yes"/>
      <point x="150" y="43"/>
      <point x="144" y="58"/>
      <point x="129" y="58" type="curve" smooth="yes"/>
      <point x="114" y="58"/>
      <point x="108" y="41"/>
      <point x="108" y="22" type="curve" smooth="yes"/>
      <point x="108" y="3"/>
      <point x="114" y="-12"/>
    </contour>
  </outline>
</glyph>
<glyph name="A" format="2">
  <advance width="300"/>
  <unicode hex="0041"/>
  <anchor x="150" y="0" name="bottom"/>
  <anchor x="261" y="10" name="ogonek"/>
  <anchor x="145" y="743" name="top"/>
  <anchor x="278" y="714" name="topright"/>
  <outline>
    <contour>
      <point x="21" y="0" type="line"/>
      <point x="47" y="0" type="line"/>
      <point x="136" y="603" type="line" smooth="yes"/>
      <point x="140" y="633"/>
      <point x="145" y="659"/>
      <point x="149" y="689" type="curve"/>
      <point x="154" y="656"/>
      <point x="159" y="631"/>
      <point x="163" y="603" type="curve" smooth="yes"/>
      <point x="253" y="0" type="line"/>
      <point x="278" y="0" type="line"/>
      <point x="165" y="715" type="line"/>
      <point x="134" y="715" type="line"/>
    </contour>
    <contour>
      <point x="79" y="276" type="line"/>
      <point x="222" y="276" type="line"/>
      <point x="218" y="301" type="line"/>
      <point x="82" y="301" type="line"/>
    </contour>
  </outline>
</glyph>
<glyph name="C" format="2">
  <advance width="300"/>
  <unicode hex="0043"/>
  <anchor x="177" y="0" name="bottom"/>
  <anchor x="183" y="714" name="top"/>
  <anchor x="279" y="714" name="topright"/>
  <outline>
    <contour>
      <point x="186" y="-10" type="curve" smooth="yes"/>
      <point x="219" y="-10"/>
      <point x="246" y="2"/>
      <point x="266" y="17" type="curve"/>
      <point x="266" y="44" type="line"/>
      <point x="246" y="29"/>
      <point x="220" y="15"/>
      <point x="188" y="15" type="curve" smooth="yes"/>
      <point x="108" y="15"/>
      <point x="65" y="154"/>
      <point x="65" y="359" type="curve" smooth="yes"/>
      <point x="65" y="542"/>
      <point x="106" y="699"/>
      <point x="191" y="699" type="curve" smooth="yes"/>
      <point x="215" y="699"/>
      <point x="239" y="694"/>
      <point x="263" y="669" type="curve"/>
      <point x="273" y="692" type="line"/>
      <point x="248" y="714"/>
      <point x="221" y="724"/>
      <point x="190" y="724" type="curve" smooth="yes"/>
      <point x="90" y="724"/>
      <point x="40" y="558"/>
      <point x="40" y="359" type="curve" smooth="yes"/>
      <point x="40" y="135"/>
      <point x="93" y="-10"/>
    </contour>
  </outline>
</glyph>
<glyph name="F" format="2">
  <advance width="300"/>
  <unicode hex="0046"/>
  <anchor x="154" y="0" name="bottom"/>
  <anchor x="153" y="714" name="top"/>
  <anchor x="279" y="714" name="topright"/>
  <outline>
    <contour>
      <point x="58" y="0" type="line"/>
      <point x="83" y="0" type="line"/>
      <point x="83" y="329" type="line"/>
      <point x="235" y="329" type="line"/>
      <point x="235" y="354" type="line"/>
      <point x="83" y="354" type="line"/>
      <point x="83" y="689" type="line"/>
      <point x="243" y="689" type="line"/>
      <point x="243" y="714" type="line"/>
      <point x="58" y="714" type="line"/>
    </contour>
  </outline>
</glyph>
<glyph name="H" format="2">
  <advance width="300"/>
  <unicode hex="0048"/>
  <anchor x="150" y="0" name="bottom"/>
  <anchor x="150" y="375" name="center"/>
  <anchor x="150" y="714" name="top"/>
  <anchor x="21" y="714" name="topleft"/>
  <anchor x="290" y="714" name="topright"/>
  <outline>
    <contour>
      <point x="43" y="0" type="line"/>
      <point x="68" y="0" type="line"/>
      <point x="68" y="363" type="line"/>
      <point x="232" y="363" type="line"/>
      <point x="232" y="0" type="line"/>
      <point x="257" y="0" type="line"/>
      <point x="257" y="714" type="line"/>
      <point x="232" y="714" type="line"/>
      <point x="232" y="388" type="line"/>
      <point x="68" y="388" type="line"/>
      <point x="68" y="714" type="line"/>
      <point x="43" y="714" type="line"/>
    </contour>
  </outline>
</glyph>
<glyph name="I" format="2">
  <advance width="300"/>
  <unicode hex="0049"/>
  <anchor x="150" y="0" name="bottom"/>
  <anchor x="175" y="10" name="ogonek"/>
  <anchor x="150" y="714" name="top"/>
  <anchor x="21" y="714" name="topleft"/>
  <anchor x="278" y="714" name="topright"/>
  <outline>
    <contour>
      <point x="69" y="0" type="line"/>
      <point x="230" y="0" type="line"/>
      <point x="230" y="20" type="line"/>
      <point x="162" y="23" type="line"/>
      <point x="162" y="690" type="line"/>
      <point x="230" y="694" type="line"/>
      <point x="230" y="714" type="line"/>
      <point x="69" y="714" type="line"/>
      <point x="69" y="694" type="line"/>
      <point x="137" y="690" type="line"/>
      <point x="137" y="23" type="line"/>
      <point x="69" y="20" type="line"/>
    </contour>
  </outline>
</glyph>
<glyph name="K" format="2">
  <advance width="300"/>
  <unicode hex="004B"/>
  <anchor x="152" y="0" name="bottom"/>
  <anchor x="150" y="714" name="top"/>
  <anchor x="279" y="714" name="topright"/>
  <outline>
    <contour>
      <point x="43" y="0" type="line"/>
      <point x="68" y="0" type="line"/>
      <point x="68" y="283" type="line"/>
      <point x="114" y="389" type="line"/>
      <point x="233" y="0" type="line"/>
      <point x="262" y="0" type="line"/>
      <point x="132" y="410" type="line"/>
      <point x="261" y="714" type="line"/>
      <point x="231" y="714" type="line"/>
      <point x="104" y="395" type="line" smooth="yes"/>
      <point x="91" y="362"/>
      <point x="80" y="346"/>
      <point x="68" y="321" type="curve"/>
      <point x="68" y="714" type="line"/>
      <point x="43" y="714" type="line"/>
    </contour>
  </outline>
</glyph>
<glyph name="L" format="2">
  <advance width="300"/>
  <unicode hex="004C"/>
  <anchor x="157" y="0" name="bottom"/>
  <anchor x="149" y="357" name="center"/>
  <anchor x="70" y="714" name="top"/>
  <anchor x="213" y="714" name="topright"/>
  <outline>
    <contour>
      <point x="58" y="0" type="line"/>
      <point x="242" y="0" type="line"/>
      <point x="242" y="25" type="line"/>
      <point x="83" y="25" type="line"/>
      <point x="83" y="714" type="line"/>
      <point x="58" y="714" type="line"/>
    </contour>
  </outline>
</glyph>
<glyph name="S" format="2">
  <advance width="300"/>
  <unicode hex="0053"/>
  <anchor x="149" y="0" name="bottom"/>
  <anchor x="154" y="714" name="top"/>
  <anchor x="278" y="714" name="topright"/>
  <outline>
    <contour>
      <point x="136" y="-10" type="curve" smooth="yes"/>
      <point x="204" y="-10"/>
      <point x="247" y="55"/>
      <point x="247" y="183" type="curve" smooth="yes"/>
      <point x="247" y="298"/>
      <point x="213" y="328"/>
      <point x="156" y="376" type="curve" smooth="yes"/>
      <point x="113" y="412"/>
      <point x="79" y="441"/>
      <point x="79" y="546" type="curve" smooth="yes"/>
      <point x="79" y="647"/>
      <point x="108" y="699"/>
      <point x="157" y="699" type="curve" smooth="yes"/>
      <point x="177" y="699"/>
      <point x="202" y="693"/>
      <point x="228" y="669" type="curve"/>
      <point x="238" y="692" type="line"/>
      <point x="212" y="712"/>
      <point x="184" y="724"/>
      <point x="157" y="724" type="curve" smooth="yes"/>
      <point x="96" y="724"/>
      <point x="54" y="664"/>
      <point x="54" y="543" type="curve" smooth="yes"/>
      <point x="54" y="427"/>
      <point x="93" y="394"/>
      <point x="140" y="353" type="curve" smooth="yes"/>
      <point x="194" y="306"/>
      <point x="222" y="282"/>
      <point x="222" y="182" type="curve" smooth="yes"/>
      <point x="222" y="74"/>
      <point x="192" y="16"/>
      <point x="136" y="16" type="curve" smooth="yes"/>
      <point x="108" y="16"/>
      <point x="76" y="30"/>
      <point x="52" y="46" type="curve"/>
      <point x="52" y="17" type="line"/>
      <point x="77" y="1"/>
      <point x="107" y="-10"/>
    </contour>
  </outline>
</glyph>
<glyph name="T" format="2">
  <advance width="300"/>
  <unicode hex="0054"/>
  <anchor x="149" y="0" name="bottom"/>
  <anchor x="149" y="357" name="center"/>
  <anchor x="149" y="714" name="top"/>
  <anchor x="278" y="714" name="topright"/>
  <outline>
    <contour>
      <point x="136" y="0" type="line"/>
      <point x="161" y="0" type="line"/>
      <point x="161" y="689" type="line"/>
      <point x="266" y="689" type="line"/>
      <point x="266" y="714" type="line"/>
      <point x="33" y="714" type="line"/>
      <point x="33" y="689" type="line"/>
      <point x="136" y="689" type="line"/>
    </contour>
  </outline>
</glyph>
<glyph name="Y" format="2">
  <advance width="300"/>
  <unicode hex="0059"/>
  <anchor x="150" y="0" name="bottom"/>
  <anchor x="150" y="714" name="top"/>
  <anchor x="21" y="714" name="topleft"/>
  <anchor x="278" y="714" name="topright"/>
  <outline>
    <contour>
      <point x="138" y="0" type="line"/>
      <point x="162" y="0" type="line"/>
      <point x="162" y="277" type="line"/>
      <point x="273" y="714" type="line"/>
      <point x="246" y="714" type="line"/>
      <point x="150" y="305" type="line"/>
      <point x="54" y="714" type="line"/>
      <point x="27" y="714" type="line"/>
      <point x="138" y="275" type="line"/>
    </contour>
  </outline>
</glyph>
<glyph name="Z" format="2">
  <advance width="300"/>
  <unicode hex="005A"/>
  <anchor x="164" y="0" name="bottom"/>
  <anchor x="158" y="714" name="top"/>
  <anchor x="279" y="714" name="topright"/>
  <outline>
    <contour>
      <point x="58" y="0" type="line"/>
      <point x="254" y="0" type="line"/>
      <point x="254" y="25" type="line"/>
      <point x="86" y="25" type="line"/>
      <point x="249" y="693" type="line"/>
      <point x="249" y="714" type="line"/>
      <point x="68" y="714" type="line"/>
      <point x="68" y="689" type="line"/>
      <point x="221" y="689" type="line"/>
      <point x="58" y="21" type="line"/>
    </contour>
  </outline>
</glyph>
<glyph name="grave" format="2">
  <advance width="300"/>
  <unicode hex="0060"/>
  <outline>
    <contour>
      <point x="164" y="606" type="curve"/>
      <point x="181" y="606" type="line"/>
      <point x="181" y="615" type="line"/>
      <point x="160" y="658"/>
      <point x="133" y="716"/>
      <point x="117" y="765" type="curve"/>
      <point x="88" y="765" type="line"/>
      <point x="88" y="758" type="line"/>
      <point x="106" y="710"/>
      <point x="140" y="647"/>
    </contour>
  </outline>
</glyph>
<glyph name="a" format="2">
  <advance width="300"/>
  <unicode hex="0061"/>
  <anchor x="151" y="0" name="bottom"/>
  <anchor x="261" y="10" name="ogonek"/>
  <anchor x="154" y="528" name="top"/>
  <anchor x="278" y="528" name="topright"/>
  <outline>
    <contour>
      <point x="131" y="-10" type="curve" smooth="yes"/>
      <point x="178" y="-10"/>
      <point x="202" y="43"/>
      <point x="216" y="98" type="curve"/>
      <point x="217" y="98" type="line"/>
      <point x="221" y="0" type="line"/>
      <point x="241" y="0" type="line"/>
      <point x="241" y="354" type="line" smooth="yes"/>
      <point x="241" y="485"/>
      <point x="211" y="537"/>
      <point x="154" y="537" type="curve" smooth="yes"/>
      <point x="124" y="537"/>
      <point x="97" y="524"/>
      <point x="72" y="502" type="curve"/>
      <point x="81" y="478" type="line"/>
      <point x="106" y="503"/>
      <point x="129" y="512"/>
      <point x="153" y="512" type="curve" smooth="yes"/>
      <point x="194" y="512"/>
      <point x="216" y="469"/>
      <point x="216" y="349" type="curve" smooth="yes"/>
      <point x="216" y="302" type="line"/>
      <point x="168" y="295" type="line" smooth="yes"/>
      <point x="93" y="284"/>
      <point x="51" y="234"/>
      <point x="51" y="129" type="curve" smooth="yes"/>
      <point x="51" y="51"/>
      <point x="80" y="-10"/>
    </contour>
    <contour>
      <point x="135" y="14" type="curve" smooth="yes"/>
      <point x="99" y="14"/>
      <point x="77" y="56"/>
      <point x="77" y="129" type="curve" smooth="yes"/>
      <point x="77" y="220"/>
      <point x="110" y="264"/>
      <point x="172" y="272" type="curve" smooth="yes"/>
      <point x="216" y="278" type="line"/>
      <point x="216" y="220" type="line" smooth="yes"/>
      <point x="216" y="98"/>
      <point x="187" y="14"/>
    </contour>
  </outline>
</glyph>
<glyph name="c" format="2">
  <advance width="300"/>
  <unicode hex="0063"/>
  <anchor x="175" y="0" name="bottom"/>
  <anchor x="171" y="528" name="top"/>
  <anchor x="279" y="528" name="topright"/>
  <outline>
    <contour>
      <point x="178" y="-10" type="curve" smooth="yes"/>
      <point x="204" y="-10"/>
      <point x="229" y="-1"/>
      <point x="246" y="11" type="curve"/>
      <point x="246" y="37" type="line"/>
      <point x="227" y="23"/>
      <point x="202" y="15"/>
      <point x="179" y="15" type="curve" smooth="yes"/>
      <point x="114" y="15"/>
      <point x="85" y="120"/>
      <point x="85" y="259" type="curve" smooth="yes"/>
      <point x="85" y="418"/>
      <point x="122" y="513"/>
      <point x="184" y="513" type="curve" smooth="yes"/>
      <point x="204" y="513"/>
      <point x="223" y="507"/>
      <point x="241" y="493" type="curve"/>
      <point x="249" y="517" type="line"/>
      <point x="230" y="531"/>
      <point x="208" y="538"/>
      <point x="183" y="538" type="curve" smooth="yes"/>
      <point x="108" y="538"/>
      <point x="59" y="431"/>
      <point x="59" y="259" type="curve" smooth="yes"/>
      <point x="59" y="100"/>
      <point x="99" y="-10"/>
    </contour>
  </outline>
</glyph>
<glyph name="i" format="2">
  <advance width="300"/>
  <unicode hex="0069"/>
  <anchor x="156" y="0" name="bottom"/>
  <anchor x="154" y="734" name="top"/>
  <anchor x="240" y="734" name="topright"/>
  <outline>
    <contour>
      <point x="55" y="0" type="line"/>
      <point x="251" y="0" type="line"/>
      <point x="251" y="21" type="line"/>
      <point x="168" y="25" type="line"/>
      <point x="168" y="528" type="line"/>
      <point x="63" y="528" type="line"/>
      <point x="63" y="507" type="line"/>
      <point x="144" y="503" type="line"/>
      <point x="144" y="25" type="line"/>
      <point x="55" y="21" type="line"/>
    </contour>
    <contour>
      <point x="154" y="660" type="curve" smooth="yes"/>
      <point x="170" y="660"/>
      <point x="176" y="679"/>
      <point x="176" y="697" type="curve" smooth="yes"/>
      <point x="176" y="716"/>
      <point x="169" y="734"/>
      <point x="154" y="734" type="curve" smooth="yes"/>
      <point x="138" y="734"/>
      <point x="132" y="716"/>
      <point x="132" y="697" type="curve" smooth="yes"/>
      <point x="132" y="677"/>
      <point x="138" y="660"/>
    </contour>
  </outline>
</glyph>
<glyph name="j" format="2">
  <advance width="300"/>
  <unicode hex="006A"/>
  <anchor x="115" y="-248" name="bottom"/>
  <anchor x="172" y="724" name="top"/>
  <anchor x="278" y="724" name="topright"/>
  <outline>
    <contour>
      <point x="101" y="-248" type="curve" smooth="yes"/>
      <point x="153" y="-248"/>
      <point x="187" y="-196"/>
      <point x="187" y="-88" type="curve" smooth="yes"/>
      <point x="187" y="528" type="line"/>
      <point x="67" y="528" type="line"/>
      <point x="67" y="507" type="line"/>
      <point x="162" y="503" type="line"/>
      <point x="162" y="-81" type="line" smooth="yes"/>
      <point x="162" y="-168"/>
      <point x="141" y="-222"/>
      <point x="100" y="-222" type="curve" smooth="yes"/>
      <point x="80" y="-222"/>
      <point x="50" y="-210"/>
      <point x="37" y="-201" type="curve"/>
      <point x="37" y="-228" type="line"/>
      <point x="48" y="-234"/>
      <point x="76" y="-248"/>
    </contour>
    <contour>
      <point x="171" y="650" type="curve" smooth="yes"/>
      <point x="187" y="650"/>
      <point x="193" y="669"/>
      <point x="193" y="687" type="curve" smooth="yes"/>
      <point x="193" y="706"/>
      <point x="187" y="724"/>
      <point x="171" y="724" type="curve" smooth="yes"/>
      <point x="155" y="724"/>
      <point x="149" y="706"/>
      <point x="149" y="687" type="curve" smooth="yes"/>
      <point x="149" y="667"/>
      <point x="156" y="650"/>
    </contour>
  </outline>
</glyph>
<glyph name="n" format="2">
  <advance width="300"/>
  <unicode hex="006E"/>
  <anchor x="153" y="0" name="bottom"/>
  <anchor x="154" y="528" name="top"/>
  <anchor x="278" y="528" name="topright"/>
  <outline>
    <contour>
      <point x="53" y="0" type="line"/>
      <point x="78" y="0" type="line"/>
      <point x="78" y="307" type="line" smooth="yes"/>
      <point x="78" y="446"/>
      <point x="111" y="512"/>
      <point x="161" y="512" type="curve" smooth="yes"/>
      <point x="202" y="512"/>
      <point x="225" y="467"/>
      <point x="225" y="355" type="curve" smooth="yes"/>
      <point x="225" y="0" type="line"/>
      <point x="249" y="0" type="line"/>
      <point x="249" y="361" type="line" smooth="yes"/>
      <point x="249" y="483"/>
      <point x="218" y="537"/>
      <point x="164" y="537" type="curve" smooth="yes"/>
      <point x="117" y="537"/>
      <point x="89" y="476"/>
      <point x="78" y="416" type="curve"/>
      <point x="76" y="416" type="line"/>
      <point x="73" y="528" type="line"/>
      <point x="53" y="528" type="line"/>
    </contour>
  </outline>
</glyph>
<glyph name="p" format="2">
  <advance width="300"/>
  <unicode hex="0070"/>
  <anchor x="166" y="-240" name="bottom"/>
  <anchor x="166" y="528" name="top"/>
  <anchor x="278" y="528" name="topright"/>
  <outline>
    <contour>
      <point x="53" y="-240" type="line"/>
      <point x="78" y="-240" type="line"/>
      <point x="78" y="11" type="line" smooth="yes"/>
      <point x="78" y="48"/>
      <point x="77" y="83"/>
      <point x="76" y="112" type="curve"/>
      <point x="78" y="112" type="line"/>
      <point x="90" y="50"/>
      <point x="114" y="-10"/>
      <point x="158" y="-10" type="curve" smooth="yes"/>
      <point x="220" y="-10"/>
      <point x="260" y="83"/>
      <point x="260" y="270" type="curve" smooth="yes"/>
      <point x="260" y="448"/>
      <point x="225" y="537"/>
      <point x="161" y="537" type="curve" smooth="yes"/>
      <point x="114" y="537"/>
      <point x="90" y="472"/>
      <point x="77" y="403" type="curve"/>
      <point x="76" y="403" type="line"/>
      <point x="73" y="528" type="line"/>
      <point x="53" y="528" type="line"/>
    </contour>
    <contour>
      <point x="155" y="15" type="curve" smooth="yes"/>
      <point x="107" y="15"/>
      <point x="78" y="95"/>
      <point x="78" y="241" type="curve" smooth="yes"/>
      <point x="78" y="279" type="line" smooth="yes"/>
      <point x="78" y="419"/>
      <point x="104" y="512"/>
      <point x="157" y="512" type="curve" smooth="yes"/>
      <point x="208" y="512"/>
      <point x="234" y="429"/>
      <point x="234" y="270" type="curve" smooth="yes"/>
      <point x="234" y="90"/>
      <point x="203" y="15"/>
    </contour>
  </outline>
</glyph>
<glyph name="q" format="2">
  <advance width="300"/>
  <unicode hex="0071"/>
  <anchor x="144" y="-232" name="bottom"/>
  <anchor x="144" y="528" name="top"/>
  <anchor x="278" y="528" name="topright"/>
  <outline>
    <contour>
      <point x="222" y="-232" type="line"/>
      <point x="247" y="-232" type="line"/>
      <point x="247" y="528" type="line"/>
      <point x="227" y="528" type="line"/>
      <point x="223" y="426" type="line"/>
      <point x="222" y="426" type="line"/>
      <point x="210" y="488"/>
      <point x="186" y="537"/>
      <point x="144" y="537" type="curve" smooth="yes"/>
      <point x="75" y="537"/>
      <point x="40" y="425"/>
      <point x="40" y="261" type="curve" smooth="yes"/>
      <point x="40" y="83"/>
      <point x="76" y="-11"/>
      <point x="140" y="-11" type="curve" smooth="yes"/>
      <point x="182" y="-11"/>
      <point x="209" y="43"/>
      <point x="222" y="116" type="curve"/>
      <point x="224" y="116" type="line"/>
      <point x="222" y="85"/>
      <point x="222" y="40"/>
      <point x="222" y="17" type="curve" smooth="yes"/>
    </contour>
    <contour>
      <point x="143" y="15" type="curve" smooth="yes"/>
      <point x="95" y="15"/>
      <point x="66" y="95"/>
      <point x="66" y="261" type="curve" smooth="yes"/>
      <point x="66" y="420"/>
      <point x="94" y="511"/>
      <point x="147" y="511" type="curve" smooth="yes"/>
      <point x="197" y="511"/>
      <point x="222" y="434"/>
      <point x="222" y="299" type="curve" smooth="yes"/>
      <point x="222" y="239" type="line" smooth="yes"/>
      <point x="222" y="104"/>
      <point x="196" y="15"/>
    </contour>
  </outline>
</glyph>
<glyph name="t" format="2">
  <advance width="300"/>
  <unicode hex="0074"/>
  <anchor x="191" y="0" name="bottom"/>
  <anchor x="138" y="290" name="center"/>
  <anchor x="142" y="659" name="top"/>
  <anchor x="278" y="659" name="topright"/>
  <outline>
    <contour>
      <point x="205" y="-10" type="curve" smooth="yes"/>
      <point x="224" y="-10"/>
      <point x="239" y="-4"/>
      <point x="253" y="3" type="curve"/>
      <point x="253" y="28" type="line"/>
      <point x="238" y="20"/>
      <point x="224" y="15"/>
      <point x="207" y="15" type="curve" smooth="yes"/>
      <point x="164" y="15"/>
      <point x="150" y="75"/>
      <point x="150" y="183" type="curve" smooth="yes"/>
      <point x="150" y="503" type="line"/>
      <point x="249" y="503" type="line"/>
      <point x="249" y="528" type="line"/>
      <point x="150" y="528" type="line"/>
      <point x="150" y="659" type="line"/>
      <point x="132" y="659" type="line"/>
      <point x="125" y="528" type="line"/>
      <point x="51" y="524" type="line"/>
      <point x="51" y="503" type="line"/>
      <point x="125" y="503" type="line"/>
      <point x="125" y="180" type="line" smooth="yes"/>
      <point x="125" y="62"/>
      <point x="149" y="-10"/>
    </contour>
  </outline>
</glyph>
<glyph name="u" format="2">
  <advance width="300"/>
  <unicode hex="0075"/>
  <anchor x="150" y="0" name="bottom"/>
  <anchor x="261" y="10" name="ogonek"/>
  <anchor x="150" y="528" name="top"/>
  <anchor x="278" y="528" name="topright"/>
  <outline>
    <contour>
      <point x="136" y="-10" type="curve" smooth="yes"/>
      <point x="183" y="-10"/>
      <point x="210" y="52"/>
      <point x="221" y="112" type="curve"/>
      <point x="223" y="112" type="line"/>
      <point x="226" y="0" type="line"/>
      <point x="246" y="0" type="line"/>
      <point x="246" y="528" type="line"/>
      <point x="222" y="528" type="line"/>
      <point x="222" y="227" type="line" smooth="yes"/>
      <point x="222" y="82"/>
      <point x="190" y="15"/>
      <point x="142" y="15" type="curve" smooth="yes"/>
      <point x="99" y="15"/>
      <point x="75" y="64"/>
      <point x="75" y="177" type="curve" smooth="yes"/>
      <point x="75" y="528" type="line"/>
      <point x="50" y="528" type="line"/>
      <point x="50" y="171" type="line" smooth="yes"/>
      <point x="50" y="51"/>
      <point x="80" y="-10"/>
    </contour>
  </outline>
</glyph>
<glyph name="w" format="2">
  <advance width="300"/>
  <unicode hex="0077"/>
  <anchor x="152" y="0" name="bottom"/>
  <anchor x="152" y="528" name="top"/>
  <anchor x="278" y="528" name="topright"/>
  <outline>
    <contour>
      <point x="73" y="-1" type="line"/>
      <point x="100" y="-1" type="line"/>
      <point x="137" y="269" type="line" smooth="yes"/>
      <point x="141" y="301"/>
      <point x="147" y="335"/>
      <point x="151" y="367" type="curve"/>
      <point x="152" y="367" type="line"/>
      <point x="156" y="335"/>
      <point x="161" y="304"/>
      <point x="166" y="270" type="curve" smooth="yes"/>
      <point x="202" y="-1" type="line"/>
      <point x="228" y="-1" type="line"/>
      <point x="282" y="528" type="line"/>
      <point x="260" y="528" type="line"/>
      <point x="226" y="155" type="line" smooth="yes"/>
      <point x="222" y="107"/>
      <point x="218" y="89"/>
      <point x="215" y="44" type="curve"/>
      <point x="214" y="44" type="line"/>
      <point x="210" y="77"/>
      <point x="204" y="113"/>
      <point x="198" y="157" type="curve" smooth="yes"/>
      <point x="164" y="407" type="line"/>
      <point x="140" y="407" type="line"/>
      <point x="105" y="160" type="line" smooth="yes"/>
      <point x="98" y="111"/>
      <point x="91" y="73"/>
      <point x="88" y="45" type="curve"/>
      <point x="87" y="45" type="line"/>
      <point x="84" y="78"/>
      <point x="81" y="107"/>
      <point x="76" y="158" type="curve" smooth="yes"/>
      <point x="40" y="528" type="line"/>
      <point x="17" y="528" type="line"/>
    </contour>
  </outline>
</glyph>
<glyph name="z" format="2">
  <advance width="300"/>
  <unicode hex="007A"/>
  <anchor x="155" y="0" name="bottom"/>
  <anchor x="155" y="528" name="top"/>
  <anchor x="279" y="528" name="topright"/>
  <outline>
    <contour>
      <point x="58" y="0" type="line"/>
      <point x="242" y="0" type="line"/>
      <point x="242" y="25" type="line"/>
      <point x="87" y="25" type="line"/>
      <point x="241" y="509" type="line"/>
      <point x="241" y="528" type="line"/>
      <point x="68" y="528" type="line"/>
      <point x="68" y="503" type="line"/>
      <point x="212" y="503" type="line"/>
      <point x="58" y="21" type="line"/>
    </contour>
  </outline>
</glyph>
<glyph name="braceleft" format="2">
  <advance width="300"/>
  <unicode hex="007B"/>
  <outline>
    <contour>
      <point x="227" y="-158" type="curve"/>
      <point x="227" y="-137" type="line"/>
      <point x="179" y="-137"/>
      <point x="161" y="-108"/>
      <point x="161" y="-16" type="curve" smooth="yes"/>
      <point x="161" y="157" type="line" smooth="yes"/>
      <point x="161" y="234"/>
      <point x="149" y="267"/>
      <point x="115" y="277" type="curve"/>
      <point x="115" y="278" type="line"/>
      <point x="149" y="288"/>
      <point x="161" y="327"/>
      <point x="161" y="398" type="curve" smooth="yes"/>
      <point x="161" y="571" type="line" smooth="yes"/>
      <point x="161" y="659"/>
      <point x="182" y="693"/>
      <point x="227" y="693" type="curve"/>
      <point x="227" y="714" type="line"/>
      <point x="167" y="714"/>
      <point x="137" y="672"/>
      <point x="137" y="578" type="curve" smooth="yes"/>
      <point x="137" y="405" type="line" smooth="yes"/>
      <point x="137" y="314"/>
      <point x="120" y="289"/>
      <point x="79" y="289" type="curve"/>
      <point x="79" y="266" type="line"/>
      <point x="125" y="266"/>
      <point x="137" y="238"/>
      <point x="137" y="150" type="curve" smooth="yes"/>
      <point x="137" y="-23" type="line" smooth="yes"/>
      <point x="137" y="-125"/>
      <point x="165" y="-157"/>
    </contour>
  </outline>
</glyph>
<glyph name="cent" format="2">
  <advance width="300"/>
  <unicode hex="00A2"/>
  <outline>
    <contour>
      <point x="170" y="-10" type="line"/>
      <point x="189" y="-10" type="line"/>
      <point x="189" y="91" type="line"/>
      <point x="209" y="93"/>
      <point x="227" y="102"/>
      <point x="240" y="111" type="curve"/>
      <point x="240" y="137" type="line"/>
      <point x="223" y="125"/>
      <point x="202" y="117"/>
      <point x="182" y="117" type="curve" smooth="yes"/>
      <point x="116" y="117"/>
      <point x="85" y="213"/>
      <point x="85" y="360" type="curve" smooth="yes"/>
      <point x="85" y="510"/>
      <point x="119" y="613"/>
      <point x="185" y="613" type="curve" smooth="yes"/>
      <point x="200" y="613"/>
      <point x="217" y="607"/>
      <point x="234" y="593" type="curve"/>
      <point x="241" y="617" type="line"/>
      <point x="226" y="630"/>
      <point x="208" y="637"/>
      <point x="187" y="638" type="curve"/>
      <point x="187" y="724" type="line"/>
      <point x="168" y="724" type="line"/>
      <point x="168" y="637" type="line"/>
      <point x="99" y="624"/>
      <point x="61" y="521"/>
      <point x="61" y="360" type="curve" smooth="yes"/>
      <point x="61" y="202"/>
      <point x="95" y="99"/>
      <point x="170" y="91" type="curve"/>
    </contour>
  </outline>
</glyph>
<glyph name="brokenbar" format="2">
  <advance width="300"/>
  <unicode hex="00A6"/>
  <outline>
    <contour>
      <point x="130" y="386" type="line"/>
      <point x="153" y="386" type="line"/>
      <point x="153" y="762" type="line"/>
      <point x="130" y="762" type="line"/>
    </contour>
    <contour>
      <point x="130" y="-248" type="line"/>
      <point x="153" y="-248" type="line"/>
      <point x="153" y="130" type="line"/>
      <point x="130" y="130" type="line"/>
    </contour>
  </outline>
</glyph>
<glyph name="section" format="2">
  <advance width="300"/>
  <unicode hex="00A7"/>
  <outline>
    <contour>
      <point x="134" y="-12" type="curve" smooth="yes"/>
      <point x="197" y="-12"/>
      <point x="232" y="49"/>
      <point x="232" y="132" type="curve" smooth="yes"/>
      <point x="232" y="186"/>
      <point x="220" y="211"/>
      <point x="194" y="237" type="curve"/>
      <point x="221" y="264"/>
      <point x="241" y="307"/>
      <point x="241" y="372" type="curve" smooth="yes"/>
      <point x="241" y="461"/>
      <point x="200" y="489"/>
      <point x="160" y="521" type="curve" smooth="yes"/>
      <point x="121" y="553"/>
      <point x="99" y="593"/>
      <point x="99" y="648" type="curve" smooth="yes"/>
      <point x="99" y="713"/>
      <point x="125" y="743"/>
      <point x="163" y="743" type="curve" smooth="yes"/>
      <point x="187" y="743"/>
      <point x="208" y="730"/>
      <point x="224" y="716" type="curve"/>
      <point x="233" y="738" type="line"/>
      <point x="214" y="754"/>
      <point x="191" y="766"/>
      <point x="165" y="766" type="curve" smooth="yes"/>
      <point x="110" y="766"/>
      <point x="77" y="720"/>
      <point x="77" y="647" type="curve" smooth="yes"/>
      <point x="77" y="586"/>
      <point x="96" y="549"/>
      <point x="123" y="520" type="curve"/>
      <point x="91" y="499"/>
      <point x="66" y="458"/>
      <point x="66" y="387" type="curve" smooth="yes"/>
      <point x="66" y="311"/>
      <point x="92" y="284"/>
      <point x="137" y="250" type="curve" smooth="yes"/>
      <point x="183" y="215"/>
      <point x="209" y="198"/>
      <point x="209" y="131" type="curve" smooth="yes"/>
      <point x="209" y="64"/>
      <point x="182" y="11"/>
      <point x="135" y="11" type="curve" smooth="yes"/>
      <point x="107" y="11"/>
      <point x="79" y="25"/>
      <point x="59" y="45" type="curve"/>
      <point x="59" y="17" type="line"/>
      <point x="76" y="2"/>
      <point x="105" y="-12"/>
    </contour>
    <contour>
      <point x="177" y="249" type="curve"/>
      <point x="149" y="272" type="line" smooth="yes"/>
      <point x="115" y="301"/>
      <point x="88" y="324"/>
      <point x="88" y="389" type="curve" smooth="yes"/>
      <point x="88" y="456"/>
      <point x="110" y="490"/>
      <point x="142" y="507" type="curve"/>
      <point x="195" y="473"/>
      <point x="219" y="437"/>
      <point x="219" y="369" type="curve" smooth="yes"/>
      <point x="219" y="308"/>
      <point x="201" y="268"/>
    </contour>
  </outline>
</glyph>
<glyph name="dieresis" format="2">
  <advance width="300"/>
  <unicode hex="00A8"/>
  <anchor x="150" y="528" name="_top"/>
  <anchor x="150" y="638" name="top"/>
  <outline>
    <contour>
      <point x="197" y="635" type="curve" smooth="yes"/>
      <point x="210" y="635"/>
      <point x="216" y="650"/>
      <point x="216" y="670" type="curve" smooth="yes"/>
      <point x="216" y="690"/>
      <point x="209" y="706"/>
      <point x="197" y="706" type="curve" smooth="yes"/>
      <point x="185" y="706"/>
      <point x="178" y="689"/>
      <point x="178" y="670" type="curve" smooth="yes"/>
      <point x="178" y="652"/>
      <point x="185" y="635"/>
    </contour>
    <contour>
      <point x="102" y="635" type="curve" smooth="yes"/>
      <point x="115" y="635"/>
      <point x="122" y="650"/>
      <point x="122" y="670" type="curve" smooth="yes"/>
      <point x="122" y="689"/>
      <point x="115" y="706"/>
      <point x="102" y="706" type="curve" smooth="yes"/>
      <point x="90" y="706"/>
      <point x="83" y="688"/>
      <point x="83" y="670" type="curve" smooth="yes"/>
      <point x="83" y="652"/>
      <point x="90" y="635"/>
    </contour>
  </outline>
</glyph>
<glyph name="copyright" format="2">
  <advance width="300"/>
  <unicode hex="00A9"/>
  <outline>
    <contour>
      <point x="148" y="147" type="curve" smooth="yes"/>
      <point x="219" y="147"/>
      <point x="272" y="233"/>
      <point x="272" y="360" type="curve" smooth="yes"/>
      <point x="272" y="483"/>
      <point x="222" y="575"/>
      <point x="150" y="575" type="curve" smooth="yes"/>
      <point x="80" y="575"/>
      <point x="27" y="489"/>
      <point x="27" y="359" type="curve" smooth="yes"/>
      <point x="27" y="234"/>
      <point x="77" y="147"/>
    </contour>
    <contour>
      <point x="153" y="222" type="curve" smooth="yes"/>
      <point x="168" y="222"/>
      <point x="180" y="227"/>
      <point x="192" y="235" type="curve"/>
      <point x="192" y="258" type="line"/>
      <point x="178" y="248"/>
      <point x="165" y="244"/>
      <point x="155" y="244" type="curve" smooth="yes"/>
      <point x="119" y="244"/>
      <point x="98" y="282"/>
      <point x="98" y="357" type="curve" smooth="yes"/>
      <point x="98" y="432"/>
      <point x="119" y="475"/>
      <point x="155" y="475" type="curve" smooth="yes"/>
      <point x="167" y="475"/>
      <point x="180" y="469"/>
      <point x="191" y="461" type="curve"/>
      <point x="197" y="483" type="line"/>
      <point x="185" y="494"/>
      <point x="170" y="498"/>
      <point x="156" y="498" type="curve" smooth="yes"/>
      <point x="106" y="498"/>
      <point x="79" y="444"/>
      <point x="79" y="357" type="curve" smooth="yes"/>
      <point x="79" y="269"/>
      <point x="107" y="222"/>
    </contour>
    <contour>
      <point x="149" y="171" type="curve" smooth="yes"/>
      <point x="87" y="171"/>
      <point x="45" y="253"/>
      <point x="45" y="361" type="curve" smooth="yes"/>
      <point x="45" y="472"/>
      <point x="90" y="550"/>
      <point x="150" y="550" type="curve" smooth="yes"/>
      <point x="211" y="550"/>
      <point x="254" y="467"/>
      <point x="254" y="360" type="curve" smooth="yes"/>
      <point x="254" y="250"/>
      <point x="210" y="171"/>
    </contour>
  </outline>
</glyph>
<glyph name="ordfeminine" format="2">
  <advance width="300"/>
  <unicode hex="00AA"/>
  <outline>
    <contour>
      <point x="138" y="396" type="curve" smooth="yes"/>
      <point x="164" y="396"/>
      <point x="182" y="417"/>
      <point x="193" y="451" type="curve"/>
      <point x="196" y="400" type="line"/>
      <point x="211" y="400" type="line"/>
      <point x="211" y="629" type="line" smooth="yes"/>
      <point x="211" y="689"/>
      <point x="192" y="724"/>
      <point x="151" y="724" type="curve" smooth="yes"/>
      <point x="129" y="724"/>
      <point x="113" y="714"/>
      <point x="97" y="700" type="curve"/>
      <point x="104" y="680" type="line"/>
      <point x="117" y="694"/>
      <point x="132" y="702"/>
      <point x="149" y="702" type="curve" smooth="yes"/>
      <point x="177" y="702"/>
      <point x="191" y="679"/>
      <point x="191" y="623" type="curve" smooth="yes"/>
      <point x="191" y="584" type="line"/>
      <point x="162" y="581" type="line" smooth="yes"/>
      <point x="109" y="576"/>
      <point x="82" y="547"/>
      <point x="82" y="483" type="curve" smooth="yes"/>
      <point x="82" y="425"/>
      <point x="105" y="396"/>
    </contour>
    <contour>
      <point x="141" y="417" type="curve" smooth="yes"/>
      <point x="117" y="417"/>
      <point x="102" y="440"/>
      <point x="102" y="482" type="curve" smooth="yes"/>
      <point x="102" y="536"/>
      <point x="124" y="558"/>
      <point x="166" y="561" type="curve" smooth="yes"/>
      <point x="191" y="563" type="line"/>
      <point x="191" y="524" type="line" smooth="yes"/>
      <point x="191" y="461"/>
      <point x="174" y="417"/>
    </contour>
  </outline>
</glyph>
<glyph name="guillemotleft" format="2">
  <advance width="300"/>
  <unicode hex="00AB"/>
  <outline>
    <contour>
      <point x="231" y="82" type="line"/>
      <point x="247" y="92" type="line"/>
      <point x="179" y="268" type="line"/>
      <point x="247" y="444" type="line"/>
      <point x="231" y="455" type="line"/>
      <point x="149" y="274" type="line"/>
      <point x="149" y="261" type="line"/>
    </contour>
    <contour>
      <point x="133" y="82" type="line"/>
      <point x="149" y="92" type="line"/>
      <point x="81" y="268" type="line"/>
      <point x="149" y="444" type="line"/>
      <point x="133" y="455" type="line"/>
      <point x="51" y="274" type="line"/>
      <point x="51" y="261" type="line"/>
    </contour>
  </outline>
</glyph>
<glyph name="logicalnot" format="2">
  <advance width="300"/>
  <unicode hex="00AC"/>
  <outline>
    <contour>
      <point x="227" y="126" type="line"/>
      <point x="249" y="126" type="line"/>
      <point x="249" y="364" type="line"/>
      <point x="38" y="364" type="line"/>
      <point x="38" y="340" type="line"/>
      <point x="227" y="340" type="line"/>
    </contour>
  </outline>
</glyph>
<glyph name="plusminus" format="2">
  <advance width="300"/>
  <unicode hex="00B1"/>
  <outline>
    <contour>
      <point x="137" y="123" type="line"/>
      <point x="158" y="123" type="line"/>
      <point x="158" y="340" type="line"/>
      <point x="256" y="340" type="line"/>
      <point x="256" y="364" type="line"/>
      <point x="158" y="364" type="line"/>
      <point x="158" y="583" type="line"/>
      <point x="137" y="583" type="line"/>
      <point x="137" y="364" type="line"/>
      <point x="38" y="364" type="line"/>
      <point x="38" y="340" type="line"/>
      <point x="137" y="340" type="line"/>
    </contour>
    <contour>
      <point x="38" y="1" type="line"/>
      <point x="254" y="1" type="line"/>
      <point x="254" y="26" type="line"/>
      <point x="38" y="26" type="line"/>
    </contour>
  </outline>
</glyph>
<glyph name="acute" format="2">
  <advance width="300"/>
  <unicode hex="00B4"/>
  <outline>
    <contour>
      <point x="133" y="606" type="line"/>
      <point x="149" y="606" type="line"/>
      <point x="174" y="647"/>
      <point x="208" y="711"/>
      <point x="225" y="758" type="curve"/>
      <point x="225" y="765" type="line"/>
      <point x="196" y="765" type="line"/>
      <point x="181" y="717"/>
      <point x="157" y="662"/>
      <point x="133" y="615" type="curve"/>
    </contour>
  </outline>
</glyph>
<glyph name="paragraph" format="2">
  <advance width="300"/>
  <unicode hex="00B6"/>
  <outline>
    <contour>
      <point x="139" y="-127" type="line"/>
      <point x="159" y="-127" type="line"/>
      <point x="159" y="734" type="line"/>
      <point x="214" y="734" type="line"/>
      <point x="214" y="-127" type="line"/>
      <point x="234" y="-127" type="line"/>
      <point x="234" y="760" type="line"/>
      <point x="124" y="760" type="line" smooth="yes"/>
      <point x="69" y="760"/>
      <point x="45" y="684"/>
      <point x="45" y="556" type="curve" smooth="yes"/>
      <point x="45" y="438"/>
      <point x="66" y="346"/>
      <point x="114" y="346" type="curve" smooth="yes"/>
      <point x="123" y="346"/>
      <point x="131" y="349"/>
      <point x="139" y="355" type="curve"/>
    </contour>
  </outline>
</glyph>
<glyph name="onesuperior" format="2">
  <advance width="300"/>
  <unicode hex="00B9"/>
  <outline>
    <contour>
      <point x="146" y="416" type="line"/>
      <point x="167" y="416" type="line"/>
      <point x="167" y="843" type="line"/>
      <point x="150" y="843" type="line"/>
      <point x="80" y="768" type="line"/>
      <point x="91" y="748" type="line"/>
      <point x="123" y="783" type="line" smooth="yes"/>
      <point x="133" y="794"/>
      <point x="139" y="802"/>
      <point x="147" y="814" type="curve"/>
      <point x="146" y="784"/>
      <point x="146" y="742"/>
      <point x="146" y="708" type="curve" smooth="yes"/>
    </contour>
    <contour>
      <point x="89" y="416" type="line"/>
      <point x="222" y="416" type="line"/>
      <point x="222" y="435" type="line"/>
      <point x="163" y="440" type="line"/>
      <point x="149" y="440" type="line"/>
      <point x="89" y="435" type="line"/>
    </contour>
  </outline>
</glyph>
<glyph name="ordmasculine" format="2">
  <advance width="300"/>
  <unicode hex="00BA"/>
  <outline>
    <contour>
      <point x="151" y="396" type="curve" smooth="yes"/>
      <point x="199" y="396"/>
      <point x="223" y="467"/>
      <point x="223" y="562" type="curve" smooth="yes"/>
      <point x="223" y="654"/>
      <point x="199" y="725"/>
      <point x="152" y="725" type="curve" smooth="yes"/>
      <point x="106" y="725"/>
      <point x="79" y="661"/>
      <point x="79" y="559" type="curve" smooth="yes"/>
      <point x="79" y="464"/>
      <point x="103" y="396"/>
    </contour>
    <contour>
      <point x="151" y="417" type="curve" smooth="yes"/>
      <point x="117" y="417"/>
      <point x="99" y="475"/>
      <point x="99" y="559" type="curve" smooth="yes"/>
      <point x="99" y="650"/>
      <point x="119" y="704"/>
      <point x="152" y="704" type="curve" smooth="yes"/>
      <point x="186" y="704"/>
      <point x="203" y="640"/>
      <point x="203" y="560" type="curve" smooth="yes"/>
      <point x="203" y="477"/>
      <point x="186" y="417"/>
    </contour>
  </outline>
</glyph>
<glyph name="AE" format="2">
  <advance width="300"/>
  <unicode hex="00C6"/>
  <anchor x="150" y="0" name="bottom"/>
  <anchor x="176" y="714" name="top"/>
  <outline>
    <contour>
      <point x="21" y="0" type="line"/>
      <point x="45" y="0" type="line"/>
      <point x="134" y="689" type="line"/>
      <point x="151" y="689" type="line"/>
      <point x="151" y="0" type="line"/>
      <point x="275" y="0" type="line"/>
      <point x="275" y="25" type="line"/>
      <point x="174" y="25" type="line"/>
      <point x="174" y="364" type="line"/>
      <point x="267" y="364" type="line"/>
      <point x="267" y="389" type="line"/>
      <point x="174" y="389" type="line"/>
      <point x="174" y="689" type="line"/>
      <point x="275" y="689" type="line"/>
      <point x="275" y="714" type="line"/>
      <point x="117" y="714" type="line"/>
    </contour>
    <contour>
      <point x="72" y="275" type="line"/>
      <point x="159" y="275" type="line"/>
      <point x="158" y="300" type="line"/>
      <point x="76" y="300" type="line"/>
    </contour>
  </outline>
</glyph>
<glyph name="multiply" format="2">
  <advance width="300"/>
  <unicode hex="00D7"/>
  <outline>
    <contour>
      <point x="55" y="166" type="line"/>
      <point x="145" y="337" type="line"/>
      <point x="233" y="167" type="line"/>
      <point x="248" y="183" type="line"/>
      <point x="159" y="354" type="line"/>
      <point x="249" y="525" type="line"/>
      <point x="234" y="541" type="line"/>
      <point x="145" y="370" type="line"/>
      <point x="56" y="541" type="line"/>
      <point x="41" y="524" type="line"/>
      <point x="130" y="354" type="line"/>
      <point x="41" y="183" type="line"/>
    </contour>
  </outline>
</glyph>
<glyph name="Oslash" format="2">
  <advance width="300"/>
  <unicode hex="00D8"/>
  <anchor x="149" y="0" name="bottom"/>
  <anchor x="149" y="714" name="top"/>
  <anchor x="31" y="714" name="topleft"/>
  <anchor x="159" y="10" name="ogonek"/>
  <anchor x="159" y="357" name="center"/>
  <anchor x="299" y="714" name="topright"/>
  <outline>
    <contour>
      <point x="33" y="-28" type="line"/>
      <point x="278" y="724" type="line"/>
      <point x="260" y="737" type="line"/>
      <point x="15" y="-15" type="line"/>
    </contour>
    <component base="O" xOffset="10"/>
  </outline>
</glyph>
<glyph name="ae" format="2">
  <advance width="300"/>
  <unicode hex="00E6"/>
  <anchor x="150" y="0" name="bottom"/>
  <anchor x="150" y="528" name="top"/>
  <outline>
    <contour>
      <point x="85" y="-10" type="curve" smooth="yes"/>
      <point x="123" y="-10"/>
      <point x="141" y="49"/>
      <point x="149" y="135" type="curve"/>
      <point x="159" y="49"/>
      <point x="181" y="-10"/>
      <point x="217" y="-10" type="curve" smooth="yes"/>
      <point x="234" y="-10"/>
      <point x="251" y="0"/>
      <point x="268" y="22" type="curve"/>
      <point x="268" y="50" type="line"/>
      <point x="247" y="21"/>
      <point x="232" y="15"/>
      <point x="220" y="15" type="curve" smooth="yes"/>
      <point x="179" y="15"/>
      <point x="161" y="126"/>
      <point x="160" y="270" type="curve"/>
      <point x="278" y="270" type="line"/>
      <point x="278" y="297" type="line" smooth="yes"/>
      <point x="278" y="434"/>
      <point x="257" y="538"/>
      <point x="213" y="538" type="curve" smooth="yes"/>
      <point x="180" y="538"/>
      <point x="161" y="474"/>
      <point x="152" y="395" type="curve"/>
      <point x="146" y="490"/>
      <point x="126" y="537"/>
      <point x="93" y="537" type="curve" smooth="yes"/>
      <point x="69" y="537"/>
      <point x="49" y="523"/>
      <point x="32" y="502" type="curve"/>
      <point x="41" y="479" type="line"/>
      <point x="58" y="504"/>
      <point x="74" y="512"/>
      <point x="89" y="512" type="curve" smooth="yes"/>
      <point x="120" y="512"/>
      <point x="134" y="465"/>
      <point x="134" y="354" type="curve" smooth="yes"/>
      <point x="134" y="296" type="line"/>
      <point x="111" y="294" type="line" smooth="yes"/>
      <point x="55" y="289"/>
      <point x="22" y="237"/>
      <point x="22" y="128" type="curve" smooth="yes"/>
      <point x="22" y="48"/>
      <point x="43" y="-10"/>
    </contour>
    <contour>
      <point x="86" y="15" type="curve" smooth="yes"/>
      <point x="60" y="15"/>
      <point x="46" y="61"/>
      <point x="46" y="127" type="curve" smooth="yes"/>
      <point x="46" y="216"/>
      <point x="69" y="264"/>
      <point x="114" y="269" type="curve" smooth="yes"/>
      <point x="134" y="271" type="line"/>
      <point x="134" y="200" type="line" smooth="yes"/>
      <point x="134" y="107"/>
      <point x="121" y="15"/>
    </contour>
    <contour>
      <point x="161" y="295" type="line"/>
      <point x="163" y="430"/>
      <point x="183" y="513"/>
      <point x="212" y="513" type="curve" smooth="yes"/>
      <point x="241" y="513"/>
      <point x="255" y="418"/>
      <point x="255" y="295" type="curve"/>
    </contour>
  </outline>
</glyph>
<glyph name="divide" format="2">
  <advance width="300"/>
  <unicode hex="00F7"/>
  <outline>
    <contour>
      <point x="41" y="341" type="line"/>
      <point x="259" y="341" type="line"/>
      <point x="259" y="365" type="line"/>
      <point x="41" y="365" type="line"/>
    </contour>
    <contour>
      <point x="150" y="142" type="curve" smooth="yes"/>
      <point x="164" y="142"/>
      <point x="169" y="157"/>
      <point x="169" y="176" type="curve" smooth="yes"/>
      <point x="169" y="193"/>
      <point x="164" y="209"/>
      <point x="150" y="209" type="curve" smooth="yes"/>
      <point x="137" y="209"/>
      <point x="132" y="194"/>
      <point x="132" y="175" type="curve" smooth="yes"/>
      <point x="132" y="158"/>
      <point x="136" y="142"/>
    </contour>
    <contour>
      <point x="150" y="497" type="curve" smooth="yes"/>
      <point x="164" y="497"/>
      <point x="169" y="512"/>
      <point x="169" y="530" type="curve" smooth="yes"/>
      <point x="169" y="548"/>
      <point x="164" y="564"/>
      <point x="150" y="564" type="curve" smooth="yes"/>
      <point x="137" y="564"/>
      <point x="132" y="548"/>
      <point x="132" y="531" type="curve" smooth="yes"/>
      <point x="132" y="512"/>
      <point x="137" y="497"/>
    </contour>
  </outline>
</glyph>
<glyph name="dcroat" format="2">
  <advance width="300"/>
  <unicode hex="0111"/>
  <anchor x="150" y="0" name="bottom"/>
  <anchor x="150" y="264" name="center"/>
  <anchor x="150" y="760" name="top"/>
  <anchor x="278" y="760" name="topright"/>
  <outline>
    <contour>
      <point x="138" y="-10" type="curve" smooth="yes"/>
      <point x="186" y="-10"/>
      <point x="211" y="49"/>
      <point x="222" y="110" type="curve"/>
      <point x="223" y="110" type="line"/>
      <point x="227" y="0" type="line"/>
      <point x="247" y="0" type="line"/>
      <point x="247" y="760" type="line"/>
      <point x="222" y="760" type="line"/>
      <point x="222" y="520" type="line" smooth="yes"/>
      <point x="222" y="488"/>
      <point x="223" y="457"/>
      <point x="224" y="422" type="curve"/>
      <point x="222" y="422" type="line"/>
      <point x="211" y="482"/>
      <point x="185" y="538"/>
      <point x="140" y="538" type="curve" smooth="yes"/>
      <point x="77" y="538"/>
      <point x="40" y="439"/>
      <point x="40" y="255" type="curve" smooth="yes"/>
      <point x="40" y="83"/>
      <point x="74" y="-10"/>
    </contour>
    <contour>
      <point x="143" y="15" type="curve" smooth="yes"/>
      <point x="88" y="15"/>
      <point x="66" y="99"/>
      <point x="66" y="255" type="curve" smooth="yes"/>
      <point x="66" y="426"/>
      <point x="93" y="513"/>
      <point x="145" y="513" type="curve" smooth="yes"/>
      <point x="199" y="513"/>
      <point x="222" y="429"/>
      <point x="222" y="291" type="curve" smooth="yes"/>
      <point x="222" y="242" type="line" smooth="yes"/>
      <point x="222" y="102"/>
      <point x="200" y="15"/>
    </contour>
    <contour>
      <point x="121" y="632" type="line"/>
      <point x="290" y="632" type="line"/>
      <point x="290" y="657" type="line"/>
      <point x="121" y="657" type="line"/>
    </contour>
  </outline>
</glyph>
<glyph name="hbar" format="2">
  <advance width="300"/>
  <unicode hex="0127"/>
  <anchor x="150" y="0" name="bottom"/>
  <anchor x="150" y="264" name="center"/>
  <anchor x="64" y="760" name="top"/>
  <outline>
    <contour>
      <point x="10" y="632" type="line"/>
      <point x="178" y="632" type="line"/>
      <point x="178" y="657" type="line"/>
      <point x="10" y="657" type="line"/>
    </contour>
    <contour>
      <point x="53" y="0" type="line"/>
      <point x="78" y="0" type="line"/>
      <point x="78" y="300" type="line" smooth="yes"/>
      <point x="78" y="447"/>
      <point x="111" y="513"/>
      <point x="159" y="513" type="curve" smooth="yes"/>
      <point x="201" y="513"/>
      <point x="225" y="467"/>
      <point x="225" y="353" type="curve" smooth="yes"/>
      <point x="225" y="0" type="line"/>
      <point x="249" y="0" type="line"/>
      <point x="249" y="356" type="line" smooth="yes"/>
      <point x="249" y="479"/>
      <point x="216" y="538"/>
      <point x="163" y="538" type="curve" smooth="yes"/>
      <point x="115" y="538"/>
      <point x="89" y="478"/>
      <point x="78" y="421" type="curve"/>
      <point x="76" y="421" type="line"/>
      <point x="77" y="446"/>
      <point x="78" y="464"/>
      <point x="78" y="494" type="curve" smooth="yes"/>
      <point x="78" y="760" type="line"/>
      <point x="53" y="760" type="line"/>
    </contour>
  </outline>
</glyph>
<glyph name="idotless" format="2">
  <advance width="300"/>
  <unicode hex="0131"/>
  <anchor x="150" y="0" name="bottom"/>
  <anchor x="262" y="10" name="ogonek"/>
  <anchor x="150" y="528" name="top"/>
  <outline>
    <contour>
      <point x="55" y="0" type="line"/>
      <point x="251" y="0" type="line"/>
      <point x="251" y="21" type="line"/>
      <point x="168" y="25" type="line"/>
      <point x="168" y="528" type="line"/>
      <point x="63" y="528" type="line"/>
      <point x="63" y="507" type="line"/>
      <point x="144" y="503" type="line"/>
      <point x="144" y="25" type="line"/>
      <point x="55" y="21" type="line"/>
    </contour>
  </outline>
</glyph>
<glyph name="ij" format="2">
  <advance width="300"/>
  <unicode hex="0133"/>
  <anchor x="158" y="-248" name="bottom"/>
  <anchor x="10" y="0" name="caret_1"/>
  <anchor x="153" y="724" name="top"/>
  <outline>
    <contour>
      <point x="139" y="-248" type="curve" smooth="yes"/>
      <point x="193" y="-248"/>
      <point x="226" y="-196"/>
      <point x="226" y="-88" type="curve" smooth="yes"/>
      <point x="226" y="528" type="line"/>
      <point x="202" y="528" type="line"/>
      <point x="202" y="-81" type="line" smooth="yes"/>
      <point x="202" y="-168"/>
      <point x="180" y="-222"/>
      <point x="139" y="-222" type="curve" smooth="yes"/>
      <point x="118" y="-222"/>
      <point x="88" y="-210"/>
      <point x="75" y="-201" type="curve"/>
      <point x="75" y="-228" type="line"/>
      <point x="87" y="-234"/>
      <point x="114" y="-248"/>
    </contour>
    <contour>
      <point x="73" y="0" type="line"/>
      <point x="98" y="0" type="line"/>
      <point x="98" y="528" type="line"/>
      <point x="73" y="528" type="line"/>
    </contour>
    <contour>
      <point x="86" y="650" type="curve" smooth="yes"/>
      <point x="102" y="650"/>
      <point x="108" y="669"/>
      <point x="108" y="687" type="curve" smooth="yes"/>
      <point x="108" y="706"/>
      <point x="101" y="724"/>
      <point x="86" y="724" type="curve" smooth="yes"/>
      <point x="70" y="724"/>
      <point x="64" y="706"/>
      <point x="64" y="687" type="curve" smooth="yes"/>
      <point x="64" y="667"/>
      <point x="70" y="650"/>
    </contour>
    <contour>
      <point x="213" y="650" type="curve" smooth="yes"/>
      <point x="229" y="650"/>
      <point x="235" y="669"/>
      <point x="235" y="687" type="curve" smooth="yes"/>
      <point x="235" y="706"/>
      <point x="229" y="724"/>
      <point x="213" y="724" type="curve" smooth="yes"/>
      <point x="197" y="724"/>
      <point x="191" y="706"/>
      <point x="191" y="687" type="curve" smooth="yes"/>
      <point x="191" y="667"/>
      <point x="198" y="650"/>
    </contour>
  </outline>
</glyph>
<glyph name="Lslash" format="2">
  <advance width="300"/>
  <unicode hex="0141"/>
  <anchor x="178" y="0" name="bottom"/>
  <anchor x="95" y="714" name="top"/>
  <anchor x="213" y="714" name="topright"/>
  <anchor x="149" y="357" name="center"/>
  <outline>
    <contour>
      <point x="16" y="320" type="line"/>
      <point x="180" y="471" type="line"/>
      <point x="180" y="496" type="line"/>
      <point x="16" y="346" type="line"/>
    </contour>
    <component base="L"/>
  </outline>
</glyph>
<glyph name="lslash" format="2">
  <advance width="300"/>
  <unicode hex="0142"/>
  <anchor x="149" y="0" name="bottom"/>
  <anchor x="149" y="760" name="top"/>
  <anchor x="244" y="760" name="topright"/>
  <anchor x="162" y="376" name="center"/>
  <outline>
    <contour>
      <point x="86" y="320" type="line"/>
      <point x="250" y="471" type="line"/>
      <point x="250" y="496" type="line"/>
      <point x="86" y="346" type="line"/>
    </contour>
    <component base="l" xOffset="10"/>
  </outline>
</glyph>
<glyph name="napostrophe" format="2">
  <advance width="300"/>
  <unicode hex="0149"/>
  <anchor x="156" y="0" name="bottom"/>
  <anchor x="155" y="528" name="top"/>
  <outline>
    <contour>
      <point x="59" y="0" type="line"/>
      <point x="84" y="0" type="line"/>
      <point x="84" y="307" type="line" smooth="yes"/>
      <point x="84" y="447"/>
      <point x="115" y="512"/>
      <point x="163" y="512" type="curve" smooth="yes"/>
      <point x="202" y="512"/>
      <point x="225" y="466"/>
      <point x="225" y="355" type="curve" smooth="yes"/>
      <point x="225" y="0" type="line"/>
      <point x="250" y="0" type="line"/>
      <point x="250" y="361" type="line" smooth="yes"/>
      <point x="250" y="483"/>
      <point x="219" y="537"/>
      <point x="168" y="537" type="curve" smooth="yes"/>
      <point x="121" y="537"/>
      <point x="95" y="478"/>
      <point x="84" y="416" type="curve"/>
      <point x="82" y="416" type="line"/>
      <point x="79" y="528" type="line"/>
      <point x="59" y="528" type="line"/>
    </contour>
    <component base="quoteright" xOffset="-122"/>
  </outline>
</glyph>
<glyph name="OE" format="2">
  <advance width="300"/>
  <unicode hex="0152"/>
  <anchor x="149" y="0" name="bottom"/>
  <anchor x="149" y="714" name="top"/>
  <outline>
    <contour>
      <point x="146" y="-2" type="curve" smooth="yes"/>
      <point x="158" y="-2"/>
      <point x="168" y="0"/>
      <point x="178" y="0" type="curve" smooth="yes"/>
      <point x="275" y="0" type="line"/>
      <point x="275" y="25" type="line"/>
      <point x="180" y="25" type="line"/>
      <point x="180" y="363" type="line"/>
      <point x="267" y="363" type="line"/>
      <point x="267" y="388" type="line"/>
      <point x="180" y="388" type="line"/>
      <point x="180" y="690" type="line"/>
      <point x="275" y="690" type="line"/>
      <point x="275" y="714" type="line"/>
      <point x="181" y="714" type="line"/>
      <point x="170" y="714"/>
      <point x="159" y="714"/>
      <point x="148" y="714" type="curve" smooth="yes"/>
      <point x="62" y="714"/>
      <point x="33" y="571"/>
      <point x="33" y="359" type="curve" smooth="yes"/>
      <point x="33" y="121"/>
      <point x="68" y="-2"/>
    </contour>
    <contour>
      <point x="145" y="23" type="curve" smooth="yes"/>
      <point x="83" y="23"/>
      <point x="58" y="153"/>
      <point x="58" y="359" type="curve" smooth="yes"/>
      <point x="58" y="545"/>
      <point x="78" y="690"/>
      <point x="145" y="690" type="curve" smooth="yes"/>
      <point x="149" y="690"/>
      <point x="153" y="690"/>
      <point x="155" y="690" type="curve"/>
      <point x="155" y="23" type="line"/>
      <point x="152" y="23"/>
      <point x="149" y="23"/>
    </contour>
  </outline>
</glyph>
<glyph name="oe" format="2">
  <advance width="300"/>
  <unicode hex="0153"/>
  <anchor x="150" y="0" name="bottom"/>
  <anchor x="150" y="528" name="top"/>
  <outline>
    <contour>
      <point x="93" y="-10" type="curve" smooth="yes"/>
      <point x="127" y="-10"/>
      <point x="146" y="50"/>
      <point x="155" y="145" type="curve"/>
      <point x="165" y="43"/>
      <point x="186" y="-10"/>
      <point x="225" y="-10" type="curve" smooth="yes"/>
      <point x="243" y="-10"/>
      <point x="258" y="-2"/>
      <point x="273" y="17" type="curve"/>
      <point x="273" y="43" type="line"/>
      <point x="255" y="20"/>
      <point x="244" y="13"/>
      <point x="227" y="13" type="curve" smooth="yes"/>
      <point x="186" y="13"/>
      <point x="168" y="103"/>
      <point x="167" y="268" type="curve"/>
      <point x="278" y="268" type="line"/>
      <point x="278" y="296" type="line" smooth="yes"/>
      <point x="278" y="426"/>
      <point x="259" y="537"/>
      <point x="215" y="537" type="curve" smooth="yes"/>
      <point x="184" y="537"/>
      <point x="165" y="464"/>
      <point x="156" y="373" type="curve"/>
      <point x="148" y="469"/>
      <point x="128" y="537"/>
      <point x="94" y="537" type="curve" smooth="yes"/>
      <point x="49" y="537"/>
      <point x="22" y="446"/>
      <point x="22" y="256" type="curve" smooth="yes"/>
      <point x="22" y="95"/>
      <point x="42" y="-10"/>
    </contour>
    <contour>
      <point x="93" y="14" type="curve" smooth="yes"/>
      <point x="59" y="14"/>
      <point x="45" y="113"/>
      <point x="45" y="264" type="curve" smooth="yes"/>
      <point x="45" y="421"/>
      <point x="61" y="513"/>
      <point x="93" y="513" type="curve" smooth="yes"/>
      <point x="128" y="513"/>
      <point x="143" y="400"/>
      <point x="143" y="265" type="curve" smooth="yes"/>
      <point x="143" y="124"/>
      <point x="127" y="14"/>
    </contour>
    <contour>
      <point x="168" y="294" type="line"/>
      <point x="168" y="385"/>
      <point x="183" y="513"/>
      <point x="214" y="513" type="curve" smooth="yes"/>
      <point x="241" y="513"/>
      <point x="254" y="423"/>
      <point x="254" y="294" type="curve"/>
    </contour>
  </outline>
</glyph>
<glyph name="tbar" format="2">
  <advance width="300"/>
  <unicode hex="0167"/>
  <anchor x="174" y="0" name="bottom"/>
  <anchor x="140" y="659" name="top"/>
  <anchor x="278" y="659" name="topright"/>
  <anchor x="138" y="290" name="center"/>
  <outline>
    <contour>
      <point x="51" y="285" type="line"/>
      <point x="253" y="285" type="line"/>
      <point x="253" y="310" type="line"/>
      <point x="51" y="310" type="line"/>
    </contour>
    <component base="t"/>
  </outline>
</glyph>
<glyph name="Uogonek" format="2">
  <advance width="300"/>
  <unicode hex="0172"/>
  <anchor x="157" y="-217" name="bottom"/>
  <anchor x="140" y="714" name="top"/>
  <anchor x="262" y="10" name="ogonek"/>
  <anchor x="279" y="714" name="topright"/>
  <outline>
    <contour>
      <point x="155" y="-217" type="curve" smooth="yes"/>
      <point x="164" y="-217"/>
      <point x="173" y="-214"/>
      <point x="179" y="-210" type="curve"/>
      <point x="179" y="-187" type="line"/>
      <point x="175" y="-190"/>
      <point x="166" y="-193"/>
      <point x="159" y="-193" type="curve" smooth="yes"/>
      <point x="139" y="-193"/>
      <point x="130" y="-172"/>
      <point x="130" y="-135" type="curve" smooth="yes"/>
      <point x="130" y="-79"/>
      <point x="155" y="-32"/>
      <point x="193" y="13" type="curve"/>
      <point x="175" y="20" type="line"/>
      <point x="131" y="-31"/>
      <point x="108" y="-84"/>
      <point x="108" y="-138" type="curve" smooth="yes"/>
      <point x="108" y="-190"/>
      <point x="126" y="-217"/>
    </contour>
    <component base="U"/>
  </outline>
</glyph>
<glyph name="uni0180" format="2">
  <advance width="300"/>
  <unicode hex="0180"/>
  <anchor x="149" y="0" name="bottom"/>
  <anchor x="134" y="760" name="top"/>
  <anchor x="288" y="760" name="topright"/>
  <outline>
    <contour>
      <point x="12" y="630" type="line"/>
      <point x="152" y="630" type="line"/>
      <point x="152" y="655" type="line"/>
      <point x="12" y="655" type="line"/>
    </contour>
    <component base="b" xOffset="10"/>
  </outline>
</glyph>
<glyph name="uni0181" format="2">
  <advance width="300"/>
  <unicode hex="0181"/>
  <anchor x="148" y="0" name="bottom"/>
  <anchor x="148" y="714" name="top"/>
  <outline>
    <contour>
      <point x="71" y="0" type="line"/>
      <point x="151" y="0" type="line" smooth="yes"/>
      <point x="223" y="0"/>
      <point x="268" y="66"/>
      <point x="268" y="200" type="curve" smooth="yes"/>
      <point x="268" y="293"/>
      <point x="244" y="357"/>
      <point x="192" y="376" type="curve"/>
      <point x="192" y="377" type="line"/>
      <point x="235" y="392"/>
      <point x="259" y="460"/>
      <point x="259" y="546" type="curve" smooth="yes"/>
      <point x="259" y="658"/>
      <point x="222" y="714"/>
      <point x="144" y="714" type="curve" smooth="yes"/>
      <point x="71" y="714" type="line"/>
    </contour>
    <contour>
      <point x="95" y="25" type="line"/>
      <point x="95" y="363" type="line"/>
      <point x="144" y="363" type="line" smooth="yes"/>
      <point x="206" y="363"/>
      <point x="243" y="324"/>
      <point x="243" y="200" type="curve" smooth="yes"/>
      <point x="243" y="80"/>
      <point x="209" y="25"/>
      <point x="148" y="25" type="curve" smooth="yes"/>
    </contour>
    <contour>
      <point x="19" y="544" type="curve"/>
      <point x="41" y="544" type="line"/>
      <point x="40" y="556"/>
      <point x="38" y="577"/>
      <point x="38" y="596" type="curve" smooth="yes"/>
      <point x="38" y="654"/>
      <point x="50" y="689"/>
      <point x="72" y="689" type="curve" smooth="yes"/>
      <point x="79" y="689" type="line"/>
      <point x="79" y="714" type="line"/>
      <point x="73" y="714" type="line" smooth="yes"/>
      <point x="33" y="714"/>
      <point x="15" y="665"/>
      <point x="15" y="595" type="curve" smooth="yes"/>
      <point x="15" y="579"/>
      <point x="16" y="559"/>
    </contour>
    <contour>
      <point x="95" y="388" type="line"/>
      <point x="95" y="689" type="line"/>
      <point x="138" y="689" type="line" smooth="yes"/>
      <point x="206" y="689"/>
      <point x="233" y="645"/>
      <point x="233" y="546" type="curve" smooth="yes"/>
      <point x="233" y="441"/>
      <point x="204" y="388"/>
      <point x="143" y="388" type="curve" smooth="yes"/>
    </contour>
  </outline>
</glyph>
<glyph name="uni0184" format="2">
  <advance width="300"/>
  <unicode hex="0184"/>
  <anchor x="150" y="0" name="bottom"/>
  <anchor x="150" y="760" name="top"/>
  <outline>
    <contour>
      <point x="160" y="0" type="curve" smooth="yes"/>
      <point x="227" y="0"/>
      <point x="265" y="79"/>
      <point x="265" y="202" type="curve" smooth="yes"/>
      <point x="265" y="337"/>
      <point x="224" y="393"/>
      <point x="141" y="393" type="curve" smooth="yes"/>
      <point x="83" y="393" type="line"/>
      <point x="83" y="714" type="line"/>
      <point x="58" y="714" type="line"/>
      <point x="58" y="203" type="line" smooth="yes"/>
      <point x="58" y="54"/>
      <point x="99" y="0"/>
    </contour>
    <contour>
      <point x="160" y="25" type="curve" smooth="yes"/>
      <point x="116" y="25"/>
      <point x="83" y="66"/>
      <point x="83" y="210" type="curve" smooth="yes"/>
      <point x="83" y="368" type="line"/>
      <point x="137" y="368" type="line" smooth="yes"/>
      <point x="204" y="368"/>
      <point x="239" y="323"/>
      <point x="239" y="201" type="curve" smooth="yes"/>
      <point x="239" y="87"/>
      <point x="210" y="25"/>
    </contour>
  </outline>
</glyph>
<glyph name="uni0187" format="2">
  <advance width="300"/>
  <unicode hex="0187"/>
  <anchor x="185" y="0" name="bottom"/>
  <anchor x="185" y="854" name="top"/>
  <anchor x="289" y="714" name="topright"/>
  <outline>
    <contour>
      <point x="250" y="692" type="line"/>
      <point x="272" y="692" type="line"/>
      <point x="272" y="772" type="line" smooth="yes"/>
      <point x="272" y="818"/>
      <point x="280" y="830"/>
      <point x="292" y="830" type="curve" smooth="yes"/>
      <point x="301" y="830"/>
      <point x="309" y="823"/>
      <point x="312" y="819" type="curve"/>
      <point x="312" y="845" type="line"/>
      <point x="306" y="851"/>
      <point x="299" y="854"/>
      <point x="290" y="854" type="curve" smooth="yes"/>
      <point x="266" y="854"/>
      <point x="250" y="833"/>
      <point x="250" y="770" type="curve" smooth="yes"/>
    </contour>
    <component base="C" xOffset="10"/>
  </outline>
</glyph>
<glyph name="uni0188" format="2">
  <advance width="300"/>
  <unicode hex="0188"/>
  <anchor x="150" y="0" name="bottom"/>
  <anchor x="150" y="769" name="top"/>
  <anchor x="289" y="528" name="topright"/>
  <outline>
    <contour>
      <point x="226" y="517" type="line"/>
      <point x="248" y="517" type="line"/>
      <point x="248" y="685" type="line" smooth="yes"/>
      <point x="248" y="734"/>
      <point x="256" y="746"/>
      <point x="269" y="746" type="curve" smooth="yes"/>
      <point x="277" y="746"/>
      <point x="282" y="744"/>
      <point x="288" y="737" type="curve"/>
      <point x="288" y="761" type="line"/>
      <point x="283" y="766"/>
      <point x="276" y="769"/>
      <point x="266" y="769" type="curve" smooth="yes"/>
      <point x="240" y="769"/>
      <point x="226" y="742"/>
      <point x="226" y="680" type="curve" smooth="yes"/>
    </contour>
    <component base="c" xOffset="10"/>
  </outline>
</glyph>
<glyph name="uni018A" format="2">
  <advance width="300"/>
  <unicode hex="018A"/>
  <anchor x="150" y="0" name="bottom"/>
  <anchor x="150" y="714" name="top"/>
  <outline>
    <contour>
      <point x="73" y="0" type="line"/>
      <point x="126" y="0" type="line" smooth="yes"/>
      <point x="227" y="0"/>
      <point x="268" y="123"/>
      <point x="268" y="362" type="curve" smooth="yes"/>
      <point x="268" y="595"/>
      <point x="227" y="714"/>
      <point x="129" y="714" type="curve" smooth="yes"/>
      <point x="73" y="714" type="line"/>
    </contour>
    <contour>
      <point x="97" y="25" type="line"/>
      <point x="97" y="689" type="line"/>
      <point x="125" y="689" type="line" smooth="yes"/>
      <point x="215" y="689"/>
      <point x="242" y="569"/>
      <point x="242" y="360" type="curve" smooth="yes"/>
      <point x="242" y="140"/>
      <point x="210" y="25"/>
      <point x="125" y="25" type="curve" smooth="yes"/>
    </contour>
    <contour>
      <point x="19" y="544" type="curve"/>
      <point x="41" y="544" type="line"/>
      <point x="40" y="556"/>
      <point x="38" y="577"/>
      <point x="38" y="596" type="curve" smooth="yes"/>
      <point x="38" y="654"/>
      <point x="50" y="689"/>
      <point x="72" y="689" type="curve" smooth="yes"/>
      <point x="79" y="689" type="line"/>
      <point x="79" y="714" type="line"/>
      <point x="73" y="714" type="line" smooth="yes"/>
      <point x="33" y="714"/>
      <point x="15" y="665"/>
      <point x="15" y="595" type="curve" smooth="yes"/>
      <point x="15" y="579"/>
      <point x="16" y="559"/>
    </contour>
  </outline>
</glyph>
<glyph name="uni0193" format="2">
  <advance width="300"/>
  <unicode hex="0193"/>
  <anchor x="150" y="0" name="bottom"/>
  <anchor x="150" y="853" name="top"/>
  <anchor x="288" y="714" name="topright"/>
  <outline>
    <contour>
      <point x="228" y="681" type="line"/>
      <point x="250" y="681" type="line"/>
      <point x="250" y="771" type="line" smooth="yes"/>
      <point x="250" y="817"/>
      <point x="258" y="829"/>
      <point x="270" y="829" type="curve" smooth="yes"/>
      <point x="280" y="829"/>
      <point x="287" y="822"/>
      <point x="290" y="818" type="curve"/>
      <point x="290" y="844" type="line"/>
      <point x="285" y="850"/>
      <point x="277" y="853"/>
      <point x="268" y="853" type="curve" smooth="yes"/>
      <point x="244" y="853"/>
      <point x="228" y="832"/>
      <point x="228" y="769" type="curve" smooth="yes"/>
    </contour>
    <component base="G" xOffset="10"/>
  </outline>
</glyph>
<glyph name="uni0194" format="2">
  <advance width="300"/>
  <unicode hex="0194"/>
  <anchor x="150" y="-242" name="bottom"/>
  <anchor x="150" y="714" name="top"/>
  <outline>
    <contour>
      <point x="150" y="-242" type="curve" smooth="yes"/>
      <point x="186" y="-242"/>
      <point x="201" y="-193"/>
      <point x="201" y="-132" type="curve" smooth="yes"/>
      <point x="201" y="-63"/>
      <point x="185" y="15"/>
      <point x="163" y="119" type="curve"/>
      <point x="273" y="714" type="line"/>
      <point x="248" y="714" type="line"/>
      <point x="163" y="223" type="line" smooth="yes"/>
      <point x="160" y="204"/>
      <point x="153" y="179"/>
      <point x="149" y="158" type="curve"/>
      <point x="145" y="180"/>
      <point x="140" y="201"/>
      <point x="136" y="223" type="curve" smooth="yes"/>
      <point x="52" y="714" type="line"/>
      <point x="27" y="714" type="line"/>
      <point x="136" y="120" type="line"/>
      <point x="120" y="53"/>
      <point x="99" y="-48"/>
      <point x="99" y="-131" type="curve" smooth="yes"/>
      <point x="99" y="-190"/>
      <point x="113" y="-242"/>
    </contour>
    <contour>
      <point x="150" y="-221" type="curve" smooth="yes"/>
      <point x="129" y="-221"/>
      <point x="122" y="-175"/>
      <point x="122" y="-127" type="curve" smooth="yes"/>
      <point x="122" y="-59"/>
      <point x="133" y="11"/>
      <point x="150" y="84" type="curve"/>
      <point x="168" y="-2"/>
      <point x="178" y="-66"/>
      <point x="178" y="-130" type="curve" smooth="yes"/>
      <point x="178" y="-175"/>
      <point x="172" y="-221"/>
    </contour>
  </outline>
</glyph>
<glyph name="uni0196" format="2">
  <advance width="300"/>
  <unicode hex="0196"/>
  <anchor x="174" y="0" name="bottom"/>
  <anchor x="124" y="714" name="top"/>
  <outline>
    <contour>
      <point x="186" y="-10" type="curve" smooth="yes"/>
      <point x="203" y="-10"/>
      <point x="222" y="-5"/>
      <point x="239" y="4" type="curve"/>
      <point x="239" y="29" type="line"/>
      <point x="220" y="20"/>
      <point x="207" y="15"/>
      <point x="192" y="15" type="curve" smooth="yes"/>
      <point x="157" y="15"/>
      <point x="136" y="50"/>
      <point x="136" y="175" type="curve" smooth="yes"/>
      <point x="136" y="714" type="line"/>
      <point x="111" y="714" type="line"/>
      <point x="111" y="166" type="line" smooth="yes"/>
      <point x="111" y="37"/>
      <point x="139" y="-10"/>
    </contour>
  </outline>
</glyph>
<glyph name="uni0197" format="2">
  <advance width="300"/>
  <unicode hex="0197"/>
  <anchor x="145" y="0" name="bottom"/>
  <anchor x="145" y="714" name="top"/>
  <anchor x="26" y="714" name="topleft"/>
  <anchor x="180" y="10" name="ogonek"/>
  <anchor x="283" y="714" name="topright"/>
  <outline>
    <contour>
      <point x="69" y="363" type="line"/>
      <point x="220" y="363" type="line"/>
      <point x="220" y="388" type="line"/>
      <point x="69" y="388" type="line"/>
    </contour>
    <component base="I" xOffset="5"/>
  </outline>
</glyph>
<glyph name="uni0198" format="2">
  <advance width="300"/>
  <unicode hex="0198"/>
  <anchor x="150" y="0" name="bottom"/>
  <anchor x="150" y="714" name="top"/>
  <outline>
    <contour>
      <point x="43" y="0" type="line"/>
      <point x="68" y="0" type="line"/>
      <point x="68" y="283" type="line"/>
      <point x="115" y="391" type="line"/>
      <point x="234" y="0" type="line"/>
      <point x="262" y="0" type="line"/>
      <point x="131" y="411" type="line"/>
      <point x="223" y="634" type="line" smooth="yes"/>
      <point x="242" y="680"/>
      <point x="252" y="693"/>
      <point x="263" y="693" type="curve" smooth="yes"/>
      <point x="269" y="693"/>
      <point x="274" y="691"/>
      <point x="277" y="688" type="curve"/>
      <point x="277" y="714" type="line"/>
      <point x="273" y="717"/>
      <point x="267" y="718"/>
      <point x="260" y="718" type="curve" smooth="yes"/>
      <point x="242" y="718"/>
      <point x="229" y="708"/>
      <point x="205" y="648" type="curve" smooth="yes"/>
      <point x="104" y="395" type="line" smooth="yes"/>
      <point x="91" y="362"/>
      <point x="80" y="346"/>
      <point x="68" y="321" type="curve"/>
      <point x="68" y="714" type="line"/>
      <point x="43" y="714" type="line"/>
    </contour>
  </outline>
</glyph>
<glyph name="uni0199" format="2">
  <advance width="300"/>
  <unicode hex="0199"/>
  <anchor x="150" y="0" name="bottom"/>
  <anchor x="150" y="765" name="top"/>
  <outline>
    <contour>
      <point x="68" y="0" type="line"/>
      <point x="93" y="0" type="line"/>
      <point x="93" y="185" type="line"/>
      <point x="136" y="286" type="line"/>
      <point x="241" y="0" type="line"/>
      <point x="270" y="0" type="line"/>
      <point x="152" y="307" type="line"/>
      <point x="262" y="528" type="line"/>
      <point x="231" y="528" type="line"/>
      <point x="118" y="277" type="line" smooth="yes"/>
      <point x="109" y="258"/>
      <point x="102" y="239"/>
      <point x="92" y="217" type="curve"/>
      <point x="91" y="217" type="line"/>
      <point x="92" y="272"/>
      <point x="93" y="318"/>
      <point x="93" y="373" type="curve" smooth="yes"/>
      <point x="93" y="665" type="line" smooth="yes"/>
      <point x="93" y="716"/>
      <point x="101" y="740"/>
      <point x="122" y="740" type="curve" smooth="yes"/>
      <point x="130" y="740"/>
      <point x="136" y="738"/>
      <point x="142" y="733" type="curve"/>
      <point x="142" y="759" type="line"/>
      <point x="137" y="762"/>
      <point x="130" y="765"/>
      <point x="119" y="765" type="curve" smooth="yes"/>
      <point x="88" y="765"/>
      <point x="68" y="740"/>
      <point x="68" y="668" type="curve" smooth="yes"/>
    </contour>
  </outline>
</glyph>
<glyph name="uni019A" format="2">
  <advance width="300"/>
  <unicode hex="019A"/>
  <anchor x="150" y="0" name="bottom"/>
  <anchor x="150" y="760" name="top"/>
  <anchor x="244" y="760" name="topright"/>
  <anchor x="162" y="376" name="center"/>
  <outline>
    <contour>
      <point x="65" y="369" type="line"/>
      <point x="239" y="369" type="line"/>
      <point x="239" y="394" type="line"/>
      <point x="65" y="394" type="line"/>
    </contour>
    <component base="l" xOffset="10"/>
  </outline>
</glyph>
<glyph name="uni019D" format="2">
  <advance width="300"/>
  <unicode hex="019D"/>
  <anchor x="150" y="-144" name="bottom"/>
  <anchor x="150" y="714" name="top"/>
  <anchor x="300" y="714" name="topright"/>
  <outline>
    <contour>
      <point x="20" y="-144" type="curve" smooth="yes"/>
      <point x="51" y="-144"/>
      <point x="66" y="-111"/>
      <point x="66" y="-34" type="curve" smooth="yes"/>
      <point x="66" y="68" type="line"/>
      <point x="43" y="68" type="line"/>
      <point x="43" y="-30" type="line" smooth="yes"/>
      <point x="43" y="-92"/>
      <point x="35" y="-119"/>
      <point x="18" y="-119" type="curve" smooth="yes"/>
      <point x="10" y="-119"/>
      <point x="1" y="-116"/>
      <point x="-6" y="-110" type="curve"/>
      <point x="-6" y="-136" type="line"/>
      <point x="1" y="-141"/>
      <point x="10" y="-144"/>
    </contour>
    <component base="N" xOffset="10"/>
  </outline>
</glyph>
<glyph name="uni01A2" format="2">
  <advance width="300"/>
  <unicode hex="01A2"/>
  <anchor x="57" y="0" name="bottom"/>
  <anchor x="67" y="10" name="ogonek"/>
  <anchor x="158" y="714" name="top"/>
  <anchor x="-76" y="714" name="topleft"/>
  <anchor x="407" y="714" name="topright"/>
  <outline>
    <contour>
      <point x="55" y="-10" type="curve" smooth="yes"/>
      <point x="153" y="-10"/>
      <point x="192" y="152"/>
      <point x="192" y="361" type="curve" smooth="yes"/>
      <point x="192" y="553"/>
      <point x="160" y="724"/>
      <point x="58" y="724" type="curve" smooth="yes"/>
      <point x="-31" y="724"/>
      <point x="-86" y="586"/>
      <point x="-86" y="360" type="curve" smooth="yes"/>
      <point x="-86" y="160"/>
      <point x="-46" y="-10"/>
    </contour>
    <contour>
      <point x="55" y="15" type="curve" smooth="yes"/>
      <point x="-20" y="15"/>
      <point x="-61" y="150"/>
      <point x="-61" y="356" type="curve" smooth="yes"/>
      <point x="-61" y="564"/>
      <point x="-19" y="700"/>
      <point x="56" y="700" type="curve" smooth="yes"/>
      <point x="128" y="700"/>
      <point x="166" y="578"/>
      <point x="166" y="358" type="curve" smooth="yes"/>
      <point x="166" y="146"/>
      <point x="130" y="15"/>
    </contour>
    <contour>
      <point x="361" y="0" type="line"/>
      <point x="386" y="0" type="line"/>
      <point x="386" y="518" type="line" smooth="yes"/>
      <point x="386" y="655"/>
      <point x="344" y="724"/>
      <point x="276" y="724" type="curve" smooth="yes"/>
      <point x="220" y="724"/>
      <point x="182" y="678"/>
      <point x="154" y="620" type="curve"/>
      <point x="164" y="597" type="line"/>
      <point x="188" y="660"/>
      <point x="225" y="699"/>
      <point x="272" y="699" type="curve" smooth="yes"/>
      <point x="327" y="699"/>
      <point x="361" y="641"/>
      <point x="361" y="513" type="curve" smooth="yes"/>
    </contour>
  </outline>
</glyph>
<glyph name="uni01A5" format="2">
  <advance width="300"/>
  <unicode hex="01A5"/>
  <anchor x="161" y="-240" name="bottom"/>
  <anchor x="161" y="766" name="top"/>
  <outline>
    <contour>
      <point x="53" y="-240" type="line"/>
      <point x="78" y="-240" type="line"/>
      <point x="78" y="11" type="line" smooth="yes"/>
      <point x="78" y="48"/>
      <point x="77" y="83"/>
      <point x="76" y="112" type="curve"/>
      <point x="78" y="112" type="line"/>
      <point x="90" y="50"/>
      <point x="114" y="-10"/>
      <point x="158" y="-10" type="curve" smooth="yes"/>
      <point x="220" y="-10"/>
      <point x="260" y="83"/>
      <point x="260" y="270" type="curve" smooth="yes"/>
      <point x="260" y="448"/>
      <point x="225" y="537"/>
      <point x="161" y="537" type="curve" smooth="yes"/>
      <point x="114" y="537"/>
      <point x="90" y="472"/>
      <point x="77" y="403" type="curve"/>
      <point x="76" y="403" type="line"/>
      <point x="77" y="444"/>
      <point x="78" y="486"/>
      <point x="78" y="527" type="curve" smooth="yes"/>
      <point x="78" y="666" type="line" smooth="yes"/>
      <point x="78" y="717"/>
      <point x="88" y="741"/>
      <point x="106" y="741" type="curve" smooth="yes"/>
      <point x="114" y="741"/>
      <point x="120" y="738"/>
      <point x="127" y="732" type="curve"/>
      <point x="127" y="758" type="line"/>
      <point x="122" y="762"/>
      <point x="113" y="766"/>
      <point x="103" y="766" type="curve" smooth="yes"/>
      <point x="74" y="766"/>
      <point x="53" y="741"/>
      <point x="53" y="669" type="curve" smooth="yes"/>
    </contour>
    <contour>
      <point x="155" y="15" type="curve" smooth="yes"/>
      <point x="107" y="15"/>
      <point x="78" y="95"/>
      <point x="78" y="241" type="curve" smooth="yes"/>
      <point x="78" y="279" type="line" smooth="yes"/>
      <point x="78" y="419"/>
      <point x="104" y="512"/>
      <point x="157" y="512" type="curve" smooth="yes"/>
      <point x="208" y="512"/>
      <point x="234" y="429"/>
      <point x="234" y="270" type="curve" smooth="yes"/>
      <point x="234" y="90"/>
      <point x="203" y="15"/>
    </contour>
  </outline>
</glyph>
<glyph name="uni01AE" format="2">
  <advance width="300"/>
  <unicode hex="01AE"/>
  <anchor x="185" y="-152" name="bottom"/>
  <anchor x="149" y="714" name="top"/>
  <outline>
    <contour>
      <point x="198" y="-152" type="curve" smooth="yes"/>
      <point x="211" y="-152"/>
      <point x="224" y="-147"/>
      <point x="234" y="-139" type="curve"/>
      <point x="234" y="-113" type="line"/>
      <point x="224" y="-121"/>
      <point x="212" y="-127"/>
      <point x="200" y="-127" type="curve" smooth="yes"/>
      <point x="172" y="-127"/>
      <point x="161" y="-88"/>
      <point x="161" y="-3" type="curve" smooth="yes"/>
      <point x="161" y="689" type="line"/>
      <point x="266" y="689" type="line"/>
      <point x="266" y="714" type="line"/>
      <point x="33" y="714" type="line"/>
      <point x="33" y="689" type="line"/>
      <point x="136" y="689" type="line"/>
      <point x="136" y="-11" type="line" smooth="yes"/>
      <point x="136" y="-107"/>
      <point x="157" y="-152"/>
    </contour>
  </outline>
</glyph>
<glyph name="uni01B2" format="2">
  <advance width="300"/>
  <unicode hex="01B2"/>
  <anchor x="150" y="0" name="bottom"/>
  <anchor x="262" y="10" name="ogonek"/>
  <anchor x="150" y="714" name="top"/>
  <anchor x="279" y="714" name="topright"/>
  <outline>
    <contour>
      <point x="150" y="-10" type="curve" smooth="yes"/>
      <point x="215" y="-10"/>
      <point x="257" y="58"/>
      <point x="257" y="230" type="curve" smooth="yes"/>
      <point x="257" y="637" type="line" smooth="yes"/>
      <point x="257" y="700"/>
      <point x="241" y="724"/>
      <point x="214" y="724" type="curve" smooth="yes"/>
      <point x="202" y="724"/>
      <point x="191" y="717"/>
      <point x="185" y="710" type="curve"/>
      <point x="185" y="685" type="line"/>
      <point x="190" y="692"/>
      <point x="199" y="700"/>
      <point x="209" y="700" type="curve" smooth="yes"/>
      <point x="224" y="700"/>
      <point x="232" y="680"/>
      <point x="232" y="636" type="curve" smooth="yes"/>
      <point x="232" y="233" type="line" smooth="yes"/>
      <point x="232" y="78"/>
      <point x="201" y="15"/>
      <point x="150" y="15" type="curve" smooth="yes"/>
      <point x="98" y="15"/>
      <point x="68" y="84"/>
      <point x="68" y="239" type="curve" smooth="yes"/>
      <point x="68" y="714" type="line"/>
      <point x="43" y="714" type="line"/>
      <point x="43" y="236" type="line" smooth="yes"/>
      <point x="43" y="70"/>
      <point x="81" y="-10"/>
    </contour>
  </outline>
</glyph>
<glyph name="uni01B4" format="2">
  <advance width="300"/>
  <unicode hex="01B4"/>
  <anchor x="150" y="-243" name="bottom"/>
  <anchor x="150" y="528" name="top"/>
  <outline>
    <contour>
      <point x="62" y="-243" type="curve" smooth="yes"/>
      <point x="102" y="-243"/>
      <point x="125" y="-201"/>
      <point x="139" y="-112" type="curve" smooth="yes"/>
      <point x="237" y="470" type="line" smooth="yes"/>
      <point x="242" y="500"/>
      <point x="249" y="509"/>
      <point x="262" y="509" type="curve" smooth="yes"/>
      <point x="267" y="509"/>
      <point x="272" y="507"/>
      <point x="277" y="504" type="curve"/>
      <point x="277" y="529" type="line"/>
      <point x="272" y="531"/>
      <point x="264" y="533"/>
      <point x="257" y="533" type="curve" smooth="yes"/>
      <point x="234" y="533"/>
      <point x="222" y="516"/>
      <point x="215" y="472" type="curve" smooth="yes"/>
      <point x="165" y="155" type="line" smooth="yes"/>
      <point x="158" y="112"/>
      <point x="151" y="83"/>
      <point x="146" y="48" type="curve"/>
      <point x="145" y="48" type="line"/>
      <point x="141" y="69"/>
      <point x="136" y="92"/>
      <point x="125" y="156" type="curve" smooth="yes"/>
      <point x="60" y="528" type="line"/>
      <point x="35" y="528" type="line"/>
      <point x="134" y="10" type="line"/>
      <point x="115" y="-112" type="line" smooth="yes"/>
      <point x="102" y="-193"/>
      <point x="85" y="-217"/>
      <point x="61" y="-217" type="curve" smooth="yes"/>
      <point x="51" y="-217"/>
      <point x="42" y="-213"/>
      <point x="34" y="-207" type="curve"/>
      <point x="34" y="-234" type="line"/>
      <point x="44" y="-240"/>
      <point x="52" y="-243"/>
    </contour>
  </outline>
</glyph>
<glyph name="uni01BC" format="2">
  <advance width="300"/>
  <unicode hex="01BC"/>
  <anchor x="150" y="0" name="bottom"/>
  <anchor x="150" y="714" name="top"/>
  <outline>
    <contour>
      <point x="123" y="-9" type="curve" smooth="yes"/>
      <point x="214" y="-9"/>
      <point x="258" y="99"/>
      <point x="258" y="220" type="curve" smooth="yes"/>
      <point x="258" y="348"/>
      <point x="214" y="420"/>
      <point x="130" y="420" type="curve" smooth="yes"/>
      <point x="114" y="420" type="line"/>
      <point x="114" y="689" type="line"/>
      <point x="231" y="689" type="line"/>
      <point x="231" y="714" type="line"/>
      <point x="35" y="714" type="line"/>
      <point x="35" y="689" type="line"/>
      <point x="89" y="689" type="line"/>
      <point x="89" y="395" type="line"/>
      <point x="125" y="395" type="line" smooth="yes"/>
      <point x="195" y="395"/>
      <point x="232" y="339"/>
      <point x="232" y="223" type="curve" smooth="yes"/>
      <point x="232" y="121"/>
      <point x="201" y="17"/>
      <point x="122" y="17" type="curve" smooth="yes"/>
      <point x="94" y="17"/>
      <point x="67" y="28"/>
      <point x="48" y="50" type="curve"/>
      <point x="48" y="19" type="line"/>
      <point x="63" y="3"/>
      <point x="91" y="-9"/>
    </contour>
  </outline>
</glyph>
<glyph name="uni01BE" format="2">
  <advance width="300"/>
  <unicode hex="01BE"/>
  <anchor x="150" y="0" name="bottom"/>
  <anchor x="141" y="659" name="top"/>
  <outline>
    <contour>
      <point x="142" y="-10" type="curve" smooth="yes"/>
      <point x="206" y="-10"/>
      <point x="238" y="44"/>
      <point x="238" y="138" type="curve" smooth="yes"/>
      <point x="238" y="216"/>
      <point x="208" y="253"/>
      <point x="176" y="287" type="curve" smooth="yes"/>
      <point x="151" y="315"/>
      <point x="150" y="334"/>
      <point x="150" y="396" type="curve" smooth="yes"/>
      <point x="150" y="503" type="line"/>
      <point x="249" y="503" type="line"/>
      <point x="249" y="528" type="line"/>
      <point x="150" y="528" type="line"/>
      <point x="150" y="659" type="line"/>
      <point x="132" y="659" type="line"/>
      <point x="125" y="528" type="line"/>
      <point x="51" y="524" type="line"/>
      <point x="51" y="503" type="line"/>
      <point x="125" y="503" type="line"/>
      <point x="125" y="393" type="line" smooth="yes"/>
      <point x="125" y="319"/>
      <point x="129" y="298"/>
      <point x="159" y="269" type="curve" smooth="yes"/>
      <point x="189" y="240"/>
      <point x="213" y="209"/>
      <point x="213" y="137" type="curve" smooth="yes"/>
      <point x="213" y="58"/>
      <point x="194" y="16"/>
      <point x="143" y="16" type="curve" smooth="yes"/>
      <point x="113" y="16"/>
      <point x="86" y="30"/>
      <point x="63" y="53" type="curve"/>
      <point x="63" y="23" type="line"/>
      <point x="81" y="7"/>
      <point x="109" y="-10"/>
    </contour>
  </outline>
</glyph>
<glyph name="uni01BF" format="2">
  <advance width="300"/>
  <unicode hex="01BF"/>
  <anchor x="163" y="-240" name="bottom"/>
  <anchor x="163" y="553" name="top"/>
  <outline>
    <contour>
      <point x="57" y="-232" type="line"/>
      <point x="81" y="-232" type="line"/>
      <point x="81" y="-10" type="line"/>
      <point x="165" y="-10"/>
      <point x="253" y="81"/>
      <point x="253" y="307" type="curve" smooth="yes"/>
      <point x="253" y="435"/>
      <point x="225" y="537"/>
      <point x="161" y="537" type="curve" smooth="yes"/>
      <point x="120" y="537"/>
      <point x="98" y="501"/>
      <point x="82" y="433" type="curve"/>
      <point x="79" y="433" type="line"/>
      <point x="76" y="527" type="line"/>
      <point x="57" y="527" type="line"/>
    </contour>
    <contour>
      <point x="81" y="14" type="curve"/>
      <point x="81" y="287" type="line" smooth="yes"/>
      <point x="81" y="441"/>
      <point x="108" y="512"/>
      <point x="158" y="512" type="curve" smooth="yes"/>
      <point x="209" y="512"/>
      <point x="228" y="416"/>
      <point x="228" y="307" type="curve" smooth="yes"/>
      <point x="228" y="95"/>
      <point x="149" y="14"/>
    </contour>
  </outline>
</glyph>
<glyph name="uni01C2" format="2">
  <advance width="300"/>
  <unicode hex="01C2"/>
  <anchor x="150" y="0" name="bottom"/>
  <anchor x="150" y="760" name="top"/>
  <outline>
    <contour>
      <point x="77" y="474" type="line"/>
      <point x="223" y="474" type="line"/>
      <point x="223" y="499" type="line"/>
      <point x="77" y="499" type="line"/>
    </contour>
    <contour>
      <point x="77" y="258" type="line"/>
      <point x="223" y="258" type="line"/>
      <point x="223" y="283" type="line"/>
      <point x="77" y="283" type="line"/>
    </contour>
    <component base="uni01C0" xOffset="10"/>
  </outline>
</glyph>
<glyph name="uni01F6" format="2">
  <advance width="300"/>
  <unicode hex="01F6"/>
  <anchor x="149" y="0" name="bottom"/>
  <anchor x="149" y="357" name="center"/>
  <anchor x="149" y="714" name="top"/>
  <anchor x="21" y="714" name="topleft"/>
  <outline>
    <contour>
      <point x="206" y="-10" type="curve" smooth="yes"/>
      <point x="243" y="-10"/>
      <point x="266" y="30"/>
      <point x="266" y="97" type="curve" smooth="yes"/>
      <point x="266" y="527" type="line"/>
      <point x="242" y="527" type="line"/>
      <point x="242" y="107" type="line" smooth="yes"/>
      <point x="242" y="44"/>
      <point x="228" y="15"/>
      <point x="206" y="15" type="curve" smooth="yes"/>
      <point x="184" y="15"/>
      <point x="172" y="46"/>
      <point x="172" y="107" type="curve" smooth="yes"/>
      <point x="172" y="714" type="line"/>
      <point x="148" y="714" type="line"/>
      <point x="148" y="388" type="line"/>
      <point x="63" y="388" type="line"/>
      <point x="63" y="714" type="line"/>
      <point x="39" y="714" type="line"/>
      <point x="39" y="0" type="line"/>
      <point x="63" y="0" type="line"/>
      <point x="63" y="363" type="line"/>
      <point x="148" y="363" type="line"/>
      <point x="148" y="97" type="line" smooth="yes"/>
      <point x="148" y="30"/>
      <point x="168" y="-10"/>
    </contour>
  </outline>
</glyph>
<glyph name="uni01F7" format="2">
  <advance width="300"/>
  <unicode hex="01F7"/>
  <anchor x="155" y="-240" name="bottom"/>
  <anchor x="155" y="714" name="top"/>
  <outline>
    <contour>
      <point x="51" y="-232" type="line"/>
      <point x="76" y="-232" type="line"/>
      <point x="76" y="1" type="line"/>
      <point x="160" y="40"/>
      <point x="264" y="193"/>
      <point x="264" y="462" type="curve" smooth="yes"/>
      <point x="264" y="617"/>
      <point x="232" y="724"/>
      <point x="162" y="724" type="curve" smooth="yes"/>
      <point x="117" y="724"/>
      <point x="91" y="678"/>
      <point x="76" y="626" type="curve"/>
      <point x="74" y="626" type="line"/>
      <point x="71" y="714" type="line"/>
      <point x="51" y="714" type="line"/>
    </contour>
    <contour>
      <point x="76" y="27" type="curve"/>
      <point x="76" y="521" type="line" smooth="yes"/>
      <point x="76" y="643"/>
      <point x="113" y="699"/>
      <point x="158" y="699" type="curve" smooth="yes"/>
      <point x="212" y="699"/>
      <point x="238" y="603"/>
      <point x="238" y="463" type="curve" smooth="yes"/>
      <point x="238" y="208"/>
      <point x="148" y="67"/>
    </contour>
  </outline>
</glyph>
<glyph name="uni021C" format="2">
  <advance width="300"/>
  <unicode hex="021C"/>
  <anchor x="150" y="-80" name="bottom"/>
  <anchor x="150" y="714" name="top"/>
  <outline>
    <contour>
      <point x="47" y="-180" type="line"/>
      <point x="193" y="-103"/>
      <point x="253" y="-10"/>
      <point x="253" y="153" type="curve" smooth="yes"/>
      <point x="253" y="261"/>
      <point x="224" y="323"/>
      <point x="189" y="360" type="curve"/>
      <point x="225" y="398"/>
      <point x="246" y="450"/>
      <point x="246" y="544" type="curve" smooth="yes"/>
      <point x="246" y="669"/>
      <point x="204" y="724"/>
      <point x="151" y="724" type="curve" smooth="yes"/>
      <point x="111" y="724"/>
      <point x="79" y="695"/>
      <point x="48" y="648" type="curve"/>
      <point x="62" y="631" type="line"/>
      <point x="87" y="671"/>
      <point x="114" y="699"/>
      <point x="150" y="699" type="curve" smooth="yes"/>
      <point x="186" y="699"/>
      <point x="220" y="664"/>
      <point x="220" y="544" type="curve" smooth="yes"/>
      <point x="220" y="410"/>
      <point x="179" y="373"/>
      <point x="96" y="331" type="curve"/>
      <point x="102" y="307" type="line"/>
      <point x="127" y="320"/>
      <point x="149" y="333"/>
      <point x="169" y="349" type="curve"/>
      <point x="205" y="306"/>
      <point x="227" y="248"/>
      <point x="227" y="152" type="curve" smooth="yes"/>
      <point x="227" y="12"/>
      <point x="181" y="-78"/>
      <point x="47" y="-152" type="curve"/>
    </contour>
  </outline>
</glyph>
<glyph name="uni021D" format="2">
  <advance width="300"/>
  <unicode hex="021D"/>
  <anchor x="135" y="-161" name="bottom"/>
  <anchor x="139" y="528" name="top"/>
  <outline>
    <contour>
      <point x="38" y="-241" type="line"/>
      <point x="167" y="-187"/>
      <point x="250" y="-123"/>
      <point x="250" y="43" type="curve" smooth="yes"/>
      <point x="250" y="140"/>
      <point x="219" y="195"/>
      <point x="185" y="223" type="curve"/>
      <point x="220" y="259"/>
      <point x="239" y="303"/>
      <point x="239" y="380" type="curve" smooth="yes"/>
      <point x="239" y="485"/>
      <point x="197" y="539"/>
      <point x="139" y="539" type="curve" smooth="yes"/>
      <point x="105" y="539"/>
      <point x="75" y="522"/>
      <point x="48" y="498" type="curve"/>
      <point x="57" y="476" type="line"/>
      <point x="80" y="497"/>
      <point x="107" y="514"/>
      <point x="138" y="514" type="curve" smooth="yes"/>
      <point x="178" y="514"/>
      <point x="214" y="471"/>
      <point x="214" y="380" type="curve" smooth="yes"/>
      <point x="214" y="279"/>
      <point x="177" y="235"/>
      <point x="89" y="194" type="curve"/>
      <point x="97" y="171" type="line"/>
      <point x="121" y="182"/>
      <point x="145" y="197"/>
      <point x="163" y="209" type="curve"/>
      <point x="201" y="177"/>
      <point x="225" y="124"/>
      <point x="225" y="43" type="curve" smooth="yes"/>
      <point x="225" y="-102"/>
      <point x="162" y="-160"/>
      <point x="38" y="-215" type="curve"/>
    </contour>
  </outline>
</glyph>
<glyph name="uni0220" format="2">
  <advance width="300"/>
  <unicode hex="0220"/>
  <anchor x="150" y="-240" name="bottom"/>
  <anchor x="150" y="357" name="center"/>
  <anchor x="150" y="714" name="top"/>
  <anchor x="21" y="714" name="topleft"/>
  <outline>
    <contour>
      <point x="224" y="-232" type="line"/>
      <point x="248" y="-232" type="line"/>
      <point x="248" y="546" type="line" smooth="yes"/>
      <point x="248" y="657"/>
      <point x="223" y="724"/>
      <point x="163" y="724" type="curve" smooth="yes"/>
      <point x="115" y="724"/>
      <point x="91" y="679"/>
      <point x="79" y="627" type="curve"/>
      <point x="77" y="627" type="line"/>
      <point x="74" y="714" type="line"/>
      <point x="54" y="714" type="line"/>
      <point x="54" y="0" type="line"/>
      <point x="79" y="0" type="line"/>
      <point x="79" y="533" type="line" smooth="yes"/>
      <point x="79" y="610"/>
      <point x="102" y="699"/>
      <point x="157" y="699" type="curve" smooth="yes"/>
      <point x="206" y="699"/>
      <point x="224" y="645"/>
      <point x="224" y="534" type="curve" smooth="yes"/>
    </contour>
  </outline>
</glyph>
<glyph name="uni0223" format="2">
  <advance width="300"/>
  <unicode hex="0223"/>
  <anchor x="150" y="0" name="bottom"/>
  <anchor x="150" y="760" name="top"/>
  <outline>
    <contour>
      <point x="151" y="-12" type="curve" smooth="yes"/>
      <point x="217" y="-12"/>
      <point x="263" y="67"/>
      <point x="263" y="224" type="curve" smooth="yes"/>
      <point x="263" y="373"/>
      <point x="226" y="437"/>
      <point x="195" y="447" type="curve"/>
      <point x="222" y="460"/>
      <point x="247" y="506"/>
      <point x="247" y="638" type="curve" smooth="yes"/>
      <point x="247" y="760" type="line"/>
      <point x="223" y="760" type="line"/>
      <point x="223" y="645" type="line" smooth="yes"/>
      <point x="223" y="493"/>
      <point x="196" y="461"/>
      <point x="148" y="461" type="curve" smooth="yes"/>
      <point x="101" y="461"/>
      <point x="78" y="500"/>
      <point x="78" y="638" type="curve" smooth="yes"/>
      <point x="78" y="760" type="line"/>
      <point x="53" y="760" type="line"/>
      <point x="53" y="635" type="line" smooth="yes"/>
      <point x="53" y="501"/>
      <point x="77" y="461"/>
      <point x="105" y="447" type="curve"/>
      <point x="76" y="436"/>
      <point x="37" y="372"/>
      <point x="37" y="227" type="curve" smooth="yes"/>
      <point x="37" y="74"/>
      <point x="85" y="-12"/>
    </contour>
    <contour>
      <point x="151" y="13" type="curve" smooth="yes"/>
      <point x="102" y="13"/>
      <point x="62" y="89"/>
      <point x="62" y="227" type="curve" smooth="yes"/>
      <point x="62" y="366"/>
      <point x="99" y="436"/>
      <point x="149" y="436" type="curve" smooth="yes"/>
      <point x="206" y="436"/>
      <point x="238" y="369"/>
      <point x="238" y="224" type="curve" smooth="yes"/>
      <point x="238" y="86"/>
      <point x="200" y="13"/>
    </contour>
  </outline>
</glyph>
<glyph name="uni0224" format="2">
  <advance width="300"/>
  <unicode hex="0224"/>
  <anchor x="169" y="-240" name="bottom"/>
  <anchor x="155" y="714" name="top"/>
  <anchor x="289" y="714" name="topright"/>
  <outline>
    <contour>
      <point x="209" y="-170" type="curve" smooth="yes"/>
      <point x="240" y="-170"/>
      <point x="256" y="-142"/>
      <point x="256" y="-89" type="curve" smooth="yes"/>
      <point x="256" y="25" type="line"/>
      <point x="226" y="25" type="line"/>
      <point x="226" y="0" type="line"/>
      <point x="233" y="0" type="line"/>
      <point x="233" y="-85" type="line" smooth="yes"/>
      <point x="233" y="-129"/>
      <point x="223" y="-148"/>
      <point x="206" y="-148" type="curve" smooth="yes"/>
      <point x="198" y="-148"/>
      <point x="191" y="-145"/>
      <point x="183" y="-139" type="curve"/>
      <point x="183" y="-162" type="line"/>
      <point x="191" y="-167"/>
      <point x="199" y="-170"/>
    </contour>
    <component base="Z" xOffset="10"/>
  </outline>
</glyph>
<glyph name="uni0236" format="2">
  <advance width="300"/>
  <unicode hex="0236"/>
  <anchor x="202" y="0" name="bottom"/>
  <anchor x="141" y="659" name="top"/>
  <outline>
    <contour>
      <point x="85" y="-22" type="line"/>
      <point x="94" y="26"/>
      <point x="111" y="77"/>
      <point x="124" y="104" type="curve"/>
      <point x="132" y="38"/>
      <point x="154" y="-10"/>
      <point x="198" y="-10" type="curve" smooth="yes"/>
      <point x="237" y="-10"/>
      <point x="267" y="26"/>
      <point x="267" y="89" type="curve" smooth="yes"/>
      <point x="267" y="148"/>
      <point x="245" y="185"/>
      <point x="202" y="185" type="curve" smooth="yes"/>
      <point x="175" y="185"/>
      <point x="155" y="164"/>
      <point x="143" y="150" type="curve"/>
      <point x="143" y="503" type="line"/>
      <point x="242" y="503" type="line"/>
      <point x="242" y="528" type="line"/>
      <point x="143" y="528" type="line"/>
      <point x="143" y="659" type="line"/>
      <point x="126" y="659" type="line"/>
      <point x="119" y="528" type="line"/>
      <point x="45" y="524" type="line"/>
      <point x="45" y="503" type="line"/>
      <point x="119" y="503" type="line"/>
      <point x="119" y="191" type="line" smooth="yes"/>
      <point x="119" y="167"/>
      <point x="119" y="151"/>
      <point x="119" y="132" type="curve"/>
      <point x="98" y="98"/>
      <point x="76" y="41"/>
      <point x="64" y="-14" type="curve"/>
    </contour>
    <contour>
      <point x="199" y="15" type="curve" smooth="yes"/>
      <point x="163" y="15"/>
      <point x="147" y="62"/>
      <point x="145" y="123" type="curve"/>
      <point x="156" y="140"/>
      <point x="176" y="160"/>
      <point x="200" y="160" type="curve" smooth="yes"/>
      <point x="228" y="160"/>
      <point x="244" y="133"/>
      <point x="244" y="89" type="curve" smooth="yes"/>
      <point x="244" y="46"/>
      <point x="227" y="15"/>
    </contour>
  </outline>
</glyph>
<glyph name="uni023D" format="2">
  <advance width="300"/>
  <unicode hex="023D"/>
  <anchor x="150" y="0" name="bottom"/>
  <anchor x="70" y="714" name="top"/>
  <anchor x="223" y="714" name="topright"/>
  <anchor x="159" y="357" name="center"/>
  <outline>
    <contour>
      <point x="10" y="363" type="line"/>
      <point x="147" y="363" type="line"/>
      <point x="147" y="388" type="line"/>
      <point x="10" y="388" type="line"/>
    </contour>
    <component base="L" xOffset="10"/>
  </outline>
</glyph>
<glyph name="uni023F" format="2">
  <advance width="300"/>
  <unicode hex="023F"/>
  <anchor x="166" y="-240" name="bottom"/>
  <anchor x="150" y="528" name="top"/>
  <anchor x="289" y="528" name="topright"/>
  <outline>
    <contour>
      <point x="193" y="-232" type="curve" smooth="yes"/>
      <point x="205" y="-232"/>
      <point x="214" y="-227"/>
      <point x="220" y="-222" type="curve"/>
      <point x="220" y="-196" type="line"/>
      <point x="214" y="-203"/>
      <point x="205" y="-207"/>
      <point x="195" y="-207" type="curve" smooth="yes"/>
      <point x="166" y="-207"/>
      <point x="156" y="-156"/>
      <point x="147" y="-98" type="curve" smooth="yes"/>
      <point x="137" y="-33"/>
      <point x="132" y="-15"/>
      <point x="122" y="-3" type="curve"/>
      <point x="86" y="9" type="line"/>
      <point x="108" y="-11"/>
      <point x="116" y="-29"/>
      <point x="125" y="-97" type="curve" smooth="yes"/>
      <point x="135" y="-169"/>
      <point x="149" y="-232"/>
    </contour>
    <component base="s" xOffset="10"/>
  </outline>
</glyph>
<glyph name="uni0241" format="2">
  <advance width="300"/>
  <unicode hex="0241"/>
  <anchor x="137" y="0" name="bottom"/>
  <anchor x="137" y="714" name="top"/>
  <outline>
    <contour>
      <point x="124" y="0" type="line"/>
      <point x="150" y="0" type="line"/>
      <point x="150" y="283" type="line"/>
      <point x="206" y="320"/>
      <point x="256" y="373"/>
      <point x="256" y="528" type="curve" smooth="yes"/>
      <point x="256" y="650"/>
      <point x="212" y="723"/>
      <point x="139" y="723" type="curve" smooth="yes"/>
      <point x="94" y="723"/>
      <point x="61" y="697"/>
      <point x="35" y="674" type="curve"/>
      <point x="45" y="651" type="line"/>
      <point x="67" y="670"/>
      <point x="99" y="698"/>
      <point x="138" y="698" type="curve" smooth="yes"/>
      <point x="196" y="698"/>
      <point x="228" y="638"/>
      <point x="228" y="526" type="curve" smooth="yes"/>
      <point x="228" y="385"/>
      <point x="180" y="338"/>
      <point x="124" y="299" type="curve"/>
    </contour>
  </outline>
</glyph>
<glyph name="uni0242" format="2">
  <advance width="300"/>
  <unicode hex="0242"/>
  <anchor x="147" y="0" name="bottom"/>
  <anchor x="154" y="528" name="top"/>
  <outline>
    <contour>
      <point x="126" y="0" type="line"/>
      <point x="149" y="0" type="line"/>
      <point x="149" y="125" type="line"/>
      <point x="195" y="179"/>
      <point x="234" y="239"/>
      <point x="234" y="362" type="curve" smooth="yes"/>
      <point x="234" y="473"/>
      <point x="197" y="537"/>
      <point x="141" y="537" type="curve" smooth="yes"/>
      <point x="110" y="537"/>
      <point x="86" y="521"/>
      <point x="65" y="500" type="curve"/>
      <point x="75" y="477" type="line"/>
      <point x="93" y="495"/>
      <point x="112" y="512"/>
      <point x="139" y="512" type="curve" smooth="yes"/>
      <point x="179" y="512"/>
      <point x="209" y="463"/>
      <point x="209" y="359" type="curve" smooth="yes"/>
      <point x="209" y="247"/>
      <point x="177" y="200"/>
      <point x="126" y="136" type="curve"/>
    </contour>
  </outline>
</glyph>
<glyph name="uni0248" format="2">
  <advance width="300"/>
  <unicode hex="0248"/>
  <anchor x="150" y="-175" name="bottom"/>
  <anchor x="150" y="714" name="top"/>
  <outline>
    <contour>
      <point x="65" y="-175" type="curve" smooth="yes"/>
      <point x="135" y="-175"/>
      <point x="162" y="-102"/>
      <point x="162" y="36" type="curve" smooth="yes"/>
      <point x="162" y="714" type="line"/>
      <point x="138" y="714" type="line"/>
      <point x="138" y="44" type="line" smooth="yes"/>
      <point x="138" y="-89"/>
      <point x="117" y="-150"/>
      <point x="64" y="-150" type="curve" smooth="yes"/>
      <point x="36" y="-150"/>
      <point x="12" y="-135"/>
      <point x="-11" y="-113" type="curve"/>
      <point x="-11" y="-141" type="line"/>
      <point x="11" y="-161"/>
      <point x="37" y="-175"/>
    </contour>
    <contour>
      <point x="59" y="363" type="line"/>
      <point x="237" y="363" type="line"/>
      <point x="237" y="388" type="line"/>
      <point x="59" y="388" type="line"/>
    </contour>
  </outline>
</glyph>
<glyph name="uni024A" format="2">
  <advance width="300"/>
  <unicode hex="024A"/>
  <anchor x="150" y="-241" name="bottom"/>
  <anchor x="150" y="714" name="top"/>
  <outline>
    <contour>
      <point x="289" y="-241" type="curve" smooth="yes"/>
      <point x="302" y="-241"/>
      <point x="313" y="-236"/>
      <point x="321" y="-228" type="curve"/>
      <point x="321" y="-202" type="line"/>
      <point x="313" y="-208"/>
      <point x="303" y="-216"/>
      <point x="292" y="-216" type="curve" smooth="yes"/>
      <point x="268" y="-216"/>
      <point x="257" y="-184"/>
      <point x="257" y="-91" type="curve" smooth="yes"/>
      <point x="257" y="142" type="line"/>
      <point x="233" y="148" type="line"/>
      <point x="232" y="128"/>
      <point x="232" y="90"/>
      <point x="232" y="58" type="curve" smooth="yes"/>
      <point x="232" y="-97" type="line" smooth="yes"/>
      <point x="232" y="-204"/>
      <point x="251" y="-241"/>
    </contour>
    <component base="uni2C6D" xOffset="10"/>
  </outline>
</glyph>
<glyph name="uni024C" format="2">
  <advance width="300"/>
  <unicode hex="024C"/>
  <anchor x="164" y="0" name="bottom"/>
  <anchor x="150" y="714" name="top"/>
  <anchor x="289" y="714" name="topright"/>
  <outline>
    <contour>
      <point x="10" y="321" type="line"/>
      <point x="89" y="321" type="line"/>
      <point x="89" y="347" type="line"/>
      <point x="10" y="347" type="line"/>
    </contour>
    <component base="R" xOffset="10"/>
  </outline>
</glyph>
<glyph name="uni024D" format="2">
  <advance width="300"/>
  <unicode hex="024D"/>
  <anchor x="150" y="0" name="bottom"/>
  <anchor x="150" y="528" name="top"/>
  <anchor x="288" y="528" name="topright"/>
  <outline>
    <contour>
      <point x="54" y="247" type="line"/>
      <point x="216" y="247" type="line"/>
      <point x="216" y="272" type="line"/>
      <point x="54" y="272" type="line"/>
    </contour>
    <component base="r" xOffset="10"/>
  </outline>
</glyph>
<glyph name="uni0253" format="2">
  <advance width="300"/>
  <unicode hex="0253"/>
  <anchor x="150" y="0" name="bottom"/>
  <anchor x="150" y="765" name="top"/>
  <outline>
    <contour>
      <point x="157" y="-10" type="curve" smooth="yes"/>
      <point x="225" y="-10"/>
      <point x="260" y="99"/>
      <point x="260" y="268" type="curve" smooth="yes"/>
      <point x="260" y="445"/>
      <point x="225" y="538"/>
      <point x="161" y="538" type="curve" smooth="yes"/>
      <point x="118" y="538"/>
      <point x="90" y="486"/>
      <point x="78" y="412" type="curve"/>
      <point x="77" y="412" type="line"/>
      <point x="78" y="437"/>
      <point x="78" y="476"/>
      <point x="78" y="503" type="curve" smooth="yes"/>
      <point x="78" y="658" type="line" smooth="yes"/>
      <point x="78" y="708"/>
      <point x="86" y="742"/>
      <point x="110" y="742" type="curve" smooth="yes"/>
      <point x="115" y="742"/>
      <point x="122" y="741"/>
      <point x="129" y="737" type="curve"/>
      <point x="129" y="760" type="line"/>
      <point x="123" y="764"/>
      <point x="116" y="765"/>
      <point x="108" y="765" type="curve" smooth="yes"/>
      <point x="72" y="765"/>
      <point x="53" y="729"/>
      <point x="53" y="661" type="curve" smooth="yes"/>
      <point x="53" y="0" type="line"/>
      <point x="72" y="0" type="line"/>
      <point x="76" y="101" type="line"/>
      <point x="78" y="101" type="line"/>
      <point x="92" y="36"/>
      <point x="117" y="-10"/>
    </contour>
    <contour>
      <point x="152" y="16" type="curve" smooth="yes"/>
      <point x="102" y="16"/>
      <point x="78" y="98"/>
      <point x="78" y="263" type="curve" smooth="yes"/>
      <point x="78" y="426"/>
      <point x="103" y="513"/>
      <point x="156" y="513" type="curve" smooth="yes"/>
      <point x="208" y="513"/>
      <point x="234" y="430"/>
      <point x="234" y="268" type="curve" smooth="yes"/>
      <point x="234" y="101"/>
      <point x="206" y="16"/>
    </contour>
  </outline>
</glyph>
<glyph name="uni025F" format="2">
  <advance width="300"/>
  <unicode hex="025F"/>
  <anchor x="148" y="-240" name="bottom"/>
  <anchor x="154" y="528" name="top"/>
  <outline>
    <contour>
      <point x="117" y="-242" type="curve" smooth="yes"/>
      <point x="145" y="-242"/>
      <point x="164" y="-216"/>
      <point x="164" y="-125" type="curve" smooth="yes"/>
      <point x="164" y="263" type="line"/>
      <point x="202" y="263" type="line"/>
      <point x="202" y="288" type="line"/>
      <point x="164" y="288" type="line"/>
      <point x="164" y="527" type="line"/>
      <point x="140" y="527" type="line"/>
      <point x="140" y="288" type="line"/>
      <point x="103" y="288" type="line"/>
      <point x="103" y="263" type="line"/>
      <point x="140" y="263" type="line"/>
      <point x="140" y="-115" type="line" smooth="yes"/>
      <point x="140" y="-179"/>
      <point x="133" y="-216"/>
      <point x="114" y="-216" type="curve" smooth="yes"/>
      <point x="108" y="-216"/>
      <point x="102" y="-213"/>
      <point x="97" y="-209" type="curve"/>
      <point x="97" y="-236" type="line"/>
      <point x="102" y="-239"/>
      <point x="108" y="-242"/>
    </contour>
  </outline>
</glyph>
<glyph name="uni0260" format="2">
  <advance width="300"/>
  <unicode hex="0260"/>
  <anchor x="150" y="-241" name="bottom"/>
  <anchor x="150" y="765" name="top"/>
  <outline>
    <contour>
      <point x="133" y="-241" type="curve" smooth="yes"/>
      <point x="212" y="-241"/>
      <point x="247" y="-163"/>
      <point x="247" y="-30" type="curve" smooth="yes"/>
      <point x="247" y="665" type="line" smooth="yes"/>
      <point x="247" y="716"/>
      <point x="254" y="740"/>
      <point x="273" y="740" type="curve" smooth="yes"/>
      <point x="279" y="740"/>
      <point x="285" y="738"/>
      <point x="292" y="733" type="curve"/>
      <point x="292" y="759" type="line"/>
      <point x="287" y="762"/>
      <point x="279" y="765"/>
      <point x="270" y="765" type="curve" smooth="yes"/>
      <point x="241" y="765"/>
      <point x="222" y="740"/>
      <point x="222" y="668" type="curve" smooth="yes"/>
      <point x="222" y="498" type="line" smooth="yes"/>
      <point x="222" y="483"/>
      <point x="223" y="458"/>
      <point x="224" y="439" type="curve"/>
      <point x="222" y="439" type="line"/>
      <point x="208" y="492"/>
      <point x="183" y="538"/>
      <point x="140" y="538" type="curve" smooth="yes"/>
      <point x="74" y="538"/>
      <point x="40" y="432"/>
      <point x="40" y="259" type="curve" smooth="yes"/>
      <point x="40" y="79"/>
      <point x="76" y="-10"/>
      <point x="136" y="-10" type="curve" smooth="yes"/>
      <point x="179" y="-10"/>
      <point x="209" y="39"/>
      <point x="222" y="114" type="curve"/>
      <point x="224" y="114" type="line"/>
      <point x="222" y="74"/>
      <point x="222" y="50"/>
      <point x="222" y="15" type="curve" smooth="yes"/>
      <point x="222" y="-30" type="line" smooth="yes"/>
      <point x="222" y="-152"/>
      <point x="195" y="-216"/>
      <point x="133" y="-216" type="curve" smooth="yes"/>
      <point x="104" y="-216"/>
      <point x="76" y="-201"/>
      <point x="52" y="-179" type="curve"/>
      <point x="52" y="-208" type="line"/>
      <point x="75" y="-228"/>
      <point x="101" y="-241"/>
    </contour>
    <contour>
      <point x="141" y="15" type="curve" smooth="yes"/>
      <point x="91" y="15"/>
      <point x="65" y="96"/>
      <point x="65" y="259" type="curve" smooth="yes"/>
      <point x="65" y="414"/>
      <point x="90" y="513"/>
      <point x="145" y="513" type="curve" smooth="yes"/>
      <point x="201" y="513"/>
      <point x="223" y="423"/>
      <point x="223" y="312" type="curve" smooth="yes"/>
      <point x="223" y="234" type="line" smooth="yes"/>
      <point x="223" y="131"/>
      <point x="203" y="15"/>
    </contour>
  </outline>
</glyph>
<glyph name="uni0263" format="2">
  <advance width="300"/>
  <unicode hex="0263"/>
  <anchor x="150" y="-241" name="bottom"/>
  <anchor x="150" y="528" name="top"/>
  <outline>
    <contour>
      <point x="147" y="-241" type="curve" smooth="yes"/>
      <point x="183" y="-241"/>
      <point x="202" y="-199"/>
      <point x="202" y="-141" type="curve" smooth="yes"/>
      <point x="202" y="-80"/>
      <point x="186" y="-9"/>
      <point x="163" y="82" type="curve"/>
      <point x="262" y="528" type="line"/>
      <point x="234" y="528" type="line"/>
      <point x="172" y="220" type="line" smooth="yes"/>
      <point x="164" y="180"/>
      <point x="154" y="141"/>
      <point x="149" y="113" type="curve"/>
      <point x="147" y="113" type="line"/>
      <point x="143" y="141"/>
      <point x="132" y="181"/>
      <point x="124" y="220" type="curve" smooth="yes"/>
      <point x="62" y="528" type="line"/>
      <point x="33" y="528" type="line"/>
      <point x="132" y="81" type="line"/>
      <point x="108" y="-23"/>
      <point x="93" y="-88"/>
      <point x="93" y="-141" type="curve" smooth="yes"/>
      <point x="93" y="-200"/>
      <point x="111" y="-241"/>
    </contour>
    <contour>
      <point x="147" y="-217" type="curve" smooth="yes"/>
      <point x="129" y="-217"/>
      <point x="117" y="-188"/>
      <point x="117" y="-138" type="curve" smooth="yes"/>
      <point x="117" y="-94"/>
      <point x="129" y="-28"/>
      <point x="147" y="50" type="curve"/>
      <point x="165" y="-30"/>
      <point x="177" y="-91"/>
      <point x="177" y="-139" type="curve" smooth="yes"/>
      <point x="177" y="-188"/>
      <point x="167" y="-217"/>
    </contour>
  </outline>
</glyph>
<glyph name="uni0264" format="2">
  <advance width="300"/>
  <unicode hex="0264"/>
  <anchor x="150" y="0" name="bottom"/>
  <anchor x="150" y="528" name="top"/>
  <outline>
    <contour>
      <point x="149" y="-9" type="curve" smooth="yes"/>
      <point x="182" y="-9"/>
      <point x="198" y="30"/>
      <point x="198" y="87" type="curve" smooth="yes"/>
      <point x="198" y="140"/>
      <point x="186" y="189"/>
      <point x="164" y="260" type="curve"/>
      <point x="218" y="459" type="line" smooth="yes"/>
      <point x="228" y="495"/>
      <point x="236" y="512"/>
      <point x="252" y="512" type="curve" smooth="yes"/>
      <point x="259" y="512"/>
      <point x="265" y="508"/>
      <point x="271" y="502" type="curve"/>
      <point x="271" y="527" type="line"/>
      <point x="265" y="533"/>
      <point x="256" y="537"/>
      <point x="247" y="537" type="curve" smooth="yes"/>
      <point x="229" y="537"/>
      <point x="216" y="526"/>
      <point x="202" y="476" type="curve" smooth="yes"/>
      <point x="166" y="341" type="line" smooth="yes"/>
      <point x="159" y="316"/>
      <point x="154" y="301"/>
      <point x="151" y="284" type="curve"/>
      <point x="149" y="284" type="line"/>
      <point x="146" y="304"/>
      <point x="142" y="311"/>
      <point x="134" y="340" type="curve" smooth="yes"/>
      <point x="99" y="474" type="line" smooth="yes"/>
      <point x="86" y="523"/>
      <point x="74" y="537"/>
      <point x="54" y="537" type="curve" smooth="yes"/>
      <point x="44" y="537"/>
      <point x="34" y="532"/>
      <point x="29" y="525" type="curve"/>
      <point x="29" y="501" type="line"/>
      <point x="33" y="506"/>
      <point x="40" y="512"/>
      <point x="49" y="512" type="curve" smooth="yes"/>
      <point x="64" y="512"/>
      <point x="72" y="492"/>
      <point x="81" y="459" type="curve" smooth="yes"/>
      <point x="134" y="261" type="line"/>
      <point x="114" y="187"/>
      <point x="101" y="142"/>
      <point x="101" y="85" type="curve" smooth="yes"/>
      <point x="101" y="29"/>
      <point x="116" y="-9"/>
    </contour>
    <contour>
      <point x="148" y="16" type="curve" smooth="yes"/>
      <point x="132" y="16"/>
      <point x="123" y="43"/>
      <point x="123" y="86" type="curve" smooth="yes"/>
      <point x="123" y="136"/>
      <point x="133" y="180"/>
      <point x="150" y="235" type="curve"/>
      <point x="165" y="183"/>
      <point x="175" y="136"/>
      <point x="175" y="88" type="curve" smooth="yes"/>
      <point x="175" y="42"/>
      <point x="165" y="16"/>
    </contour>
  </outline>
</glyph>
<glyph name="uni0267" format="2">
  <advance width="300"/>
  <unicode hex="0267"/>
  <anchor x="150" y="-241" name="bottom"/>
  <anchor x="150" y="264" name="center"/>
  <anchor x="89" y="760" name="top"/>
  <outline>
    <contour>
      <point x="192" y="-241" type="curve" smooth="yes"/>
      <point x="224" y="-241"/>
      <point x="249" y="-211"/>
      <point x="249" y="-126" type="curve" smooth="yes"/>
      <point x="249" y="356" type="line" smooth="yes"/>
      <point x="249" y="479"/>
      <point x="216" y="538"/>
      <point x="163" y="538" type="curve" smooth="yes"/>
      <point x="115" y="538"/>
      <point x="89" y="478"/>
      <point x="78" y="421" type="curve"/>
      <point x="76" y="421" type="line"/>
      <point x="77" y="446"/>
      <point x="78" y="464"/>
      <point x="78" y="494" type="curve" smooth="yes"/>
      <point x="78" y="653" type="line" smooth="yes"/>
      <point x="78" y="709"/>
      <point x="88" y="740"/>
      <point x="111" y="740" type="curve" smooth="yes"/>
      <point x="119" y="740"/>
      <point x="127" y="738"/>
      <point x="136" y="731" type="curve"/>
      <point x="136" y="757" type="line"/>
      <point x="129" y="761"/>
      <point x="119" y="765"/>
      <point x="108" y="765" type="curve" smooth="yes"/>
      <point x="76" y="765"/>
      <point x="53" y="733"/>
      <point x="53" y="656" type="curve" smooth="yes"/>
      <point x="53" y="0" type="line"/>
      <point x="78" y="0" type="line"/>
      <point x="78" y="300" type="line" smooth="yes"/>
      <point x="78" y="447"/>
      <point x="111" y="513"/>
      <point x="159" y="513" type="curve" smooth="yes"/>
      <point x="201" y="513"/>
      <point x="225" y="467"/>
      <point x="225" y="353" type="curve" smooth="yes"/>
      <point x="225" y="-124" type="line" smooth="yes"/>
      <point x="225" y="-188"/>
      <point x="211" y="-216"/>
      <point x="189" y="-216" type="curve" smooth="yes"/>
      <point x="179" y="-216"/>
      <point x="171" y="-214"/>
      <point x="163" y="-207" type="curve"/>
      <point x="163" y="-233" type="line"/>
      <point x="170" y="-238"/>
      <point x="180" y="-241"/>
    </contour>
  </outline>
</glyph>
<glyph name="uni026A" format="2">
  <advance width="300"/>
  <unicode hex="026A"/>
  <anchor x="150" y="0" name="bottom"/>
  <anchor x="150" y="528" name="top"/>
  <outline>
    <contour>
      <point x="69" y="0" type="line"/>
      <point x="230" y="0" type="line"/>
      <point x="230" y="20" type="line"/>
      <point x="162" y="23" type="line"/>
      <point x="162" y="504" type="line"/>
      <point x="230" y="508" type="line"/>
      <point x="230" y="528" type="line"/>
      <point x="69" y="528" type="line"/>
      <point x="69" y="508" type="line"/>
      <point x="137" y="504" type="line"/>
      <point x="137" y="23" type="line"/>
      <point x="69" y="20" type="line"/>
    </contour>
  </outline>
</glyph>
<glyph name="uni026B" format="2">
  <advance width="300"/>
  <unicode hex="026B"/>
  <anchor x="153" y="0" name="bottom"/>
  <anchor x="150" y="760" name="top"/>
  <anchor x="244" y="760" name="topright"/>
  <anchor x="162" y="376" name="center"/>
  <outline>
    <contour>
      <point x="75" y="351" type="curve"/>
      <point x="93" y="351" type="line"/>
      <point x="95" y="394"/>
      <point x="104" y="416"/>
      <point x="118" y="416" type="curve" smooth="yes"/>
      <point x="141" y="416"/>
      <point x="161" y="351"/>
      <point x="190" y="351" type="curve" smooth="yes"/>
      <point x="211" y="351"/>
      <point x="230" y="379"/>
      <point x="231" y="440" type="curve"/>
      <point x="213" y="440" type="line"/>
      <point x="211" y="398"/>
      <point x="203" y="374"/>
      <point x="188" y="374" type="curve" smooth="yes"/>
      <point x="165" y="374"/>
      <point x="144" y="439"/>
      <point x="115" y="439" type="curve" smooth="yes"/>
      <point x="94" y="439"/>
      <point x="78" y="414"/>
    </contour>
    <component base="l" xOffset="10"/>
  </outline>
</glyph>
<glyph name="uni0270" format="2">
  <advance width="300"/>
  <unicode hex="0270"/>
  <anchor x="252" y="-240" name="bottom"/>
  <anchor x="150" y="528" name="top"/>
  <outline>
    <contour>
      <point x="240" y="-240" type="line"/>
      <point x="264" y="-240" type="line"/>
      <point x="264" y="528" type="line"/>
      <point x="240" y="528" type="line"/>
      <point x="240" y="162" type="line" smooth="yes"/>
      <point x="240" y="88"/>
      <point x="227" y="15"/>
      <point x="195" y="15" type="curve" smooth="yes"/>
      <point x="175" y="15"/>
      <point x="162" y="31"/>
      <point x="162" y="144" type="curve" smooth="yes"/>
      <point x="162" y="528" type="line"/>
      <point x="138" y="528" type="line"/>
      <point x="138" y="162" type="line" smooth="yes"/>
      <point x="138" y="70"/>
      <point x="123" y="15"/>
      <point x="94" y="15" type="curve" smooth="yes"/>
      <point x="73" y="15"/>
      <point x="60" y="35"/>
      <point x="60" y="127" type="curve" smooth="yes"/>
      <point x="60" y="528" type="line"/>
      <point x="36" y="528" type="line"/>
      <point x="36" y="125" type="line" smooth="yes"/>
      <point x="36" y="23"/>
      <point x="54" y="-9"/>
      <point x="88" y="-9" type="curve" smooth="yes"/>
      <point x="117" y="-9"/>
      <point x="133" y="27"/>
      <point x="142" y="68" type="curve"/>
      <point x="143" y="68" type="line"/>
      <point x="148" y="32"/>
      <point x="160" y="-9"/>
      <point x="189" y="-9" type="curve" smooth="yes"/>
      <point x="218" y="-9"/>
      <point x="232" y="35"/>
      <point x="238" y="66" type="curve"/>
      <point x="240" y="66" type="line"/>
    </contour>
  </outline>
</glyph>
<glyph name="uni0272" format="2">
  <advance width="300"/>
  <unicode hex="0272"/>
  <anchor x="152" y="-240" name="bottom"/>
  <anchor x="149" y="528" name="top"/>
  <outline>
    <contour>
      <point x="31" y="-242" type="curve" smooth="yes"/>
      <point x="59" y="-242"/>
      <point x="77" y="-217"/>
      <point x="77" y="-145" type="curve" smooth="yes"/>
      <point x="77" y="307" type="line" smooth="yes"/>
      <point x="77" y="446"/>
      <point x="110" y="512"/>
      <point x="159" y="512" type="curve" smooth="yes"/>
      <point x="200" y="512"/>
      <point x="224" y="467"/>
      <point x="224" y="355" type="curve" smooth="yes"/>
      <point x="224" y="0" type="line"/>
      <point x="249" y="0" type="line"/>
      <point x="249" y="361" type="line" smooth="yes"/>
      <point x="249" y="483"/>
      <point x="218" y="537"/>
      <point x="164" y="537" type="curve" smooth="yes"/>
      <point x="117" y="537"/>
      <point x="89" y="476"/>
      <point x="77" y="416" type="curve"/>
      <point x="76" y="416" type="line"/>
      <point x="72" y="528" type="line"/>
      <point x="53" y="528" type="line"/>
      <point x="53" y="-142" type="line" smooth="yes"/>
      <point x="53" y="-193"/>
      <point x="45" y="-217"/>
      <point x="27" y="-217" type="curve" smooth="yes"/>
      <point x="20" y="-217"/>
      <point x="14" y="-215"/>
      <point x="8" y="-210" type="curve"/>
      <point x="8" y="-236" type="line"/>
      <point x="13" y="-239"/>
      <point x="20" y="-242"/>
    </contour>
  </outline>
</glyph>
<glyph name="uni0273" format="2">
  <advance width="300"/>
  <unicode hex="0273"/>
  <anchor x="155" y="-242" name="bottom"/>
  <anchor x="154" y="528" name="top"/>
  <outline>
    <contour>
      <point x="269" y="-242" type="curve" smooth="yes"/>
      <point x="279" y="-242"/>
      <point x="287" y="-239"/>
      <point x="294" y="-236" type="curve"/>
      <point x="294" y="-210" type="line"/>
      <point x="288" y="-215"/>
      <point x="281" y="-217"/>
      <point x="273" y="-217" type="curve" smooth="yes"/>
      <point x="256" y="-217"/>
      <point x="249" y="-193"/>
      <point x="249" y="-142" type="curve" smooth="yes"/>
      <point x="249" y="361" type="line" smooth="yes"/>
      <point x="249" y="483"/>
      <point x="218" y="537"/>
      <point x="164" y="537" type="curve" smooth="yes"/>
      <point x="117" y="537"/>
      <point x="89" y="476"/>
      <point x="78" y="416" type="curve"/>
      <point x="76" y="416" type="line"/>
      <point x="73" y="528" type="line"/>
      <point x="53" y="528" type="line"/>
      <point x="53" y="0" type="line"/>
      <point x="78" y="0" type="line"/>
      <point x="78" y="307" type="line" smooth="yes"/>
      <point x="78" y="446"/>
      <point x="110" y="512"/>
      <point x="159" y="512" type="curve" smooth="yes"/>
      <point x="200" y="512"/>
      <point x="225" y="467"/>
      <point x="225" y="355" type="curve" smooth="yes"/>
      <point x="225" y="-145" type="line" smooth="yes"/>
      <point x="225" y="-217"/>
      <point x="240" y="-242"/>
    </contour>
  </outline>
</glyph>
<glyph name="uni0274" format="2">
  <advance width="300"/>
  <unicode hex="0274"/>
  <anchor x="149" y="0" name="bottom"/>
  <anchor x="149" y="528" name="top"/>
  <outline>
    <contour>
      <point x="51" y="0" type="line"/>
      <point x="75" y="0" type="line"/>
      <point x="75" y="386" type="line" smooth="yes"/>
      <point x="75" y="417"/>
      <point x="75" y="452"/>
      <point x="74" y="487" type="curve"/>
      <point x="215" y="0" type="line"/>
      <point x="242" y="0" type="line"/>
      <point x="242" y="532" type="line"/>
      <point x="218" y="532" type="line"/>
      <point x="218" y="144" type="line" smooth="yes"/>
      <point x="218" y="111"/>
      <point x="218" y="80"/>
      <point x="219" y="46" type="curve"/>
      <point x="78" y="532" type="line"/>
      <point x="51" y="532" type="line"/>
    </contour>
  </outline>
</glyph>
<glyph name="omegaclosed" format="2">
  <advance width="300"/>
  <unicode hex="0277"/>
  <anchor x="151" y="0" name="bottom"/>
  <anchor x="151" y="528" name="top"/>
  <outline>
    <contour>
      <point x="98" y="-10" type="curve" smooth="yes"/>
      <point x="128" y="-10"/>
      <point x="142" y="35"/>
      <point x="149" y="82" type="curve"/>
      <point x="150" y="82" type="line"/>
      <point x="157" y="33"/>
      <point x="171" y="-10"/>
      <point x="202" y="-10" type="curve" smooth="yes"/>
      <point x="246" y="-10"/>
      <point x="268" y="57"/>
      <point x="268" y="230" type="curve" smooth="yes"/>
      <point x="268" y="429"/>
      <point x="233" y="537"/>
      <point x="152" y="537" type="curve" smooth="yes"/>
      <point x="71" y="537"/>
      <point x="32" y="436"/>
      <point x="32" y="230" type="curve" smooth="yes"/>
      <point x="32" y="59"/>
      <point x="55" y="-10"/>
    </contour>
    <contour>
      <point x="99" y="15" type="curve" smooth="yes"/>
      <point x="70" y="15"/>
      <point x="56" y="78"/>
      <point x="56" y="229" type="curve" smooth="yes"/>
      <point x="56" y="414"/>
      <point x="87" y="512"/>
      <point x="152" y="512" type="curve" smooth="yes"/>
      <point x="219" y="512"/>
      <point x="244" y="409"/>
      <point x="244" y="230" type="curve" smooth="yes"/>
      <point x="244" y="68"/>
      <point x="229" y="15"/>
      <point x="200" y="15" type="curve" smooth="yes"/>
      <point x="173" y="15"/>
      <point x="161" y="82"/>
      <point x="161" y="186" type="curve" smooth="yes"/>
      <point x="161" y="342" type="line"/>
      <point x="137" y="342" type="line"/>
      <point x="137" y="186" type="line" smooth="yes"/>
      <point x="137" y="80"/>
      <point x="126" y="15"/>
    </contour>
  </outline>
</glyph>
<glyph name="uni027A" format="2">
  <advance width="300"/>
  <unicode hex="027A"/>
  <anchor x="151" y="0" name="bottom"/>
  <anchor x="169" y="760" name="top"/>
  <outline>
    <contour>
      <point x="75" y="-8" type="curve" smooth="yes"/>
      <point x="119" y="-8"/>
      <point x="144" y="44"/>
      <point x="156" y="101" type="curve"/>
      <point x="157" y="101" type="line"/>
      <point x="160" y="0" type="line"/>
      <point x="250" y="0" type="line"/>
      <point x="250" y="21" type="line"/>
      <point x="181" y="25" type="line"/>
      <point x="181" y="760" type="line"/>
      <point x="156" y="760" type="line"/>
      <point x="156" y="225" type="line" smooth="yes"/>
      <point x="156" y="94"/>
      <point x="128" y="18"/>
      <point x="77" y="18" type="curve" smooth="yes"/>
      <point x="65" y="18"/>
      <point x="49" y="23"/>
      <point x="36" y="31" type="curve"/>
      <point x="30" y="5" type="line"/>
      <point x="42" y="-2"/>
      <point x="60" y="-8"/>
    </contour>
  </outline>
</glyph>
<glyph name="uni027B" format="2">
  <advance width="300"/>
  <unicode hex="027B"/>
  <anchor x="135" y="-240" name="bottom"/>
  <anchor x="169" y="528" name="top"/>
  <outline>
    <contour>
      <point x="201" y="-242" type="curve" smooth="yes"/>
      <point x="211" y="-242"/>
      <point x="220" y="-239"/>
      <point x="226" y="-236" type="curve"/>
      <point x="226" y="-210" type="line"/>
      <point x="220" y="-215"/>
      <point x="213" y="-217"/>
      <point x="205" y="-217" type="curve" smooth="yes"/>
      <point x="188" y="-217"/>
      <point x="181" y="-193"/>
      <point x="181" y="-142" type="curve" smooth="yes"/>
      <point x="181" y="528" type="line"/>
      <point x="156" y="528" type="line"/>
      <point x="156" y="229" type="line" smooth="yes"/>
      <point x="156" y="89"/>
      <point x="126" y="18"/>
      <point x="75" y="18" type="curve" smooth="yes"/>
      <point x="57" y="18"/>
      <point x="43" y="25"/>
      <point x="36" y="31" type="curve"/>
      <point x="29" y="5" type="line"/>
      <point x="37" y="-1"/>
      <point x="52" y="-8"/>
      <point x="72" y="-8" type="curve" smooth="yes"/>
      <point x="116" y="-8"/>
      <point x="145" y="45"/>
      <point x="156" y="101" type="curve"/>
      <point x="158" y="101" type="line"/>
      <point x="157" y="78"/>
      <point x="156" y="51"/>
      <point x="156" y="28" type="curve" smooth="yes"/>
      <point x="156" y="-145" type="line" smooth="yes"/>
      <point x="156" y="-217"/>
      <point x="172" y="-242"/>
    </contour>
  </outline>
</glyph>
<glyph name="rlongleg" format="2">
  <advance width="300"/>
  <unicode hex="027C"/>
  <anchor x="132" y="-240" name="bottom"/>
  <anchor x="165" y="528" name="top"/>
  <outline>
    <contour>
      <point x="119" y="-240" type="line"/>
      <point x="144" y="-240" type="line"/>
      <point x="144" y="303" type="line" smooth="yes"/>
      <point x="144" y="434"/>
      <point x="171" y="510"/>
      <point x="222" y="510" type="curve" smooth="yes"/>
      <point x="235" y="510"/>
      <point x="251" y="505"/>
      <point x="263" y="497" type="curve"/>
      <point x="269" y="523" type="line"/>
      <point x="257" y="530"/>
      <point x="239" y="536"/>
      <point x="224" y="536" type="curve" smooth="yes"/>
      <point x="180" y="536"/>
      <point x="155" y="484"/>
      <point x="144" y="427" type="curve"/>
      <point x="142" y="427" type="line"/>
      <point x="139" y="528" type="line"/>
      <point x="49" y="528" type="line"/>
      <point x="49" y="507" type="line"/>
      <point x="119" y="503" type="line"/>
    </contour>
  </outline>
</glyph>
<glyph name="uni027E" format="2">
  <advance width="300"/>
  <unicode hex="027E"/>
  <anchor x="150" y="0" name="bottom"/>
  <anchor x="189" y="528" name="top"/>
  <outline>
    <contour>
      <point x="109" y="0" type="line"/>
      <point x="134" y="0" type="line"/>
      <point x="134" y="346" type="line" smooth="yes"/>
      <point x="134" y="472"/>
      <point x="163" y="513"/>
      <point x="204" y="513" type="curve" smooth="yes"/>
      <point x="225" y="513"/>
      <point x="244" y="501"/>
      <point x="255" y="491" type="curve"/>
      <point x="261" y="517" type="line"/>
      <point x="249" y="526"/>
      <point x="229" y="538"/>
      <point x="203" y="538" type="curve" smooth="yes"/>
      <point x="148" y="538"/>
      <point x="109" y="480"/>
      <point x="109" y="353" type="curve" smooth="yes"/>
    </contour>
  </outline>
</glyph>
<glyph name="uni0282" format="2">
  <advance width="300"/>
  <unicode hex="0282"/>
  <anchor x="150" y="-291" name="bottom"/>
  <anchor x="150" y="528" name="top"/>
  <anchor x="289" y="528" name="topright"/>
  <outline>
    <contour>
      <point x="105" y="-242" type="curve" smooth="yes"/>
      <point x="115" y="-242"/>
      <point x="123" y="-239"/>
      <point x="128" y="-236" type="curve"/>
      <point x="128" y="-210" type="line"/>
      <point x="122" y="-215"/>
      <point x="116" y="-217"/>
      <point x="110" y="-217" type="curve" smooth="yes"/>
      <point x="95" y="-217"/>
      <point x="87" y="-193"/>
      <point x="87" y="-142" type="curve" smooth="yes"/>
      <point x="87" y="27" type="line"/>
      <point x="65" y="42" type="line"/>
      <point x="65" y="-145" type="line" smooth="yes"/>
      <point x="65" y="-217"/>
      <point x="81" y="-242"/>
    </contour>
    <component base="s" xOffset="10"/>
  </outline>
</glyph>
<glyph name="eshsquatreversed" format="2">
  <advance width="300"/>
  <unicode hex="0285"/>
  <anchor x="198" y="-240" name="bottom"/>
  <anchor x="94" y="528" name="top"/>
  <outline>
    <contour>
      <point x="222" y="-240" type="curve" smooth="yes"/>
      <point x="246" y="-240"/>
      <point x="262" y="-229"/>
      <point x="271" y="-221" type="curve"/>
      <point x="271" y="-193" type="line"/>
      <point x="262" y="-202"/>
      <point x="246" y="-215"/>
      <point x="224" y="-215" type="curve" smooth="yes"/>
      <point x="186" y="-215"/>
      <point x="161" y="-174"/>
      <point x="161" y="-63" type="curve" smooth="yes"/>
      <point x="161" y="351" type="line" smooth="yes"/>
      <point x="161" y="470"/>
      <point x="127" y="536"/>
      <point x="71" y="536" type="curve" smooth="yes"/>
      <point x="51" y="536"/>
      <point x="37" y="529"/>
      <point x="28" y="522" type="curve"/>
      <point x="28" y="497" type="line"/>
      <point x="36" y="504"/>
      <point x="51" y="511"/>
      <point x="69" y="511" type="curve" smooth="yes"/>
      <point x="113" y="511"/>
      <point x="136" y="460"/>
      <point x="136" y="348" type="curve" smooth="yes"/>
      <point x="136" y="-66" type="line" smooth="yes"/>
      <point x="136" y="-184"/>
      <point x="172" y="-240"/>
    </contour>
  </outline>
</glyph>
<glyph name="uni0288" format="2">
  <advance width="300"/>
  <unicode hex="0288"/>
  <anchor x="151" y="-240" name="bottom"/>
  <anchor x="151" y="659" name="top"/>
  <outline>
    <contour>
      <point x="216" y="-240" type="curve" smooth="yes"/>
      <point x="235" y="-240"/>
      <point x="250" y="-234"/>
      <point x="264" y="-227" type="curve"/>
      <point x="264" y="-202" type="line"/>
      <point x="249" y="-210"/>
      <point x="235" y="-215"/>
      <point x="218" y="-215" type="curve" smooth="yes"/>
      <point x="175" y="-215"/>
      <point x="161" y="-155"/>
      <point x="161" y="-47" type="curve" smooth="yes"/>
      <point x="161" y="503" type="line"/>
      <point x="260" y="503" type="line"/>
      <point x="260" y="528" type="line"/>
      <point x="161" y="528" type="line"/>
      <point x="161" y="659" type="line"/>
      <point x="143" y="659" type="line"/>
      <point x="136" y="528" type="line"/>
      <point x="62" y="524" type="line"/>
      <point x="62" y="503" type="line"/>
      <point x="136" y="503" type="line"/>
      <point x="136" y="-50" type="line" smooth="yes"/>
      <point x="136" y="-168"/>
      <point x="160" y="-240"/>
    </contour>
  </outline>
</glyph>
<glyph name="uni028F" format="2">
  <advance width="300"/>
  <unicode hex="028F"/>
  <anchor x="149" y="0" name="bottom"/>
  <anchor x="149" y="528" name="top"/>
  <outline>
    <contour>
      <point x="136" y="0" type="line"/>
      <point x="161" y="0" type="line"/>
      <point x="161" y="230" type="line"/>
      <point x="273" y="528" type="line"/>
      <point x="243" y="528" type="line"/>
      <point x="148" y="256" type="line"/>
      <point x="56" y="528" type="line"/>
      <point x="26" y="528" type="line"/>
      <point x="136" y="230" type="line"/>
    </contour>
  </outline>
</glyph>
<glyph name="uni0290" format="2">
  <advance width="300"/>
  <unicode hex="0290"/>
  <anchor x="161" y="-240" name="bottom"/>
  <anchor x="150" y="528" name="top"/>
  <anchor x="289" y="528" name="topright"/>
  <outline>
    <contour>
      <point x="268" y="-241" type="curve" smooth="yes"/>
      <point x="279" y="-241"/>
      <point x="289" y="-238"/>
      <point x="295" y="-234" type="curve"/>
      <point x="295" y="-209" type="line"/>
      <point x="289" y="-214"/>
      <point x="280" y="-217"/>
      <point x="272" y="-217" type="curve" smooth="yes"/>
      <point x="252" y="-217"/>
      <point x="242" y="-194"/>
      <point x="242" y="-149" type="curve" smooth="yes"/>
      <point x="242" y="25" type="line"/>
      <point x="218" y="0" type="line"/>
      <point x="218" y="-153" type="line" smooth="yes"/>
      <point x="218" y="-212"/>
      <point x="237" y="-241"/>
    </contour>
    <component base="z" xOffset="10"/>
  </outline>
</glyph>
<glyph name="cstretched" format="2">
  <advance width="300"/>
  <unicode hex="0297"/>
  <anchor x="182" y="-239" name="bottom"/>
  <anchor x="177" y="528" name="top"/>
  <outline>
    <contour>
      <point x="180" y="-239" type="curve" smooth="yes"/>
      <point x="208" y="-239"/>
      <point x="230" y="-228"/>
      <point x="247" y="-216" type="curve"/>
      <point x="247" y="-191" type="line"/>
      <point x="229" y="-203"/>
      <point x="209" y="-214"/>
      <point x="182" y="-214" type="curve" smooth="yes"/>
      <point x="117" y="-214"/>
      <point x="73" y="-133"/>
      <point x="73" y="160" type="curve" smooth="yes"/>
      <point x="73" y="418"/>
      <point x="118" y="513"/>
      <point x="185" y="513" type="curve" smooth="yes"/>
      <point x="206" y="513"/>
      <point x="226" y="505"/>
      <point x="245" y="492" type="curve"/>
      <point x="252" y="518" type="line"/>
      <point x="235" y="529"/>
      <point x="213" y="538"/>
      <point x="186" y="538" type="curve" smooth="yes"/>
      <point x="107" y="538"/>
      <point x="48" y="435"/>
      <point x="48" y="160" type="curve" smooth="yes"/>
      <point x="48" y="-146"/>
      <point x="99" y="-239"/>
    </contour>
  </outline>
</glyph>
<glyph name="uni029B" format="2">
  <advance width="300"/>
  <unicode hex="029B"/>
  <anchor x="174" y="0" name="bottom"/>
  <anchor x="169" y="760" name="top"/>
  <outline>
    <contour>
      <point x="169" y="-9" type="curve" smooth="yes"/>
      <point x="204" y="-9"/>
      <point x="229" y="0"/>
      <point x="248" y="15" type="curve"/>
      <point x="248" y="262" type="line"/>
      <point x="155" y="262" type="line"/>
      <point x="155" y="237" type="line"/>
      <point x="224" y="237" type="line"/>
      <point x="224" y="32" type="line"/>
      <point x="209" y="23"/>
      <point x="193" y="16"/>
      <point x="170" y="16" type="curve" smooth="yes"/>
      <point x="97" y="16"/>
      <point x="62" y="113"/>
      <point x="62" y="263" type="curve" smooth="yes"/>
      <point x="62" y="419"/>
      <point x="104" y="514"/>
      <point x="173" y="514" type="curve" smooth="yes"/>
      <point x="199" y="514"/>
      <point x="218" y="505"/>
      <point x="236" y="489" type="curve"/>
      <point x="245" y="513" type="line"/>
      <point x="245" y="654" type="line" smooth="yes"/>
      <point x="245" y="717"/>
      <point x="257" y="742"/>
      <point x="280" y="742" type="curve" smooth="yes"/>
      <point x="289" y="742"/>
      <point x="297" y="739"/>
      <point x="305" y="733" type="curve"/>
      <point x="305" y="759" type="line"/>
      <point x="299" y="763"/>
      <point x="289" y="767"/>
      <point x="277" y="767" type="curve" smooth="yes"/>
      <point x="243" y="767"/>
      <point x="222" y="734"/>
      <point x="222" y="657" type="curve" smooth="yes"/>
      <point x="222" y="524" type="line"/>
      <point x="209" y="533"/>
      <point x="193" y="539"/>
      <point x="173" y="539" type="curve" smooth="yes"/>
      <point x="87" y="539"/>
      <point x="37" y="428"/>
      <point x="37" y="264" type="curve" smooth="yes"/>
      <point x="37" y="96"/>
      <point x="83" y="-9"/>
    </contour>
  </outline>
</glyph>
<glyph name="uni029D" format="2">
  <advance width="300"/>
  <unicode hex="029D"/>
  <anchor x="172" y="-240" name="bottom"/>
  <anchor x="172" y="760" name="top"/>
  <outline>
    <contour>
      <point x="122" y="-232" type="curve" smooth="yes"/>
      <point x="163" y="-232"/>
      <point x="187" y="-184"/>
      <point x="187" y="-76" type="curve"/>
      <point x="222" y="-76" type="line"/>
      <point x="222" y="-52" type="line"/>
      <point x="187" y="-52" type="line"/>
      <point x="187" y="528" type="line"/>
      <point x="67" y="528" type="line"/>
      <point x="67" y="507" type="line"/>
      <point x="162" y="503" type="line"/>
      <point x="162" y="-52" type="line"/>
      <point x="141" y="-52" type="line" smooth="yes"/>
      <point x="99" y="-52"/>
      <point x="67" y="-68"/>
      <point x="67" y="-147" type="curve" smooth="yes"/>
      <point x="67" y="-204"/>
      <point x="88" y="-232"/>
    </contour>
    <contour>
      <point x="121" y="-209" type="curve" smooth="yes"/>
      <point x="101" y="-209"/>
      <point x="88" y="-186"/>
      <point x="88" y="-147" type="curve" smooth="yes"/>
      <point x="88" y="-96"/>
      <point x="105" y="-76"/>
      <point x="139" y="-76" type="curve" smooth="yes"/>
      <point x="162" y="-76" type="line"/>
      <point x="162" y="-81" type="line" smooth="yes"/>
      <point x="162" y="-150"/>
      <point x="153" y="-209"/>
    </contour>
    <contour>
      <point x="172" y="650" type="curve" smooth="yes"/>
      <point x="188" y="650"/>
      <point x="193" y="669"/>
      <point x="193" y="687" type="curve" smooth="yes"/>
      <point x="193" y="706"/>
      <point x="187" y="724"/>
      <point x="172" y="724" type="curve" smooth="yes"/>
      <point x="156" y="724"/>
      <point x="149" y="706"/>
      <point x="149" y="687" type="curve" smooth="yes"/>
      <point x="149" y="667"/>
      <point x="156" y="650"/>
    </contour>
  </outline>
</glyph>
<glyph name="qhook" format="2">
  <advance width="300"/>
  <unicode hex="02A0"/>
  <anchor x="150" y="-232" name="bottom"/>
  <anchor x="150" y="765" name="top"/>
  <outline>
    <contour>
      <point x="222" y="-232" type="line"/>
      <point x="246" y="-232" type="line"/>
      <point x="246" y="665" type="line" smooth="yes"/>
      <point x="246" y="716"/>
      <point x="254" y="740"/>
      <point x="273" y="740" type="curve" smooth="yes"/>
      <point x="280" y="740"/>
      <point x="286" y="738"/>
      <point x="293" y="733" type="curve"/>
      <point x="293" y="759" type="line"/>
      <point x="288" y="762"/>
      <point x="280" y="765"/>
      <point x="270" y="765" type="curve" smooth="yes"/>
      <point x="241" y="765"/>
      <point x="222" y="740"/>
      <point x="222" y="668" type="curve" smooth="yes"/>
      <point x="222" y="498" type="line" smooth="yes"/>
      <point x="222" y="475"/>
      <point x="222" y="455"/>
      <point x="223" y="434" type="curve"/>
      <point x="222" y="434" type="line"/>
      <point x="210" y="487"/>
      <point x="189" y="537"/>
      <point x="142" y="537" type="curve" smooth="yes"/>
      <point x="76" y="537"/>
      <point x="40" y="435"/>
      <point x="40" y="259" type="curve" smooth="yes"/>
      <point x="40" y="82"/>
      <point x="76" y="-10"/>
      <point x="140" y="-10" type="curve" smooth="yes"/>
      <point x="185" y="-10"/>
      <point x="210" y="43"/>
      <point x="222" y="104" type="curve"/>
      <point x="224" y="104" type="line"/>
      <point x="222" y="75"/>
      <point x="222" y="45"/>
      <point x="222" y="30" type="curve" smooth="yes"/>
    </contour>
    <contour>
      <point x="145" y="15" type="curve" smooth="yes"/>
      <point x="96" y="15"/>
      <point x="65" y="91"/>
      <point x="65" y="259" type="curve" smooth="yes"/>
      <point x="65" y="417"/>
      <point x="92" y="511"/>
      <point x="146" y="511" type="curve" smooth="yes"/>
      <point x="197" y="511"/>
      <point x="222" y="437"/>
      <point x="222" y="323" type="curve" smooth="yes"/>
      <point x="222" y="213" type="line" smooth="yes"/>
      <point x="222" y="99"/>
      <point x="197" y="15"/>
    </contour>
  </outline>
</glyph>
<glyph name="uni02A1" format="2">
  <advance width="300"/>
  <unicode hex="02A1"/>
  <anchor x="136" y="0" name="bottom"/>
  <anchor x="150" y="764" name="top"/>
  <outline>
    <contour>
      <point x="55" y="170" type="line"/>
      <point x="223" y="170" type="line"/>
      <point x="223" y="194" type="line"/>
      <point x="55" y="194" type="line"/>
    </contour>
    <component base="uni0294" xOffset="10"/>
  </outline>
</glyph>
<glyph name="uni02AC" format="2">
  <advance width="300"/>
  <unicode hex="02AC"/>
  <anchor x="150" y="0" name="bottom"/>
  <anchor x="150" y="714" name="top"/>
  <outline>
    <contour>
      <point x="83" y="380" type="line"/>
      <point x="110" y="380" type="line"/>
      <point x="150" y="679" type="line"/>
      <point x="189" y="380" type="line"/>
      <point x="216" y="380" type="line"/>
      <point x="263" y="714" type="line"/>
      <point x="240" y="714" type="line"/>
      <point x="202" y="412" type="line"/>
      <point x="163" y="714" type="line"/>
      <point x="138" y="714" type="line"/>
      <point x="98" y="412" type="line"/>
      <point x="59" y="714" type="line"/>
      <point x="36" y="714" type="line"/>
    </contour>
    <contour>
      <point x="83" y="0" type="line"/>
      <point x="110" y="0" type="line"/>
      <point x="150" y="300" type="line"/>
      <point x="189" y="0" type="line"/>
      <point x="216" y="0" type="line"/>
      <point x="263" y="335" type="line"/>
      <point x="240" y="335" type="line"/>
      <point x="202" y="33" type="line"/>
      <point x="163" y="335" type="line"/>
      <point x="138" y="335" type="line"/>
      <point x="98" y="33" type="line"/>
      <point x="59" y="335" type="line"/>
      <point x="36" y="335" type="line"/>
    </contour>
  </outline>
</glyph>
<glyph name="uni02AE" format="2">
  <advance width="300"/>
  <unicode hex="02AE"/>
  <anchor x="150" y="-240" name="bottom"/>
  <anchor x="150" y="528" name="top"/>
  <outline>
    <contour>
      <point x="222" y="-232" type="line"/>
      <point x="247" y="-232" type="line"/>
      <point x="247" y="528" type="line"/>
      <point x="222" y="528" type="line"/>
      <point x="222" y="228" type="line" smooth="yes"/>
      <point x="222" y="81"/>
      <point x="189" y="15"/>
      <point x="140" y="15" type="curve" smooth="yes"/>
      <point x="99" y="15"/>
      <point x="75" y="61"/>
      <point x="75" y="175" type="curve" smooth="yes"/>
      <point x="75" y="440" type="line" smooth="yes"/>
      <point x="75" y="512"/>
      <point x="56" y="537"/>
      <point x="27" y="537" type="curve" smooth="yes"/>
      <point x="18" y="537"/>
      <point x="10" y="534"/>
      <point x="5" y="531" type="curve"/>
      <point x="5" y="505" type="line"/>
      <point x="12" y="510"/>
      <point x="18" y="512"/>
      <point x="24" y="512" type="curve" smooth="yes"/>
      <point x="43" y="512"/>
      <point x="50" y="488"/>
      <point x="50" y="437" type="curve" smooth="yes"/>
      <point x="50" y="172" type="line" smooth="yes"/>
      <point x="50" y="49"/>
      <point x="83" y="-10"/>
      <point x="136" y="-10" type="curve" smooth="yes"/>
      <point x="185" y="-10"/>
      <point x="210" y="50"/>
      <point x="222" y="107" type="curve"/>
      <point x="223" y="107" type="line"/>
      <point x="223" y="82"/>
      <point x="222" y="64"/>
      <point x="222" y="34" type="curve" smooth="yes"/>
    </contour>
  </outline>
</glyph>
<glyph name="uni02AF" format="2">
  <advance width="300"/>
  <unicode hex="02AF"/>
  <anchor x="150" y="-240" name="bottom"/>
  <anchor x="150" y="528" name="top"/>
  <outline>
    <contour>
      <point x="277" y="-240" type="curve" smooth="yes"/>
      <point x="290" y="-240"/>
      <point x="301" y="-236"/>
      <point x="308" y="-232" type="curve"/>
      <point x="308" y="-206" type="line"/>
      <point x="302" y="-211"/>
      <point x="292" y="-215"/>
      <point x="282" y="-215" type="curve" smooth="yes"/>
      <point x="259" y="-215"/>
      <point x="247" y="-186"/>
      <point x="247" y="-117" type="curve" smooth="yes"/>
      <point x="247" y="528" type="line"/>
      <point x="222" y="528" type="line"/>
      <point x="222" y="228" type="line" smooth="yes"/>
      <point x="222" y="81"/>
      <point x="189" y="15"/>
      <point x="140" y="15" type="curve" smooth="yes"/>
      <point x="99" y="15"/>
      <point x="75" y="61"/>
      <point x="75" y="175" type="curve" smooth="yes"/>
      <point x="75" y="440" type="line" smooth="yes"/>
      <point x="75" y="512"/>
      <point x="56" y="537"/>
      <point x="27" y="537" type="curve" smooth="yes"/>
      <point x="18" y="537"/>
      <point x="10" y="534"/>
      <point x="5" y="531" type="curve"/>
      <point x="5" y="505" type="line"/>
      <point x="12" y="510"/>
      <point x="18" y="512"/>
      <point x="24" y="512" type="curve" smooth="yes"/>
      <point x="43" y="512"/>
      <point x="50" y="488"/>
      <point x="50" y="437" type="curve" smooth="yes"/>
      <point x="50" y="172" type="line" smooth="yes"/>
      <point x="50" y="49"/>
      <point x="83" y="-10"/>
      <point x="136" y="-10" type="curve" smooth="yes"/>
      <point x="185" y="-10"/>
      <point x="210" y="50"/>
      <point x="222" y="107" type="curve"/>
      <point x="223" y="107" type="line"/>
      <point x="223" y="82"/>
      <point x="222" y="64"/>
      <point x="222" y="34" type="curve" smooth="yes"/>
      <point x="222" y="-122" type="line" smooth="yes"/>
      <point x="222" y="-204"/>
      <point x="242" y="-240"/>
    </contour>
  </outline>
</glyph>
<glyph name="uni02BE" format="2">
  <advance width="300"/>
  <unicode hex="02BE"/>
  <outline>
    <contour>
      <point x="119" y="575" type="line"/>
      <point x="157" y="575"/>
      <point x="181" y="612"/>
      <point x="181" y="680" type="curve" smooth="yes"/>
      <point x="181" y="743"/>
      <point x="157" y="781"/>
      <point x="119" y="781" type="curve"/>
      <point x="119" y="759" type="line"/>
      <point x="148" y="759"/>
      <point x="162" y="728"/>
      <point x="162" y="680" type="curve" smooth="yes"/>
      <point x="162" y="625"/>
      <point x="147" y="597"/>
      <point x="119" y="597" type="curve"/>
    </contour>
  </outline>
</glyph>
<glyph name="circumflex" format="2">
  <advance width="300"/>
  <unicode hex="02C6"/>
  <outline>
    <contour>
      <point x="83" y="606" type="line"/>
      <point x="98" y="606" type="line"/>
      <point x="114" y="641"/>
      <point x="135" y="695"/>
      <point x="150" y="732" type="curve"/>
      <point x="166" y="693"/>
      <point x="185" y="642"/>
      <point x="202" y="606" type="curve"/>
      <point x="217" y="606" type="line"/>
      <point x="217" y="613" type="line"/>
      <point x="202" y="643"/>
      <point x="175" y="719"/>
      <point x="162" y="763" type="curve"/>
      <point x="138" y="763" type="line"/>
      <point x="126" y="721"/>
      <point x="100" y="649"/>
      <point x="83" y="613" type="curve"/>
    </contour>
  </outline>
</glyph>
<glyph name="uni02D0" format="2">
  <advance width="300"/>
  <unicode hex="02D0"/>
  <outline>
    <contour>
      <point x="150" y="414" type="line"/>
      <point x="182" y="527" type="line"/>
      <point x="119" y="527" type="line"/>
    </contour>
    <contour>
      <point x="119" y="0" type="line"/>
      <point x="182" y="0" type="line"/>
      <point x="150" y="113" type="line"/>
    </contour>
  </outline>
</glyph>
<glyph name="uni02D1" format="2">
  <advance width="300"/>
  <unicode hex="02D1"/>
  <outline>
    <contour>
      <point x="150" y="414" type="line"/>
      <point x="182" y="527" type="line"/>
      <point x="119" y="527" type="line"/>
    </contour>
  </outline>
</glyph>
<glyph name="uni02D7" format="2">
  <advance width="300"/>
  <unicode hex="02D7"/>
  <outline>
    <contour>
      <point x="103" y="336" type="line"/>
      <point x="103" y="311" type="line"/>
      <point x="197" y="311" type="line"/>
      <point x="197" y="336" type="line"/>
    </contour>
  </outline>
</glyph>
<glyph name="ring" format="2">
  <advance width="300"/>
  <unicode hex="02DA"/>
  <outline>
    <contour>
      <point x="150" y="614" type="curve" smooth="yes"/>
      <point x="181" y="614"/>
      <point x="204" y="650"/>
      <point x="204" y="706" type="curve" smooth="yes"/>
      <point x="204" y="763"/>
      <point x="180" y="800"/>
      <point x="150" y="800" type="curve" smooth="yes"/>
      <point x="118" y="800"/>
      <point x="95" y="764"/>
      <point x="95" y="707" type="curve" smooth="yes"/>
      <point x="95" y="648"/>
      <point x="119" y="614"/>
    </contour>
    <contour>
      <point x="150" y="636" type="curve" smooth="yes"/>
      <point x="128" y="636"/>
      <point x="113" y="667"/>
      <point x="113" y="707" type="curve" smooth="yes"/>
      <point x="113" y="748"/>
      <point x="128" y="777"/>
      <point x="149" y="777" type="curve" smooth="yes"/>
      <point x="171" y="777"/>
      <point x="186" y="749"/>
      <point x="186" y="706" type="curve" smooth="yes"/>
      <point x="186" y="665"/>
      <point x="172" y="636"/>
    </contour>
  </outline>
</glyph>
<glyph name="tilde" format="2">
  <advance width="300"/>
  <unicode hex="02DC"/>
  <outline>
    <contour>
      <point x="67" y="625" type="curve"/>
      <point x="85" y="625" type="line"/>
      <point x="88" y="677"/>
      <point x="99" y="694"/>
      <point x="112" y="694" type="curve" smooth="yes"/>
      <point x="137" y="694"/>
      <point x="154" y="624"/>
      <point x="186" y="624" type="curve" smooth="yes"/>
      <point x="210" y="624"/>
      <point x="229" y="655"/>
      <point x="231" y="718" type="curve"/>
      <point x="213" y="718" type="line"/>
      <point x="210" y="667"/>
      <point x="200" y="648"/>
      <point x="185" y="648" type="curve" smooth="yes"/>
      <point x="160" y="648"/>
      <point x="143" y="718"/>
      <point x="112" y="718" type="curve" smooth="yes"/>
      <point x="86" y="718"/>
      <point x="70" y="689"/>
    </contour>
  </outline>
</glyph>
<glyph name="uni02EF" format="2">
  <advance width="300"/>
  <unicode hex="02EF"/>
  <outline>
    <contour>
      <point x="145" y="-208" type="line"/>
      <point x="155" y="-208" type="line"/>
      <point x="204" y="-36" type="line"/>
      <point x="186" y="-36" type="line"/>
      <point x="150" y="-174" type="line"/>
      <point x="114" y="-36" type="line"/>
      <point x="96" y="-36" type="line"/>
    </contour>
  </outline>
</glyph>
<glyph name="uni02F1" format="2">
  <advance width="300"/>
  <unicode hex="02F1"/>
  <outline>
    <contour>
      <point x="193" y="-217" type="line"/>
      <point x="193" y="-191" type="line"/>
      <point x="126" y="-108" type="line"/>
      <point x="193" y="-27" type="line"/>
      <point x="193" y="-1" type="line"/>
      <point x="108" y="-97" type="line"/>
      <point x="108" y="-120" type="line"/>
    </contour>
  </outline>
</glyph>
<glyph name="uni02F9" format="2">
  <advance width="300"/>
  <unicode hex="02F9"/>
  <outline>
    <contour>
      <point x="104" y="415" type="line"/>
      <point x="134" y="415" type="line"/>
      <point x="134" y="628" type="line"/>
      <point x="197" y="628" type="line"/>
      <point x="197" y="681" type="line"/>
      <point x="104" y="681" type="line"/>
    </contour>
  </outline>
</glyph>
<glyph name="hookpalatalizedbelowcomb" format="2">
  <unicode hex="0321"/>
  <outline>
    <contour>
      <point x="-9" y="-235" type="curve"/>
      <point x="17" y="-235"/>
      <point x="29" y="-205"/>
      <point x="29" y="-159" type="curve" smooth="yes"/>
      <point x="29" y="31" type="line"/>
      <point x="6" y="31" type="line"/>
      <point x="6" y="-155" type="line" smooth="yes"/>
      <point x="6" y="-191"/>
      <point x="0" y="-210"/>
      <point x="-12" y="-210" type="curve" smooth="yes"/>
      <point x="-19" y="-210"/>
      <point x="-26" y="-205"/>
      <point x="-30" y="-201" type="curve"/>
      <point x="-30" y="-226" type="line"/>
      <point x="-25" y="-230"/>
      <point x="-18" y="-235"/>
    </contour>
  </outline>
</glyph>
<glyph name="commaaccent" format="2">
  <unicode hex="0326"/>
  <anchor x="0" y="0" name="_bottom"/>
  <anchor x="0" y="-221" name="bottom"/>
  <outline>
    <contour>
      <point x="-36" y="-221" type="line"/>
      <point x="-22" y="-221" type="line"/>
      <point x="-6" y="-175"/>
      <point x="7" y="-118"/>
      <point x="14" y="-69" type="curve"/>
      <point x="14" y="-61" type="line"/>
      <point x="-13" y="-61" type="line"/>
      <point x="-15" y="-103"/>
      <point x="-28" y="-180"/>
      <point x="-36" y="-213" type="curve"/>
    </contour>
  </outline>
</glyph>
<glyph name="tildeverticalcomb" format="2">
  <unicode hex="033E"/>
  <anchor x="0" y="527" name="_top"/>
  <anchor x="0" y="866" name="top"/>
  <outline>
    <contour>
      <point x="-24" y="606" type="line"/>
      <point x="10" y="611"/>
      <point x="25" y="640"/>
      <point x="25" y="675" type="curve" smooth="yes"/>
      <point x="25" y="730"/>
      <point x="-8" y="752"/>
      <point x="-8" y="796" type="curve" smooth="yes"/>
      <point x="-8" y="823"/>
      <point x="3" y="841"/>
      <point x="25" y="844" type="curve"/>
      <point x="25" y="866" type="line"/>
      <point x="-9" y="865"/>
      <point x="-25" y="833"/>
      <point x="-25" y="796" type="curve" smooth="yes"/>
      <point x="-25" y="741"/>
      <point x="8" y="717"/>
      <point x="8" y="675" type="curve" smooth="yes"/>
      <point x="8" y="652"/>
      <point x="-1" y="632"/>
      <point x="-24" y="629" type="curve"/>
    </contour>
  </outline>
</glyph>
<glyph name="homotheticabovecomb" format="2">
  <unicode hex="034B"/>
  <anchor x="0" y="527" name="_top"/>
  <anchor x="0" y="902" name="top"/>
  <outline>
    <contour>
      <point x="-75" y="705" type="curve"/>
      <point x="-58" y="705" type="line"/>
      <point x="-56" y="750"/>
      <point x="-46" y="770"/>
      <point x="-34" y="770" type="curve" smooth="yes"/>
      <point x="-13" y="770"/>
      <point x="5" y="705"/>
      <point x="34" y="705" type="curve" smooth="yes"/>
      <point x="56" y="705"/>
      <point x="74" y="733"/>
      <point x="75" y="794" type="curve"/>
      <point x="59" y="794" type="line"/>
      <point x="57" y="752"/>
      <point x="48" y="728"/>
      <point x="34" y="728" type="curve" smooth="yes"/>
      <point x="12" y="728"/>
      <point x="-5" y="793"/>
      <point x="-34" y="793" type="curve" smooth="yes"/>
      <point x="-56" y="793"/>
      <point x="-72" y="768"/>
    </contour>
    <contour>
      <point x="1" y="595" type="curve" smooth="yes"/>
      <point x="10" y="595"/>
      <point x="15" y="608"/>
      <point x="15" y="632" type="curve" smooth="yes"/>
      <point x="15" y="654"/>
      <point x="11" y="666"/>
      <point x="1" y="666" type="curve" smooth="yes"/>
      <point x="-10" y="666"/>
      <point x="-14" y="650"/>
      <point x="-14" y="630" type="curve" smooth="yes"/>
      <point x="-14" y="610"/>
      <point x="-10" y="595"/>
    </contour>
    <contour>
      <point x="1" y="831" type="curve" smooth="yes"/>
      <point x="10" y="831"/>
      <point x="15" y="844"/>
      <point x="15" y="868" type="curve" smooth="yes"/>
      <point x="15" y="890"/>
      <point x="11" y="902"/>
      <point x="1" y="902" type="curve" smooth="yes"/>
      <point x="-10" y="902"/>
      <point x="-14" y="886"/>
      <point x="-14" y="866" type="curve" smooth="yes"/>
      <point x="-14" y="846"/>
      <point x="-10" y="831"/>
    </contour>
  </outline>
</glyph>
<glyph name="asteriskbelowcomb" format="2">
  <unicode hex="0359"/>
  <anchor x="0" y="0" name="_bottom"/>
  <anchor x="0" y="-211" name="bottom"/>
  <outline>
    <contour>
      <point x="-18" y="-211" type="line"/>
      <point x="0" y="-160" type="line"/>
      <point x="18" y="-211" type="line"/>
      <point x="37" y="-192" type="line"/>
      <point x="12" y="-147" type="line"/>
      <point x="47" y="-129" type="line"/>
      <point x="39" y="-101" type="line"/>
      <point x="8" y="-126" type="line"/>
      <point x="11" y="-62" type="line"/>
      <point x="-11" y="-62" type="line"/>
      <point x="-8" y="-126" type="line"/>
      <point x="-40" y="-100" type="line"/>
      <point x="-48" y="-129" type="line"/>
      <point x="-12" y="-147" type="line"/>
      <point x="-37" y="-192" type="line"/>
    </contour>
  </outline>
</glyph>
<glyph name="doubleringbelowcomb" format="2">
  <unicode hex="035A"/>
  <anchor x="0" y="0" name="_bottom"/>
  <anchor x="0" y="-239" name="bottom"/>
  <outline>
    <contour>
      <point x="-40" y="-239" type="curve" smooth="yes"/>
      <point x="-21" y="-239"/>
      <point x="-8" y="-218"/>
      <point x="0" y="-188" type="curve"/>
      <point x="8" y="-218"/>
      <point x="20" y="-239"/>
      <point x="40" y="-239" type="curve" smooth="yes"/>
      <point x="70" y="-239"/>
      <point x="87" y="-196"/>
      <point x="87" y="-137" type="curve" smooth="yes"/>
      <point x="87" y="-74"/>
      <point x="69" y="-33"/>
      <point x="40" y="-33" type="curve" smooth="yes"/>
      <point x="20" y="-33"/>
      <point x="7" y="-56"/>
      <point x="0" y="-83" type="curve"/>
      <point x="-7" y="-59"/>
      <point x="-20" y="-33"/>
      <point x="-41" y="-33" type="curve" smooth="yes"/>
      <point x="-69" y="-33"/>
      <point x="-88" y="-74"/>
      <point x="-88" y="-135" type="curve" smooth="yes"/>
      <point x="-88" y="-194"/>
      <point x="-70" y="-239"/>
    </contour>
    <contour>
      <point x="-40" y="-218" type="curve" smooth="yes"/>
      <point x="-59" y="-218"/>
      <point x="-72" y="-186"/>
      <point x="-72" y="-135" type="curve" smooth="yes"/>
      <point x="-72" y="-87"/>
      <point x="-60" y="-54"/>
      <point x="-41" y="-54" type="curve" smooth="yes"/>
      <point x="-21" y="-54"/>
      <point x="-7" y="-86"/>
      <point x="-7" y="-136" type="curve" smooth="yes"/>
      <point x="-7" y="-184"/>
      <point x="-20" y="-218"/>
    </contour>
    <contour>
      <point x="40" y="-218" type="curve" smooth="yes"/>
      <point x="20" y="-218"/>
      <point x="7" y="-185"/>
      <point x="7" y="-136" type="curve" smooth="yes"/>
      <point x="7" y="-86"/>
      <point x="21" y="-54"/>
      <point x="40" y="-54" type="curve" smooth="yes"/>
      <point x="59" y="-54"/>
      <point x="72" y="-86"/>
      <point x="72" y="-136" type="curve" smooth="yes"/>
      <point x="72" y="-184"/>
      <point x="60" y="-218"/>
    </contour>
  </outline>
</glyph>
<glyph name="breveinverteddoublecomb" format="2">
  <unicode hex="0361"/>
  <anchor x="0" y="617" name="_top"/>
  <anchor x="0" y="854" name="top"/>
  <outline>
    <contour>
      <point x="-141" y="677" type="curve"/>
      <point x="-121" y="677" type="line"/>
      <point x="-101" y="773"/>
      <point x="-58" y="830"/>
      <point x="-1" y="830" type="curve" smooth="yes"/>
      <point x="66" y="830"/>
      <point x="104" y="765"/>
      <point x="122" y="677" type="curve"/>
      <point x="142" y="677" type="line"/>
      <point x="121" y="795"/>
      <point x="68" y="854"/>
      <point x="-1" y="854" type="curve"/>
      <point x="-64" y="854"/>
      <point x="-116" y="803"/>
    </contour>
  </outline>
</glyph>
<glyph name="heta" format="2">
  <advance width="300"/>
  <unicode hex="0371"/>
  <anchor x="150" y="0" name="bottom"/>
  <anchor x="150" y="528" name="top"/>
  <outline>
    <contour>
      <point x="96" y="0" type="line"/>
      <point x="120" y="0" type="line"/>
      <point x="120" y="263" type="line"/>
      <point x="204" y="263" type="line"/>
      <point x="204" y="288" type="line"/>
      <point x="120" y="288" type="line"/>
      <point x="120" y="527" type="line"/>
      <point x="96" y="527" type="line"/>
    </contour>
  </outline>
</glyph>
<glyph name="uni0375" format="2">
  <advance width="300"/>
  <unicode hex="0375"/>
  <outline>
    <contour>
      <point x="115" y="-220" type="line"/>
      <point x="142" y="-220" type="line"/>
      <point x="153" y="-162"/>
      <point x="166" y="-121"/>
      <point x="185" y="-71" type="curve"/>
      <point x="185" y="-60" type="line"/>
      <point x="171" y="-60" type="line"/>
      <point x="151" y="-102"/>
      <point x="128" y="-159"/>
      <point x="115" y="-213" type="curve"/>
    </contour>
  </outline>
</glyph>
<glyph name="tonos" format="2">
  <advance width="300"/>
  <unicode hex="0384"/>
  <anchor x="149" y="528" name="_top"/>
  <anchor x="156" y="760" name="top"/>
  <outline>
    <contour>
      <point x="141" y="606" type="line"/>
      <point x="156" y="606" type="line"/>
      <point x="168" y="655"/>
      <point x="181" y="732"/>
      <point x="188" y="789" type="curve"/>
      <point x="188" y="797" type="line"/>
      <point x="163" y="797" type="line"/>
      <point x="160" y="744"/>
      <point x="148" y="658"/>
      <point x="141" y="614" type="curve"/>
    </contour>
  </outline>
</glyph>
<glyph name="Epsilontonos" format="2">
  <advance width="300"/>
  <unicode hex="0388"/>
  <anchor x="164" y="0" name="bottom"/>
  <anchor x="160" y="714" name="top"/>
  <anchor x="30" y="714" name="topleft"/>
  <outline>
    <contour>
      <point x="70" y="0" type="line"/>
      <point x="243" y="0" type="line"/>
      <point x="243" y="25" type="line"/>
      <point x="95" y="25" type="line"/>
      <point x="95" y="364" type="line"/>
      <point x="233" y="364" type="line"/>
      <point x="233" y="389" type="line"/>
      <point x="95" y="389" type="line"/>
      <point x="95" y="689" type="line"/>
      <point x="243" y="689" type="line"/>
      <point x="243" y="714" type="line"/>
      <point x="70" y="714" type="line"/>
    </contour>
    <component base="tonos" xOffset="-140"/>
  </outline>
</glyph>
<glyph name="Sigma" format="2">
  <advance width="300"/>
  <unicode hex="03A3"/>
  <anchor x="150" y="0" name="bottom"/>
  <anchor x="150" y="714" name="top"/>
  <outline>
    <contour>
      <point x="58" y="0" type="line"/>
      <point x="254" y="0" type="line"/>
      <point x="254" y="26" type="line"/>
      <point x="115" y="26" type="line"/>
      <point x="106" y="26"/>
      <point x="96" y="26"/>
      <point x="87" y="26" type="curve"/>
      <point x="188" y="374" type="line"/>
      <point x="91" y="688" type="line"/>
      <point x="100" y="688"/>
      <point x="109" y="688"/>
      <point x="119" y="688" type="curve"/>
      <point x="240" y="688" type="line"/>
      <point x="240" y="714" type="line"/>
      <point x="62" y="714" type="line"/>
      <point x="62" y="695" type="line"/>
      <point x="160" y="372" type="line"/>
      <point x="58" y="21" type="line"/>
    </contour>
  </outline>
</glyph>
<glyph name="Psi" format="2">
  <advance width="300"/>
  <unicode hex="03A8"/>
  <anchor x="150" y="0" name="bottom"/>
  <anchor x="150" y="714" name="top"/>
  <outline>
    <contour>
      <point x="137" y="0" type="line"/>
      <point x="162" y="0" type="line"/>
      <point x="162" y="224" type="line"/>
      <point x="240" y="228"/>
      <point x="275" y="290"/>
      <point x="275" y="481" type="curve" smooth="yes"/>
      <point x="275" y="714" type="line"/>
      <point x="250" y="714" type="line"/>
      <point x="250" y="486" type="line" smooth="yes"/>
      <point x="250" y="317"/>
      <point x="227" y="254"/>
      <point x="162" y="249" type="curve"/>
      <point x="162" y="714" type="line"/>
      <point x="137" y="714" type="line"/>
      <point x="137" y="249" type="line"/>
      <point x="68" y="253"/>
      <point x="50" y="328"/>
      <point x="50" y="487" type="curve" smooth="yes"/>
      <point x="50" y="714" type="line"/>
      <point x="25" y="714" type="line"/>
      <point x="25" y="484" type="line" smooth="yes"/>
      <point x="25" y="283"/>
      <point x="62" y="228"/>
      <point x="137" y="224" type="curve"/>
    </contour>
  </outline>
</glyph>
<glyph name="Omega" format="2">
  <advance width="300"/>
  <unicode hex="03A9"/>
  <anchor x="150" y="0" name="bottom"/>
  <anchor x="149" y="714" name="top"/>
  <anchor x="21" y="714" name="topleft"/>
  <outline>
    <contour>
      <point x="25" y="0" type="line"/>
      <point x="129" y="0" type="line"/>
      <point x="129" y="20" type="line"/>
      <point x="87" y="78"/>
      <point x="59" y="188"/>
      <point x="59" y="383" type="curve" smooth="yes"/>
      <point x="59" y="605"/>
      <point x="94" y="700"/>
      <point x="151" y="700" type="curve" smooth="yes"/>
      <point x="207" y="700"/>
      <point x="240" y="611"/>
      <point x="240" y="378" type="curve" smooth="yes"/>
      <point x="240" y="194"/>
      <point x="219" y="79"/>
      <point x="169" y="20" type="curve"/>
      <point x="169" y="0" type="line"/>
      <point x="275" y="0" type="line"/>
      <point x="275" y="25" type="line"/>
      <point x="201" y="25" type="line"/>
      <point x="240" y="81"/>
      <point x="266" y="185"/>
      <point x="266" y="377" type="curve" smooth="yes"/>
      <point x="266" y="630"/>
      <point x="223" y="725"/>
      <point x="151" y="725" type="curve" smooth="yes"/>
      <point x="76" y="725"/>
      <point x="33" y="620"/>
      <point x="33" y="380" type="curve" smooth="yes"/>
      <point x="33" y="189"/>
      <point x="61" y="84"/>
      <point x="99" y="25" type="curve"/>
      <point x="25" y="25" type="line"/>
    </contour>
  </outline>
</glyph>
<glyph name="epsilon" format="2">
  <advance width="300"/>
  <unicode hex="03B5"/>
  <anchor x="158" y="0" name="bottom"/>
  <anchor x="150" y="528" name="top"/>
  <outline>
    <contour>
      <point x="162" y="-10" type="curve" smooth="yes"/>
      <point x="198" y="-10"/>
      <point x="227" y="5"/>
      <point x="247" y="20" type="curve"/>
      <point x="247" y="45" type="line"/>
      <point x="222" y="26"/>
      <point x="196" y="15"/>
      <point x="163" y="15" type="curve" smooth="yes"/>
      <point x="106" y="15"/>
      <point x="76" y="68"/>
      <point x="76" y="138" type="curve" smooth="yes"/>
      <point x="76" y="230"/>
      <point x="111" y="269"/>
      <point x="174" y="269" type="curve" smooth="yes"/>
      <point x="204" y="269" type="line"/>
      <point x="204" y="294" type="line"/>
      <point x="177" y="294" type="line" smooth="yes"/>
      <point x="115" y="294"/>
      <point x="86" y="331"/>
      <point x="86" y="401" type="curve" smooth="yes"/>
      <point x="86" y="473"/>
      <point x="113" y="513"/>
      <point x="165" y="513" type="curve" smooth="yes"/>
      <point x="191" y="513"/>
      <point x="217" y="501"/>
      <point x="239" y="484" type="curve"/>
      <point x="248" y="508" type="line"/>
      <point x="221" y="527"/>
      <point x="198" y="538"/>
      <point x="164" y="538" type="curve" smooth="yes"/>
      <point x="108" y="538"/>
      <point x="62" y="501"/>
      <point x="62" y="401" type="curve" smooth="yes"/>
      <point x="62" y="347"/>
      <point x="77" y="305"/>
      <point x="118" y="283" type="curve"/>
      <point x="118" y="281" type="line"/>
      <point x="74" y="261"/>
      <point x="51" y="209"/>
      <point x="51" y="138" type="curve" smooth="yes"/>
      <point x="51" y="50"/>
      <point x="86" y="-10"/>
    </contour>
  </outline>
</glyph>
<glyph name="theta" format="2">
  <advance width="300"/>
  <unicode hex="03B8"/>
  <anchor x="149" y="0" name="bottom"/>
  <anchor x="150" y="770" name="top"/>
  <anchor x="278" y="770" name="topright"/>
  <outline>
    <contour>
      <point x="149" y="-10" type="curve" smooth="yes"/>
      <point x="220" y="-10"/>
      <point x="257" y="118"/>
      <point x="257" y="395" type="curve" smooth="yes"/>
      <point x="257" y="649"/>
      <point x="221" y="770"/>
      <point x="150" y="770" type="curve" smooth="yes"/>
      <point x="80" y="770"/>
      <point x="42" y="651"/>
      <point x="42" y="394" type="curve" smooth="yes"/>
      <point x="42" y="118"/>
      <point x="78" y="-10"/>
    </contour>
    <contour>
      <point x="149" y="15" type="curve" smooth="yes"/>
      <point x="94" y="15"/>
      <point x="68" y="141"/>
      <point x="67" y="382" type="curve"/>
      <point x="232" y="382" type="line"/>
      <point x="230" y="135"/>
      <point x="203" y="15"/>
    </contour>
    <contour>
      <point x="67" y="407" type="line"/>
      <point x="68" y="632"/>
      <point x="96" y="745"/>
      <point x="150" y="745" type="curve" smooth="yes"/>
      <point x="204" y="745"/>
      <point x="231" y="625"/>
      <point x="232" y="407" type="curve"/>
    </contour>
  </outline>
</glyph>
<glyph name="lambda" format="2">
  <advance width="300"/>
  <unicode hex="03BB"/>
  <anchor x="164" y="0" name="bottom"/>
  <anchor x="165" y="766" name="top"/>
  <outline>
    <contour>
      <point x="269" y="-9" type="curve" smooth="yes"/>
      <point x="277" y="-9"/>
      <point x="281" y="-7"/>
      <point x="286" y="-5" type="curve"/>
      <point x="286" y="20" type="line"/>
      <point x="283" y="18"/>
      <point x="278" y="16"/>
      <point x="272" y="16" type="curve" smooth="yes"/>
      <point x="258" y="16"/>
      <point x="250" y="30"/>
      <point x="243" y="79" type="curve" smooth="yes"/>
      <point x="161" y="662" type="line" smooth="yes"/>
      <point x="150" y="744"/>
      <point x="132" y="766"/>
      <point x="102" y="766" type="curve" smooth="yes"/>
      <point x="91" y="766"/>
      <point x="84" y="762"/>
      <point x="78" y="758" type="curve"/>
      <point x="78" y="733" type="line"/>
      <point x="83" y="737"/>
      <point x="90" y="741"/>
      <point x="98" y="741" type="curve" smooth="yes"/>
      <point x="119" y="741"/>
      <point x="130" y="719"/>
      <point x="138" y="655" type="curve" smooth="yes"/>
      <point x="153" y="535" type="line"/>
      <point x="57" y="0" type="line"/>
      <point x="83" y="0" type="line"/>
      <point x="154" y="429" type="line" smooth="yes"/>
      <point x="158" y="450"/>
      <point x="161" y="470"/>
      <point x="163" y="490" type="curve"/>
      <point x="165" y="490" type="line"/>
      <point x="169" y="467"/>
      <point x="172" y="440"/>
      <point x="176" y="406" type="curve" smooth="yes"/>
      <point x="221" y="75" type="line" smooth="yes"/>
      <point x="229" y="16"/>
      <point x="242" y="-9"/>
    </contour>
  </outline>
</glyph>
<glyph name="nu" format="2">
  <advance width="300"/>
  <unicode hex="03BD"/>
  <anchor x="159" y="0" name="bottom"/>
  <anchor x="156" y="528" name="top"/>
  <outline>
    <contour>
      <point x="126" y="0" type="line"/>
      <point x="147" y="0" type="line"/>
      <point x="219" y="138"/>
      <point x="257" y="305"/>
      <point x="257" y="528" type="curve"/>
      <point x="232" y="528" type="line"/>
      <point x="232" y="315"/>
      <point x="198" y="158"/>
      <point x="142" y="36" type="curve"/>
      <point x="141" y="36" type="line"/>
      <point x="138" y="62"/>
      <point x="132" y="91"/>
      <point x="129" y="110" type="curve" smooth="yes"/>
      <point x="67" y="528" type="line"/>
      <point x="42" y="528" type="line"/>
    </contour>
  </outline>
</glyph>
<glyph name="xi" format="2">
  <advance width="300"/>
  <unicode hex="03BE"/>
  <anchor x="166" y="-202" name="bottom"/>
  <anchor x="167" y="760" name="top"/>
  <outline>
    <contour>
      <point x="184" y="-202" type="curve"/>
      <point x="211" y="-202" type="line"/>
      <point x="228" y="-159"/>
      <point x="241" y="-120"/>
      <point x="241" y="-73" type="curve" smooth="yes"/>
      <point x="241" y="-1"/>
      <point x="207" y="17"/>
      <point x="171" y="40" type="curve" smooth="yes"/>
      <point x="120" y="72"/>
      <point x="89" y="93"/>
      <point x="89" y="206" type="curve" smooth="yes"/>
      <point x="89" y="336"/>
      <point x="132" y="392"/>
      <point x="199" y="392" type="curve" smooth="yes"/>
      <point x="225" y="392" type="line"/>
      <point x="225" y="417" type="line"/>
      <point x="199" y="417" type="line" smooth="yes"/>
      <point x="136" y="417"/>
      <point x="101" y="461"/>
      <point x="101" y="562" type="curve" smooth="yes"/>
      <point x="101" y="690"/>
      <point x="164" y="735"/>
      <point x="223" y="735" type="curve" smooth="yes"/>
      <point x="237" y="735" type="line"/>
      <point x="237" y="760" type="line"/>
      <point x="80" y="760" type="line"/>
      <point x="80" y="735" type="line"/>
      <point x="115" y="735" type="line" smooth="yes"/>
      <point x="133" y="735"/>
      <point x="148" y="736"/>
      <point x="160" y="737" type="curve"/>
      <point x="112" y="718"/>
      <point x="77" y="669"/>
      <point x="77" y="564" type="curve" smooth="yes"/>
      <point x="77" y="459"/>
      <point x="109" y="411"/>
      <point x="155" y="405" type="curve"/>
      <point x="155" y="403" type="line"/>
      <point x="97" y="389"/>
      <point x="64" y="322"/>
      <point x="64" y="206" type="curve" smooth="yes"/>
      <point x="64" y="76"/>
      <point x="111" y="47"/>
      <point x="157" y="18" type="curve" smooth="yes"/>
      <point x="193" y="-5"/>
      <point x="216" y="-20"/>
      <point x="216" y="-76" type="curve" smooth="yes"/>
      <point x="216" y="-111"/>
      <point x="207" y="-145"/>
    </contour>
  </outline>
</glyph>
